<svg width="26" height="27" viewBox="0 0 26 27" fill="none" xmlns="http://www.w3.org/2000/svg">
<path fill-rule="evenodd" clip-rule="evenodd" d="M8.02907 1.77448C9.29073 1.7164 9.693 1.70349 12.9068 1.70349C16.1207 1.70349 16.5229 1.71747 17.7835 1.77448C19.0441 1.83149 19.9046 2.03262 20.6575 2.3241C21.4459 2.62204 22.1611 3.08776 22.7527 3.69009C23.355 4.28058 23.8197 4.99477 24.1165 5.78425C24.4091 6.53715 24.6092 7.39762 24.6672 8.65605C24.7253 9.91986 24.7382 10.3221 24.7382 13.5349C24.7382 16.7487 24.7242 17.151 24.6672 18.4126C24.6102 19.6711 24.4091 20.5315 24.1165 21.2845C23.8197 22.074 23.3543 22.7894 22.7527 23.3808C22.1611 23.9831 21.4459 24.4477 20.6575 24.7446C19.9046 25.0372 19.0441 25.2372 17.7857 25.2953C16.5229 25.3534 16.1207 25.3663 12.9068 25.3663C9.693 25.3663 9.29073 25.3523 8.02907 25.2953C6.77064 25.2383 5.91018 25.0372 5.15727 24.7446C4.36771 24.4477 3.65234 23.9823 3.06096 23.3808C2.45905 22.7899 1.99325 22.0749 1.69605 21.2855C1.40457 20.5326 1.20451 19.6722 1.14643 18.4137C1.08835 17.1499 1.07544 16.7476 1.07544 13.5349C1.07544 10.321 1.08942 9.91878 1.14643 8.6582C1.20343 7.39762 1.40457 6.53715 1.69605 5.78425C1.99369 4.99486 2.45984 4.27985 3.06204 3.68901C3.65258 3.08723 4.36723 2.62144 5.1562 2.3241C5.9091 2.03262 6.76957 1.83256 8.028 1.77448H8.02907ZM17.6878 3.90413C16.4401 3.84713 16.0658 3.83529 12.9068 3.83529C9.74785 3.83529 9.37355 3.84713 8.12587 3.90413C6.97178 3.95683 6.34579 4.14936 5.92846 4.31178C5.37669 4.52689 4.98195 4.78181 4.56785 5.1959C4.17531 5.57779 3.87322 6.04269 3.68372 6.55651C3.52131 6.97384 3.32878 7.59983 3.27608 8.75393C3.21907 10.0016 3.20724 10.3759 3.20724 13.5349C3.20724 16.6939 3.21907 17.0682 3.27608 18.3158C3.32878 19.4699 3.52131 20.0959 3.68372 20.5133C3.87303 21.0263 4.17527 21.492 4.56785 21.8739C4.94968 22.2665 5.41541 22.5687 5.92846 22.758C6.34579 22.9204 6.97178 23.1129 8.12587 23.1656C9.37355 23.2226 9.74678 23.2345 12.9068 23.2345C16.0669 23.2345 16.4401 23.2226 17.6878 23.1656C18.8419 23.1129 19.4679 22.9204 19.8852 22.758C20.437 22.5429 20.8317 22.288 21.2458 21.8739C21.6384 21.492 21.9406 21.0263 22.1299 20.5133C22.2924 20.0959 22.4849 19.4699 22.5376 18.3158C22.5946 17.0682 22.6064 16.6939 22.6064 13.5349C22.6064 10.3759 22.5946 10.0016 22.5376 8.75393C22.4849 7.59983 22.2924 6.97384 22.1299 6.55651C21.9148 6.00474 21.6599 5.61 21.2458 5.1959C20.8639 4.80339 20.399 4.50131 19.8852 4.31178C19.4679 4.14936 18.8419 3.95683 17.6878 3.90413V3.90413ZM11.3956 17.1822C12.2396 17.5335 13.1794 17.5809 14.0544 17.3163C14.9294 17.0517 15.6855 16.4916 16.1934 15.7315C16.7013 14.9714 16.9296 14.0586 16.8392 13.1489C16.7489 12.2392 16.3455 11.3891 15.698 10.7438C15.2852 10.3312 14.7861 10.0154 14.2366 9.81891C13.6871 9.62244 13.1009 9.55025 12.5202 9.60753C11.9394 9.66481 11.3786 9.85014 10.8781 10.1502C10.3776 10.4502 9.94979 10.8575 9.62556 11.3427C9.30134 11.8279 9.08872 12.3789 9.00303 12.9562C8.91733 13.5334 8.96069 14.1225 9.12997 14.6809C9.29926 15.2394 9.59026 15.7534 9.98203 16.1859C10.3738 16.6184 10.8566 16.9587 11.3956 17.1822ZM8.60666 9.23471C9.17137 8.67001 9.84177 8.22206 10.5796 7.91644C11.3174 7.61082 12.1082 7.45352 12.9068 7.45352C13.7055 7.45352 14.4962 7.61082 15.2341 7.91644C15.9719 8.22206 16.6423 8.67001 17.207 9.23471C17.7717 9.79942 18.2197 10.4698 18.5253 11.2076C18.8309 11.9455 18.9882 12.7363 18.9882 13.5349C18.9882 14.3335 18.8309 15.1243 18.5253 15.8621C18.2197 16.5999 17.7717 17.2704 17.207 17.8351C16.0665 18.9755 14.5197 19.6163 12.9068 19.6163C11.294 19.6163 9.74714 18.9755 8.60666 17.8351C7.46618 16.6946 6.82547 15.1478 6.82547 13.5349C6.82547 11.922 7.46618 10.3752 8.60666 9.23471V9.23471ZM20.337 8.35919C20.4769 8.22718 20.5889 8.06844 20.6664 7.89236C20.7439 7.71628 20.7853 7.52644 20.7881 7.33408C20.7909 7.14173 20.7551 6.95077 20.6827 6.7725C20.6104 6.59424 20.5031 6.4323 20.367 6.29627C20.231 6.16024 20.0691 6.05288 19.8908 5.98056C19.7125 5.90824 19.5216 5.87242 19.3292 5.87522C19.1368 5.87803 18.947 5.9194 18.7709 5.99689C18.5949 6.07437 18.4361 6.1864 18.3041 6.32634C18.0474 6.59849 17.9068 6.95999 17.9123 7.33408C17.9177 7.70818 18.0688 8.06543 18.3333 8.32998C18.5979 8.59453 18.9551 8.74557 19.3292 8.75102C19.7033 8.75648 20.0648 8.61592 20.337 8.35919V8.35919Z" fill="#FCB633"/>
</svg>
