<svg width="26" height="26" viewBox="0 0 26 26" fill="none" xmlns="http://www.w3.org/2000/svg">
<g clip-path="url(#clip0_4_1171)">
<path d="M25.43 5.31014C24.5319 5.70811 23.5671 5.977 22.5528 6.09855C23.5993 5.47233 24.3823 4.48675 24.7556 3.3257C23.7723 3.90973 22.6962 4.32082 21.574 4.5411C20.8194 3.73535 19.8198 3.20128 18.7305 3.02182C17.6412 2.84235 16.5232 3.02754 15.5499 3.54861C14.5767 4.06969 13.8027 4.89751 13.3481 5.90355C12.8936 6.90958 12.7839 8.03755 13.036 9.11232C11.0437 9.01229 9.09471 8.49446 7.31548 7.59243C5.53625 6.6904 3.96657 5.42433 2.70831 3.87639C2.27807 4.61855 2.03069 5.47901 2.03069 6.39541C2.03021 7.22037 2.23336 8.0327 2.62213 8.76032C3.01089 9.48794 3.57325 10.1084 4.25929 10.5665C3.46366 10.5412 2.68558 10.3262 1.98982 9.93945V10.004C1.98974 11.161 2.38997 12.2825 3.1226 13.178C3.85523 14.0736 4.87514 14.6881 6.00927 14.9172C5.27118 15.117 4.49736 15.1464 3.74624 15.0033C4.06622 15.9989 4.68952 16.8694 5.52888 17.4932C6.36823 18.1169 7.38162 18.4625 8.42717 18.4817C6.65228 19.875 4.46031 20.6308 2.20386 20.6275C1.80415 20.6276 1.40478 20.6043 1.00781 20.5576C3.29824 22.0302 5.96446 22.8118 8.68746 22.8088C17.9052 22.8088 22.9443 15.1743 22.9443 8.55302C22.9443 8.33791 22.9389 8.12064 22.9292 7.90552C23.9094 7.19669 24.7555 6.31893 25.4278 5.31337L25.43 5.31014V5.31014Z" fill="#FCB633"/>
</g>
<defs>
<clipPath id="clip0_4_1171">
<rect width="25.814" height="25.814" fill="white"/>
</clipPath>
</defs>
</svg>
