<svg width="26" height="26" viewBox="0 0 26 26" fill="none" xmlns="http://www.w3.org/2000/svg">
<path d="M11.6637 18.1679C11.4841 18.4219 11.314 18.5471 11.1514 18.5471C11.043 18.5471 10.9813 18.4836 10.9617 18.3576C10.954 18.3316 10.954 18.2327 10.954 18.0427V14.7494H10.144V18.2864C10.144 18.6026 10.1709 18.8158 10.2155 18.9513C10.2963 19.1779 10.4765 19.2839 10.7377 19.2839C11.0355 19.2839 11.3416 19.1041 11.6635 18.7345V19.2225H12.4747V14.7496H11.6637V18.1679V18.1679Z" fill="#FCB633"/>
<path d="M7.2002 14.0644H8.15362V19.2225H9.0549V14.0644H10.0259V13.2194H7.2002V14.0644Z" fill="#FCB633"/>
<path d="M12.7191 10.1536C12.9832 10.1536 13.1097 9.94456 13.1097 9.52618V7.6245C13.1097 7.20664 12.9832 6.99835 12.7191 6.99835C12.4549 6.99835 12.3281 7.20664 12.3281 7.6245V9.52618C12.3284 9.94431 12.4549 10.1536 12.7191 10.1536Z" fill="#FCB633"/>
<path d="M14.8235 14.6949C14.5256 14.6949 14.2479 14.858 13.9865 15.1801V13.2194H13.1758V19.2225H13.9865V18.7884C14.257 19.1237 14.5355 19.2839 14.8235 19.2839C15.1464 19.2839 15.3632 19.1141 15.4716 18.7814C15.5255 18.5917 15.5531 18.2939 15.5531 17.8801V16.099C15.5531 15.6757 15.5255 15.3799 15.4716 15.2C15.3629 14.8647 15.1464 14.6949 14.8235 14.6949ZM14.7427 17.9436C14.7427 18.3476 14.6237 18.5468 14.3901 18.5468C14.257 18.5468 14.1217 18.4833 13.9862 18.3478V15.6212C14.1217 15.4878 14.2567 15.4243 14.3901 15.4243C14.624 15.4243 14.7427 15.6313 14.7427 16.0347V17.9436Z" fill="#FCB633"/>
<path d="M17.4047 14.6949C16.9912 14.6949 16.668 14.8475 16.4342 15.1538C16.2618 15.3797 16.1836 15.7292 16.1836 16.2069V17.7741C16.1836 18.249 16.2719 18.6023 16.444 18.8256C16.6781 19.1309 17.0007 19.2837 17.4251 19.2837C17.8483 19.2837 18.1805 19.1234 18.4051 18.7993C18.5041 18.6536 18.5688 18.4875 18.5942 18.3133C18.6015 18.2319 18.6115 18.0518 18.6115 17.7911V17.6724H17.7843C17.7843 17.9976 17.7743 18.1775 17.7668 18.2216C17.7206 18.4382 17.6039 18.5466 17.4047 18.5466C17.1264 18.5466 16.9912 18.3401 16.9912 17.9261V17.1332H18.6118V16.2066C18.6118 15.7286 18.5305 15.3794 18.3609 15.1536C18.1341 14.8472 17.8114 14.6949 17.4047 14.6949V14.6949ZM17.8014 16.4588H16.9912V16.0451C16.9912 15.6316 17.1264 15.4246 17.3974 15.4246C17.6656 15.4246 17.8014 15.6316 17.8014 16.0451V16.4588V16.4588Z" fill="#FCB633"/>
<path d="M20.3898 3.6134H5.41998C4.4263 3.6134 3.61328 4.42642 3.61328 5.4201V20.3899C3.61328 21.3836 4.4263 22.1966 5.41998 22.1966H20.3898C21.3835 22.1966 22.1965 21.3836 22.1965 20.3899V5.4201C22.1965 4.42642 21.3835 3.6134 20.3898 3.6134ZM14.6032 6.31571H15.4195V9.64313C15.4195 9.83568 15.4196 9.93556 15.4296 9.96189C15.4477 10.0889 15.5117 10.1537 15.6216 10.1537C15.7853 10.1537 15.9574 10.0267 16.1389 9.77012V6.31571H16.9581V10.835H16.1389V10.3421C15.8129 10.7161 15.5019 10.8978 15.2033 10.8978C14.9395 10.8978 14.7575 10.7906 14.6757 10.5615C14.6305 10.4249 14.6032 10.2084 14.6032 9.88936V6.31571V6.31571ZM11.5093 7.78894C11.5093 7.30604 11.5917 6.9527 11.7659 6.72428C11.9925 6.41559 12.3115 6.26099 12.7193 6.26099C13.1297 6.26099 13.4482 6.41559 13.6751 6.72428C13.8464 6.9527 13.9293 7.30604 13.9293 7.78894V9.37239C13.9293 9.85245 13.8467 10.2086 13.6751 10.4355C13.4482 10.7434 13.1299 10.898 12.7193 10.898C12.3113 10.898 11.9922 10.7434 11.7659 10.4355C11.5917 10.2086 11.5093 9.85245 11.5093 9.37239V7.78894ZM9.3191 4.77021L9.96409 7.1517L10.5833 4.77021H11.5016L10.4093 8.37896V10.835H9.5008V8.37896C9.41872 7.94329 9.23702 7.30578 8.94589 6.45999C8.75438 5.89733 8.55486 5.33209 8.36361 4.77021H9.3191ZM19.3762 19.4912C19.2126 20.2043 18.6288 20.7303 17.9267 20.8085C16.2635 20.9944 14.5805 20.9954 12.9049 20.9944C11.229 20.9954 9.54597 20.9944 7.88303 20.8085C7.18074 20.7301 6.59795 20.2041 6.43406 19.4912C6.20048 18.4753 6.20048 17.3665 6.20048 16.3212C6.20048 15.2749 6.20306 14.1669 6.4369 13.1507C6.60053 12.4378 7.18358 11.9121 7.88587 11.8336C9.54881 11.6473 11.2319 11.6468 12.9077 11.6473C14.5833 11.6468 16.2664 11.6473 17.9296 11.8336C18.6313 11.9121 19.2149 12.4378 19.3788 13.1507C19.6124 14.1671 19.6111 15.2749 19.6111 16.3212C19.6114 17.3665 19.6101 18.4753 19.3762 19.4912V19.4912Z" fill="#FCB633"/>
</svg>
