<svg width="439" height="212" viewBox="0 0 439 212" fill="none" xmlns="http://www.w3.org/2000/svg">
<path d="M202.8 38.95C199.35 36.85 195 35.8 190.05 35.8C175.5 35.8 160.65 41.2 149.1 49C143.4 52.9 137.85 57.7 132.3 63.25C121.35 74.2 113.7 85.15 106.05 97.9C96.6 114.1 85.65 127.6 69.9 137.35C61.95 142.3 54.15 144.7 46.35 144.7C37.05 144.7 28.8 141.55 21.6 135.25C14.55 128.8 10.95 120.85 10.95 111.4C10.95 102.4 14.1 94.6 20.25 88C26.55 81.4 34.5 78.1 44.25 78.1C60 78.1 68.7 86.05 68.7 97.3C68.7 101.35 67.2 104.8 64.05 107.65C58.65 112.9 64.35 118.3 69 114.25C74.25 109.75 76.8 104.05 76.8 97.3C76.8 89.5 73.95 83.05 68.4 77.8C62.85 72.55 54.9 70 44.55 70C32.4 70 22.35 74.2 14.55 82.45C6.75 90.7 2.85 100.3 2.85 111.4C2.85 123.55 7.05 133.45 15.6 141.1C24.15 148.9 34.35 152.8 46.35 152.8C58.8 152.8 70.35 148.75 80.85 140.65C91.5 132.55 100.65 122.05 108.6 109.3C110.1 106.75 110.25 106.15 115.05 105.55H136.35C138.3 105.55 138.9 106.45 138.15 108.25L127.65 130.75C125.1 136.3 123.75 141.7 123.75 147.25C123.75 156.85 128.25 163.75 137.85 163.75C138.6 163.75 139.65 163.6 140.85 163.45L142.35 163C144.45 161.95 145.2 160.15 144.75 157.9C144.3 155.8 142.95 154.9 140.85 155.35C139.65 155.5 138.75 155.65 138.3 155.65C133.95 155.65 131.85 152.8 131.85 147.25C131.85 142.9 132.9 138.4 134.85 133.75L163.95 71.05C167.25 63.85 171.15 57.55 175.8 52C180.45 46.45 185.55 43.6 190.8 43.6C193.65 43.75 195.9 44.35 197.55 45.4C198.15 45.85 198.75 46.15 199.35 46.3C201.6 46.9 203.25 46.15 204.3 43.9C205.35 41.8 204.75 40.15 202.8 38.95ZM144 95.2C143.25 97 141.75 97.9 139.65 97.9H118.65C116.25 97.9 115.95 95.95 116.7 94.9C131.55 69.25 149.4 53.2 169.95 46.75C165.6 52 160.8 59.95 155.55 70.45L144 95.2ZM160.801 121C159.451 124 158.701 126.7 158.701 129.1C158.701 136.3 163.651 140.8 171.601 140.8C179.551 140.8 186.001 135.4 190.951 124.45L202.051 100.9C203.551 97.9 204.301 95.05 204.301 92.35C204.301 85.3 200.101 80.8 193.351 80.8C190.951 80.8 188.551 81.55 186.001 83.05L198.151 58.75C201.301 52.3 193.351 50.2 190.801 55.6L172.801 94.9L160.801 121ZM178.801 100.45C181.351 94.9 186.151 88.75 191.701 88.75C196.351 88.75 197.401 91.6 194.851 97.3L184.051 120.7C180.151 128.95 175.951 133 171.601 133C167.251 133 165.901 129.25 167.701 125.2L178.801 100.45ZM189.751 140.8C194.101 140.8 198.001 139 201.451 135.4C204.901 131.8 207.601 128.05 209.251 124C210.151 121.6 209.401 119.95 207.151 119.2C204.901 118.3 203.251 118.9 202.051 121.15C200.401 124.15 200.401 124.6 198.001 128.05C195.601 131.5 192.901 133 189.751 133C184.951 133 184.951 140.8 189.751 140.8ZM213.21 140.8C220.86 140.8 227.31 135.4 232.56 124.45L243.66 100.9C245.16 97.9 245.91 95.05 245.91 92.35C245.91 85 240.96 80.95 232.71 80.95C225.06 80.95 218.61 86.35 213.36 97.3L202.11 121C200.76 124 200.01 126.85 200.01 129.4C200.01 136.75 204.96 140.8 213.21 140.8ZM208.11 129.4C208.11 127.9 208.56 126.25 209.46 124.45L220.26 101.35C222.06 97.75 222.06 97.6 224.31 94C226.71 90.4 229.56 88.75 232.71 88.75C237.66 88.75 239.01 91.6 236.46 97.3L225.66 120.7C221.76 128.95 217.56 133 213.21 133C209.76 133 208.11 131.8 208.11 129.4ZM266.543 87.7C269.093 82 261.743 79 259.193 84.4L242.393 121.15C240.893 124.6 240.143 127.45 240.143 129.4C240.143 136.75 245.093 140.8 253.343 140.8C257.693 140.8 261.593 139 264.893 135.55C266.843 139 270.443 140.8 275.993 140.8C280.343 140.8 284.243 139 287.693 135.4C291.143 131.8 293.843 128.05 295.493 124C296.393 121.6 295.643 119.95 293.393 119.2C291.143 118.3 289.493 118.9 288.293 121.15C284.393 129.1 280.343 133 275.993 133C273.143 133 271.643 131.8 271.643 129.55C271.643 128.05 272.093 126.25 273.143 124.15L289.793 87.4C292.343 81.7 284.693 79 282.443 84.4L265.193 122.35C262.943 127.3 258.143 133 253.343 133C249.893 133 248.243 131.8 248.243 129.4C248.243 128.35 248.693 126.7 249.593 124.45L266.543 87.7ZM320.643 89.2C322.743 88.45 323.643 86.95 323.493 84.7C323.343 82.75 322.143 81.7 320.043 81.7H317.943C315.993 81.7 315.393 80.8 316.143 79L320.343 70.15C323.493 63.7 315.543 61.6 312.993 67L307.293 79C306.543 80.8 305.193 81.7 303.093 81.7H302.493C301.743 81.7 300.993 81.85 300.393 82.15C298.443 82.9 297.393 84.4 297.543 86.5C297.693 88.45 298.893 89.5 301.143 89.5C302.193 89.5 302.493 90.4 301.743 92.2L288.393 121.15C286.893 124.45 286.143 127.3 286.143 129.55C286.143 137.2 291.393 141.55 299.793 140.8C304.143 140.35 308.043 138.4 311.493 134.95C315.093 131.35 317.643 127.75 319.293 124C320.193 121.6 319.443 119.95 317.193 119.2C314.943 118.3 313.293 118.9 312.093 121.15C310.443 124.15 310.443 124.6 308.043 128.05C305.643 131.5 302.943 133 299.793 133C294.843 133 293.793 128.8 295.743 124.15L310.143 92.2C310.893 90.4 312.393 89.5 314.343 89.5H318.693L320.643 89.2Z" fill="url(#paint0_linear_56_556)"/>
<path d="M169.594 173L162.812 155.281H162.703C162.831 156.685 162.895 158.353 162.895 160.285V173H160.748V153.012H164.248L170.578 169.5H170.688L177.072 153.012H180.545V173H178.221V160.121C178.221 158.645 178.285 157.04 178.412 155.309H178.303L171.467 173H169.594ZM194.914 173L194.463 170.867H194.354C193.606 171.806 192.859 172.444 192.111 172.781C191.373 173.109 190.448 173.273 189.336 173.273C187.85 173.273 186.684 172.891 185.836 172.125C184.997 171.359 184.578 170.27 184.578 168.857C184.578 165.831 186.998 164.245 191.838 164.1L194.381 164.018V163.088C194.381 161.912 194.126 161.046 193.615 160.49C193.114 159.925 192.307 159.643 191.195 159.643C189.947 159.643 188.534 160.025 186.957 160.791L186.26 159.055C186.998 158.654 187.805 158.339 188.68 158.111C189.564 157.883 190.448 157.77 191.332 157.77C193.118 157.77 194.44 158.166 195.297 158.959C196.163 159.752 196.596 161.023 196.596 162.773V173H194.914ZM189.787 171.4C191.2 171.4 192.307 171.013 193.109 170.238C193.921 169.464 194.326 168.379 194.326 166.984V165.631L192.057 165.727C190.252 165.79 188.949 166.073 188.146 166.574C187.354 167.066 186.957 167.837 186.957 168.885C186.957 169.705 187.203 170.329 187.695 170.758C188.197 171.186 188.894 171.4 189.787 171.4ZM213.521 173L210.773 164.209C210.6 163.671 210.277 162.45 209.803 160.545H209.693C209.329 162.14 209.01 163.37 208.736 164.236L205.906 173H203.281L199.193 158.016H201.572C202.538 161.78 203.272 164.646 203.773 166.615C204.284 168.584 204.576 169.91 204.648 170.594H204.758C204.858 170.074 205.018 169.404 205.236 168.584C205.464 167.755 205.66 167.098 205.824 166.615L208.572 158.016H211.033L213.713 166.615C214.223 168.183 214.57 169.5 214.752 170.566H214.861C214.898 170.238 214.993 169.732 215.148 169.049C215.312 168.365 216.265 164.688 218.006 158.016H220.357L216.215 173H213.521ZM232.293 173L231.842 170.867H231.732C230.985 171.806 230.238 172.444 229.49 172.781C228.752 173.109 227.827 173.273 226.715 173.273C225.229 173.273 224.062 172.891 223.215 172.125C222.376 171.359 221.957 170.27 221.957 168.857C221.957 165.831 224.377 164.245 229.217 164.1L231.76 164.018V163.088C231.76 161.912 231.505 161.046 230.994 160.49C230.493 159.925 229.686 159.643 228.574 159.643C227.326 159.643 225.913 160.025 224.336 160.791L223.639 159.055C224.377 158.654 225.184 158.339 226.059 158.111C226.943 157.883 227.827 157.77 228.711 157.77C230.497 157.77 231.819 158.166 232.676 158.959C233.542 159.752 233.975 161.023 233.975 162.773V173H232.293ZM227.166 171.4C228.579 171.4 229.686 171.013 230.488 170.238C231.299 169.464 231.705 168.379 231.705 166.984V165.631L229.436 165.727C227.631 165.79 226.327 166.073 225.525 166.574C224.732 167.066 224.336 167.837 224.336 168.885C224.336 169.705 224.582 170.329 225.074 170.758C225.576 171.186 226.273 171.4 227.166 171.4ZM248.863 170.99H248.74C247.692 172.512 246.124 173.273 244.037 173.273C242.077 173.273 240.551 172.604 239.457 171.264C238.372 169.924 237.83 168.019 237.83 165.549C237.83 163.079 238.377 161.16 239.471 159.793C240.564 158.426 242.087 157.742 244.037 157.742C246.07 157.742 247.628 158.48 248.713 159.957H248.891L248.795 158.877L248.74 157.824V151.727H251.01V173H249.164L248.863 170.99ZM244.324 171.373C245.874 171.373 246.995 170.954 247.688 170.115C248.389 169.268 248.74 167.905 248.74 166.027V165.549C248.74 163.425 248.385 161.912 247.674 161.01C246.972 160.098 245.846 159.643 244.297 159.643C242.966 159.643 241.945 160.162 241.234 161.201C240.533 162.231 240.182 163.689 240.182 165.576C240.182 167.49 240.533 168.935 241.234 169.91C241.936 170.885 242.966 171.373 244.324 171.373ZM266.035 170.99H265.912C264.864 172.512 263.296 173.273 261.209 173.273C259.249 173.273 257.723 172.604 256.629 171.264C255.544 169.924 255.002 168.019 255.002 165.549C255.002 163.079 255.549 161.16 256.643 159.793C257.736 158.426 259.258 157.742 261.209 157.742C263.242 157.742 264.8 158.48 265.885 159.957H266.062L265.967 158.877L265.912 157.824V151.727H268.182V173H266.336L266.035 170.99ZM261.496 171.373C263.046 171.373 264.167 170.954 264.859 170.115C265.561 169.268 265.912 167.905 265.912 166.027V165.549C265.912 163.425 265.557 161.912 264.846 161.01C264.144 160.098 263.018 159.643 261.469 159.643C260.138 159.643 259.117 160.162 258.406 161.201C257.704 162.231 257.354 163.689 257.354 165.576C257.354 167.49 257.704 168.935 258.406 169.91C259.108 170.885 260.138 171.373 261.496 171.373ZM282.223 173L281.771 170.867H281.662C280.915 171.806 280.167 172.444 279.42 172.781C278.682 173.109 277.757 173.273 276.645 173.273C275.159 173.273 273.992 172.891 273.145 172.125C272.306 171.359 271.887 170.27 271.887 168.857C271.887 165.831 274.307 164.245 279.146 164.1L281.689 164.018V163.088C281.689 161.912 281.434 161.046 280.924 160.49C280.423 159.925 279.616 159.643 278.504 159.643C277.255 159.643 275.842 160.025 274.266 160.791L273.568 159.055C274.307 158.654 275.113 158.339 275.988 158.111C276.872 157.883 277.757 157.77 278.641 157.77C280.427 157.77 281.749 158.166 282.605 158.959C283.471 159.752 283.904 161.023 283.904 162.773V173H282.223ZM277.096 171.4C278.508 171.4 279.616 171.013 280.418 170.238C281.229 169.464 281.635 168.379 281.635 166.984V165.631L279.365 165.727C277.561 165.79 276.257 166.073 275.455 166.574C274.662 167.066 274.266 167.837 274.266 168.885C274.266 169.705 274.512 170.329 275.004 170.758C275.505 171.186 276.202 171.4 277.096 171.4ZM298.848 173V163.307C298.848 162.085 298.57 161.174 298.014 160.572C297.458 159.971 296.587 159.67 295.402 159.67C293.826 159.67 292.673 160.098 291.943 160.955C291.223 161.812 290.863 163.215 290.863 165.166V173H288.594V151.727H290.863V158.166C290.863 158.941 290.827 159.583 290.754 160.094H290.891C291.337 159.374 291.971 158.809 292.791 158.398C293.62 157.979 294.564 157.77 295.621 157.77C297.453 157.77 298.825 158.207 299.736 159.082C300.657 159.948 301.117 161.329 301.117 163.225V173H298.848ZM313.408 173V153.012H315.732V173H313.408ZM331.141 173V163.307C331.141 162.085 330.863 161.174 330.307 160.572C329.751 159.971 328.88 159.67 327.695 159.67C326.128 159.67 324.979 160.094 324.25 160.941C323.521 161.789 323.156 163.188 323.156 165.139V173H320.887V158.016H322.732L323.102 160.066H323.211C323.676 159.328 324.327 158.758 325.166 158.357C326.005 157.947 326.939 157.742 327.969 157.742C329.773 157.742 331.132 158.18 332.043 159.055C332.954 159.921 333.41 161.311 333.41 163.225V173H331.141ZM348.285 170.99H348.162C347.114 172.512 345.546 173.273 343.459 173.273C341.499 173.273 339.973 172.604 338.879 171.264C337.794 169.924 337.252 168.019 337.252 165.549C337.252 163.079 337.799 161.16 338.893 159.793C339.986 158.426 341.508 157.742 343.459 157.742C345.492 157.742 347.05 158.48 348.135 159.957H348.312L348.217 158.877L348.162 157.824V151.727H350.432V173H348.586L348.285 170.99ZM343.746 171.373C345.296 171.373 346.417 170.954 347.109 170.115C347.811 169.268 348.162 167.905 348.162 166.027V165.549C348.162 163.425 347.807 161.912 347.096 161.01C346.394 160.098 345.268 159.643 343.719 159.643C342.388 159.643 341.367 160.162 340.656 161.201C339.954 162.231 339.604 163.689 339.604 165.576C339.604 167.49 339.954 168.935 340.656 169.91C341.358 170.885 342.388 171.373 343.746 171.373ZM368.191 165.494C368.191 167.937 367.576 169.846 366.346 171.223C365.115 172.59 363.415 173.273 361.246 173.273C359.906 173.273 358.717 172.959 357.678 172.33C356.639 171.701 355.837 170.799 355.271 169.623C354.706 168.447 354.424 167.071 354.424 165.494C354.424 163.051 355.035 161.151 356.256 159.793C357.477 158.426 359.173 157.742 361.342 157.742C363.438 157.742 365.102 158.439 366.332 159.834C367.572 161.229 368.191 163.115 368.191 165.494ZM356.775 165.494C356.775 167.408 357.158 168.867 357.924 169.869C358.689 170.872 359.815 171.373 361.301 171.373C362.786 171.373 363.912 170.876 364.678 169.883C365.452 168.88 365.84 167.417 365.84 165.494C365.84 163.589 365.452 162.145 364.678 161.16C363.912 160.167 362.777 159.67 361.273 159.67C359.788 159.67 358.667 160.158 357.91 161.133C357.154 162.108 356.775 163.562 356.775 165.494ZM382.438 173V163.307C382.438 162.085 382.16 161.174 381.604 160.572C381.048 159.971 380.177 159.67 378.992 159.67C377.424 159.67 376.276 160.094 375.547 160.941C374.818 161.789 374.453 163.188 374.453 165.139V173H372.184V158.016H374.029L374.398 160.066H374.508C374.973 159.328 375.624 158.758 376.463 158.357C377.301 157.947 378.236 157.742 379.266 157.742C381.07 157.742 382.428 158.18 383.34 159.055C384.251 159.921 384.707 161.311 384.707 163.225V173H382.438ZM395.713 173.273C393.498 173.273 391.748 172.599 390.463 171.25C389.187 169.901 388.549 168.028 388.549 165.631C388.549 163.215 389.141 161.297 390.326 159.875C391.52 158.453 393.12 157.742 395.125 157.742C397.003 157.742 398.488 158.362 399.582 159.602C400.676 160.832 401.223 162.459 401.223 164.482V165.918H390.9C390.946 167.677 391.388 169.012 392.227 169.924C393.074 170.835 394.264 171.291 395.795 171.291C397.408 171.291 399.003 170.954 400.58 170.279V172.303C399.778 172.649 399.017 172.895 398.297 173.041C397.586 173.196 396.725 173.273 395.713 173.273ZM395.098 159.643C393.895 159.643 392.933 160.035 392.213 160.818C391.502 161.602 391.083 162.687 390.955 164.072H398.789C398.789 162.641 398.47 161.548 397.832 160.791C397.194 160.025 396.283 159.643 395.098 159.643ZM414.771 168.912C414.771 170.307 414.252 171.382 413.213 172.139C412.174 172.895 410.715 173.273 408.838 173.273C406.851 173.273 405.301 172.959 404.189 172.33V170.225C404.91 170.589 405.68 170.876 406.5 171.086C407.329 171.296 408.127 171.4 408.893 171.4C410.077 171.4 410.989 171.214 411.627 170.84C412.265 170.457 412.584 169.878 412.584 169.104C412.584 168.52 412.329 168.023 411.818 167.613C411.317 167.194 410.333 166.702 408.865 166.137C407.471 165.617 406.477 165.166 405.885 164.783C405.301 164.391 404.864 163.949 404.572 163.457C404.29 162.965 404.148 162.377 404.148 161.693C404.148 160.472 404.645 159.51 405.639 158.809C406.632 158.098 407.995 157.742 409.727 157.742C411.34 157.742 412.917 158.07 414.457 158.727L413.65 160.572C412.146 159.952 410.784 159.643 409.562 159.643C408.487 159.643 407.676 159.811 407.129 160.148C406.582 160.486 406.309 160.951 406.309 161.543C406.309 161.944 406.409 162.286 406.609 162.568C406.819 162.851 407.152 163.12 407.607 163.375C408.063 163.63 408.938 163.999 410.232 164.482C412.01 165.13 413.208 165.781 413.828 166.438C414.457 167.094 414.771 167.919 414.771 168.912ZM420.746 173H418.477V158.016H420.746V173ZM418.285 153.955C418.285 153.436 418.413 153.057 418.668 152.82C418.923 152.574 419.242 152.451 419.625 152.451C419.99 152.451 420.304 152.574 420.568 152.82C420.833 153.066 420.965 153.445 420.965 153.955C420.965 154.465 420.833 154.848 420.568 155.104C420.304 155.35 419.99 155.473 419.625 155.473C419.242 155.473 418.923 155.35 418.668 155.104C418.413 154.848 418.285 154.465 418.285 153.955ZM434.773 173L434.322 170.867H434.213C433.465 171.806 432.718 172.444 431.971 172.781C431.232 173.109 430.307 173.273 429.195 173.273C427.71 173.273 426.543 172.891 425.695 172.125C424.857 171.359 424.438 170.27 424.438 168.857C424.438 165.831 426.857 164.245 431.697 164.1L434.24 164.018V163.088C434.24 161.912 433.985 161.046 433.475 160.49C432.973 159.925 432.167 159.643 431.055 159.643C429.806 159.643 428.393 160.025 426.816 160.791L426.119 159.055C426.857 158.654 427.664 158.339 428.539 158.111C429.423 157.883 430.307 157.77 431.191 157.77C432.978 157.77 434.299 158.166 435.156 158.959C436.022 159.752 436.455 161.023 436.455 162.773V173H434.773ZM429.646 171.4C431.059 171.4 432.167 171.013 432.969 170.238C433.78 169.464 434.186 168.379 434.186 166.984V165.631L431.916 165.727C430.111 165.79 428.808 166.073 428.006 166.574C427.213 167.066 426.816 167.837 426.816 168.885C426.816 169.705 427.062 170.329 427.555 170.758C428.056 171.186 428.753 171.4 429.646 171.4Z" fill="white"/>
<defs>
<linearGradient id="paint0_linear_56_556" x1="9.25799" y1="25.44" x2="339.935" y2="107.544" gradientUnits="userSpaceOnUse">
<stop stop-color="#FCB633"/>
<stop offset="0.203125" stop-color="#D1A045"/>
<stop offset="0.244792" stop-color="#C9932F"/>
<stop offset="0.604167" stop-color="#FFCA66"/>
<stop offset="0.677083" stop-color="#FCB126"/>
<stop offset="1" stop-color="#815400"/>
</linearGradient>
</defs>
</svg>
