<svg width="31" height="10" viewBox="0 0 31 10" fill="none" xmlns="http://www.w3.org/2000/svg">
<path d="M16.2448 7.60363C16.1216 6.54741 15.7168 4.71743 16.4603 3.1947C17.056 1.97547 17.7838 1.06124 18.9803 0.734459C19.3355 0.637552 20.4794 0.618766 21.3582 1.63066C21.4949 1.78767 21.5152 1.86655 21.4055 1.98449C21.2966 2.10168 21.3559 2.28949 21.4979 2.3248C21.6413 2.3601 22.0056 2.19408 21.9981 2.64181C21.9921 3.08954 21.6068 3.56054 21.2283 3.35621C20.8497 3.15338 20.3848 3.33444 20.4389 3.75663C20.4576 3.90462 20.3007 3.87532 20.0791 3.6815C19.859 3.48769 19.5683 3.52148 19.4452 3.66422C19.322 3.80695 19.2161 4.24341 20.0641 5.05098C20.2361 5.21399 19.7824 5.16215 19.4993 4.86617C19.2146 4.56944 19.141 4.40718 19.0884 4.06688C19.0358 3.72808 18.7992 3.69727 18.5131 3.98198C18.459 4.03457 18.3343 3.38476 18.5611 3.05197C18.7887 2.71768 19.0306 2.42847 19.346 2.44875C19.6615 2.47054 19.4872 2.77027 19.6938 2.93704C19.8988 3.10607 20.1016 3.12185 20.2646 2.95057C20.4276 2.77929 20.5771 2.44425 20.2135 2.10845C19.8515 1.77265 19.162 1.5608 18.5251 2.16553C17.7282 2.92276 17.5292 4.07738 18.5604 5.21473C19.3393 6.07488 21.0735 6.17705 22.0815 5.19295C23.0894 4.20885 23.4515 2.28347 21.6121 0.967336C21.2583 0.714926 21.407 0.6706 21.7458 0.87944C22.0845 1.08828 22.6658 1.45188 23.1368 1.79368C23.6077 2.13549 24.6172 2.5757 25.2684 2.09116C25.921 1.60588 25.6732 0.867418 25.5778 0.72694C25.4824 0.586461 25.9398 0.454263 26.25 0.499336C26.5595 0.546663 26.5918 0.434715 26.6413 0.361096C26.7968 0.133476 29.6689 0.153005 30.7986 0.208596C30.7986 0.208596 30.9676 0.217614 30.9984 0.128219C31.0277 0.0403262 30.6506 0.0463416 30.4749 0.0448392C30.2976 0.0448392 24.0155 -0.00324409 23.7579 0.00201445C23.5003 0.007273 23.5438 0.0681298 23.8165 0.165037C24.0876 0.261945 24.2288 0.402431 24.1395 0.609768C24.0501 0.817105 24.1365 1.2145 24.4316 1.30539C24.7268 1.39479 25.0408 1.20849 25.0445 0.975612C25.0505 0.743485 24.5841 0.866677 24.6337 0.70892C24.6818 0.550413 24.9769 0.647309 25.1121 0.739709C25.2488 0.833612 25.6679 1.27834 25.2826 1.63742C24.8981 1.99801 24.2439 1.90336 23.999 1.55104C23.7527 1.19872 23.7001 0.775023 23.305 0.666096C22.9099 0.557169 22.8356 1.02969 22.1198 0.686385C21.4055 0.344579 19.337 -0.43745 17.3977 1.40079C15.7235 2.98661 15.8016 5.4972 15.9939 6.71793C16.1667 7.81546 16.1126 9.0317 16.072 9.20898C16.0698 9.20748 16.3943 8.88296 16.2448 7.60363Z" fill="#FCB633"/>
<path d="M14.9272 9.20752C14.8874 9.03023 14.8333 7.81401 15.0061 6.71648C15.1968 5.49574 15.2757 2.98514 13.6038 1.39931C11.663 -0.438937 9.59448 0.343073 8.88019 0.68488C8.16591 1.02819 8.0893 0.555686 7.69498 0.664614C7.30066 0.773541 7.24732 1.19722 7.00097 1.54954C6.75461 1.90186 6.10193 1.99728 5.71737 1.63595C5.33132 1.27611 5.75115 0.832131 5.88635 0.738228C6.02305 0.645827 6.31748 0.548907 6.3663 0.707416C6.41587 0.865924 5.94946 0.742731 5.95397 0.974109C5.95847 1.20774 6.27392 1.39404 6.56835 1.30389C6.86353 1.21299 6.94991 0.815601 6.86053 0.608263C6.77115 0.400925 6.9116 0.260438 7.18349 0.16353C7.45613 0.0666221 7.50045 0.00653923 7.24208 0.000529432C6.9837 -0.00548036 0.702358 0.0433314 0.525101 0.0433314C0.347845 0.0448339 -0.0276907 0.0388413 0.00160167 0.126735C0.0323962 0.21613 0.201384 0.207112 0.201384 0.207112C1.33102 0.151521 4.20167 0.131991 4.35864 0.359612C4.40822 0.433232 4.44051 0.544406 4.74996 0.49783C5.0594 0.452006 5.51683 0.584228 5.42219 0.725458C5.32756 0.866688 5.08044 1.60437 5.73163 2.08967C6.38282 2.57421 7.39229 2.13399 7.86322 1.79218C8.33415 1.45038 8.91623 1.0868 9.25422 0.877959C9.59296 0.66987 9.74093 0.713444 9.38792 0.965855C7.54701 2.282 7.91054 4.20664 8.9185 5.19149C9.92645 6.17635 11.6599 6.07342 12.4396 5.21327C13.4708 4.07592 13.271 2.92127 12.4749 2.16404C11.838 1.5593 11.1485 1.77115 10.7864 2.10695C10.4229 2.44275 10.5724 2.7778 10.7354 2.94908C10.8984 3.12035 11.1004 3.10457 11.3062 2.93555C11.5127 2.76803 11.3385 2.46904 11.6539 2.44726C11.9694 2.42698 12.2113 2.71545 12.4388 3.0505C12.6664 3.38329 12.5417 4.03386 12.4869 3.98052C12.1992 3.6958 11.9649 3.72659 11.9116 4.06539C11.859 4.40569 11.7854 4.56871 11.5007 4.86469C11.2176 5.16142 10.7647 5.21251 10.9359 5.04949C11.7839 4.24268 11.678 3.80548 11.5548 3.66275C11.4316 3.52001 11.1409 3.48695 10.9209 3.68001C10.6993 3.87383 10.5424 3.90313 10.5611 3.75514C10.6152 3.3322 10.1503 3.15191 9.77172 3.35474C9.39317 3.55832 9.00712 3.08804 9.00186 2.64031C8.99435 2.19258 9.36014 2.35861 9.50209 2.3233C9.64405 2.28799 9.70337 2.10018 9.59447 1.98299C9.48481 1.8658 9.50508 1.78619 9.64178 1.62918C10.5205 0.616533 11.6645 0.636047 12.0197 0.732955C13.217 1.06049 13.9448 1.974 14.5396 3.19323C15.2832 4.71596 14.8784 6.54594 14.7552 7.60216C14.6042 8.883 14.9272 9.20752 14.9272 9.20752Z" fill="#FCB633"/>
</svg>
