<svg width="172" height="753" viewBox="0 0 172 753" fill="none" xmlns="http://www.w3.org/2000/svg">
<mask id="mask0_153_35" style="mask-type:alpha" maskUnits="userSpaceOnUse" x="0" y="0" width="172" height="753">
<rect width="172" height="753" fill="#232D48"/>
</mask>
<g mask="url(#mask0_153_35)">
<path d="M145.525 592.463C145.525 592.463 145.059 592.347 144.163 592.107C143.254 591.946 141.947 591.539 140.124 590.584C136.67 588.813 132.134 584.673 129.575 577.719C127.109 570.935 125.859 561.469 130.292 551.438C131.535 548.962 132.866 546.561 135.156 544.188C136.382 542.597 139.945 539.879 142.515 538.722C148.189 535.808 154.592 534.949 160.917 534.953C167.286 535.051 173.631 536.255 180.018 538.065C181.596 538.583 183.222 539.015 184.789 539.68L187.165 540.63L188.352 541.152L188.948 541.417L189.665 541.769L189.923 541.919C192.704 543.567 195.442 544.691 198.645 547.551C201.943 549.99 204.119 552.879 206.634 555.709C208.669 558.838 210.803 561.942 212.25 565.386C215.494 572.101 217.542 579.342 218.571 586.728C219.769 594.107 219.865 601.643 219.534 609.158C219.173 616.694 218.289 624.26 216.477 631.736C215.738 635.505 214.496 639.178 213.248 642.851C212.506 644.728 211.969 646.377 211.042 648.446L208.399 653.494C204.461 660.477 198.767 666.792 191.899 671.261C177.955 680.274 160.615 682.52 144.95 680.409C129.175 678.402 114.082 672.973 101.166 665.032C87.5974 656.225 78.1324 644.558 71.3084 632.331C64.5924 620.101 60.4409 607.534 58.4075 595.68C57.2963 589.755 56.949 583.974 56.7516 578.513C56.7109 575.694 56.7975 573.253 56.9551 570.332C57.2316 567.881 57.5062 565.483 57.7669 563.171C58.1825 558.576 58.9995 554.121 59.7406 550.05C60.4052 545.953 61.1415 542.285 62.0042 539.041C65.0884 525.919 67.2761 518.571 67.2761 518.571L68.5873 518.784C68.5873 518.784 68.4833 520.711 68.2838 524.305C68.0472 527.879 67.6933 533.129 67.2441 539.797C67.0316 543.14 66.7538 546.802 66.6159 550.721C66.4146 554.658 66.1719 558.85 66.3552 563.569C66.3937 565.902 66.4272 568.309 66.4631 570.784C66.663 573.077 66.8655 575.437 67.0802 577.847C67.7121 582.786 68.536 587.952 69.9914 593.207C72.5685 603.783 77.1247 614.768 83.2987 625.403C86.5785 630.61 90.2171 635.721 94.347 640.582C98.6151 645.338 103.411 649.621 108.437 653.356C119.553 660.938 132.759 666.262 146.686 668.797C153.637 670.12 160.775 670.625 167.814 670.119C174.835 669.643 181.929 668.218 188.236 664.969C194.552 661.668 199.896 656.924 204.083 651.065L207.009 646.178C207.694 644.816 208.494 642.914 209.232 641.311C210.53 637.869 211.754 634.388 212.541 630.782C214.257 623.647 215.093 616.295 214.787 609.101C214.712 601.89 213.497 594.818 211.578 588.23C208.096 575.025 200.618 563.304 191.806 556.984C190.097 555.408 186.899 553.799 184.157 552.285L182.57 551.617L180.551 550.832C179.19 550.349 177.841 549.868 176.502 549.375C171.075 547.653 165.618 546.452 160.52 546.23C155.461 545.935 150.606 546.291 146.833 547.979C145.89 548.405 144.928 548.814 144.319 549.253C143.948 549.509 143.631 549.552 143.166 549.934L141.744 551.15C140.451 552.191 139.178 553.902 138.168 555.48C134.209 562.299 133.831 570.27 134.974 576.126C136.11 582.143 139.069 586.263 141.569 588.35C142.72 589.431 143.898 590.174 144.772 590.551C145.587 591 146.015 591.224 146.015 591.224L145.525 592.463Z" fill="#232D48"/>
<path d="M104.257 389.447C104.257 389.447 104.812 389.18 105.876 388.674C107.058 388.193 108.286 387.302 109.254 385.69C111.759 382.813 109.933 375.198 103.429 372.407C100.279 371.082 96.4483 371.429 92.7439 373.526C91.8392 374.126 90.9246 374.745 89.9829 375.365C89.1314 376.176 88.2572 377.003 87.3732 377.848L86.7022 378.459C86.8664 378.318 86.3589 378.875 86.22 379.067L84.859 380.696C83.8256 381.841 83.5773 382.749 82.8611 383.763C77.8942 392.564 77.3335 405.725 81.878 418.027C84.1097 424.262 87.3616 430.097 92.5772 434.778C95.4524 437.834 98.1317 439.567 100.86 441.786C104.014 443.703 107.173 445.716 110.704 447.217C117.644 450.395 125.369 452.67 133.553 453.695C141.744 454.594 150.351 454.214 158.858 452.371C167.341 450.518 175.839 447.242 183.239 441.977L188.576 437.744C190.205 436.158 191.739 434.463 193.339 432.812C196.091 429.41 198.986 425.292 201.702 421.447C204.413 417.514 206.121 413.204 208.37 409.088C210.529 404.944 211.559 400.214 213.21 395.8C215.682 386.661 216.944 377.219 217.263 367.745C217.414 358.271 216.647 348.816 215.173 339.488C213.774 330.152 211.803 320.939 209.271 311.911C204.401 293.818 197.973 276.374 191.03 259.735C183.924 243.022 177.058 226.866 170.539 211.554C164.088 196.198 158.096 180.958 155.059 165.961C153.726 158.412 152.779 151.02 153.279 143.836C153.387 142.05 153.491 140.285 153.593 138.539C153.961 136.23 154.271 135.191 154.607 133.49C154.82 132.051 155.442 130.248 156.115 128.507C156.74 126.772 157.337 125.079 158.377 123.607C159.336 122.094 160.1 120.576 161.519 119.333C162.77 118.009 164.032 116.788 165.735 115.994C168.784 113.993 172.617 113.72 175.795 114.121C182.338 115.223 186.535 119.503 188.973 123.471C190.368 125.406 191.025 127.578 191.834 129.438C192.261 131.451 192.941 133.27 193.025 135.033C193.116 136.797 193.346 138.408 193.262 139.881C193.114 141.331 192.972 142.66 192.855 143.838C192.556 146.178 191.817 147.874 191.566 149.045C191.237 150.202 191.068 150.787 191.068 150.787L189.786 150.438C189.786 150.438 189.849 149.842 189.971 148.678C190.016 147.528 190.439 145.834 190.337 143.638C190.348 139.382 189.679 132.432 184.692 126.591C182.349 123.742 178.779 121.111 174.963 120.989C171.217 120.812 167.891 123.192 165.97 127.65C164.268 131.673 163.18 137.921 163.635 143.996C163.624 150.116 164.985 156.62 166.611 163.308C170.116 176.793 176.495 190.811 183.273 206.099C190.161 221.209 197.303 237.45 203.828 254.674C210.275 271.919 216.441 290.067 220.65 309.169C222.708 318.712 224.194 328.506 225.059 338.394C225.724 348.317 225.597 358.347 224.52 368.263C222.419 388.144 215.6 407.321 204.994 423.804C202.058 427.674 199.669 431.531 196.531 435.53C194.867 437.325 193.262 439.177 191.547 440.91L186.096 445.771C178.433 451.739 169.819 456.349 160.745 459.277C142.662 465.109 122.79 465 106.039 457.89C101.773 456.317 97.9811 453.852 94.1737 451.606C90.506 448.831 86.6021 445.978 84.1942 443.152C77.8239 437.087 73.6053 429.164 71.1867 421.634C66.4527 406.436 67.6167 390.385 75.3981 379C76.4414 377.629 77.5552 375.906 78.5427 375.003L80.0342 373.483L80.969 372.531L81.8995 371.814C83.1423 370.872 84.3591 369.966 85.554 369.07C86.9234 368.344 88.2656 367.66 89.5826 366.965C95.0423 364.501 101.628 364.594 106.013 367.465C114.82 373.03 115.489 383.465 111.376 387.292C109.6 389.278 107.47 390.049 106.463 390.242C105.318 390.541 104.728 390.694 104.728 390.694L104.257 389.447Z" fill="#232D48"/>
<path d="M107.603 457.915C107.603 457.915 107.616 458.704 107.637 460.194C107.63 460.94 107.635 461.822 107.529 462.894C107.274 464.01 106.846 465.279 106.359 466.788C105.931 468.427 105.075 469.681 104.235 471.253C103.798 472.037 103.336 472.857 102.858 473.687C102.279 474.434 101.672 475.19 101.054 475.971C98.6367 479.259 95.3056 482.331 91.4632 485.32C89.4887 486.749 87.4261 488.224 85.154 489.497C82.9369 490.886 80.5293 492.124 77.9182 493.039C72.8142 495.178 66.9285 496.08 60.9913 496.677C58.046 497.081 54.9644 496.998 51.9995 497.398C48.9385 497.312 45.9445 497.808 42.8434 497.763C36.6841 498.028 30.3024 497.592 23.6859 495.906L18.7884 494.076C16.8695 492.964 16.0847 492.783 14.3802 491.511C11.1075 489.163 8.82108 486.418 6.90738 482.993C3.15668 476.209 3.10259 467.293 6.47753 460.508C8.0819 457.088 10.342 454.064 12.9985 451.791C14.276 450.552 15.7156 449.642 17.1025 448.683C17.7882 448.188 18.5511 447.882 19.2679 447.487L20.3519 446.943L20.8934 446.674L21.1647 446.536L22.0453 446.168C23.7139 445.463 29.1808 444.406 31.6708 444.776C34.697 444.91 37.4183 445.473 39.9814 446.097C45.0359 447.624 49.4051 449.765 52.8464 452.94C53.6899 453.837 54.5057 454.616 55.2075 455.557C55.8412 456.669 56.5154 457.532 56.8657 458.732C57.7055 461.021 57.5344 463.61 56.655 465.257C56.1945 466.064 55.7841 466.851 55.3138 467.428C54.7875 467.934 54.274 468.362 53.7997 468.756C52.8884 469.604 52.0067 469.979 51.2919 470.32C49.9002 470.936 49.1592 471.273 49.1592 471.273L48.4087 470.176C48.4087 470.176 48.8405 469.546 49.6533 468.393C50.0417 467.824 50.6079 467.196 50.8715 466.317C51.0434 465.921 51.2316 465.508 51.4261 465.055C51.516 464.625 51.4671 464.18 51.5265 463.772C51.3832 462.209 50.3541 461.335 47.7442 460.004C45.1613 458.878 41.5836 457.955 37.7326 457.721C35.8136 457.604 33.825 457.544 31.9438 457.817C29.5424 458.228 29.9377 457.99 26.7812 459.281L26.7224 459.311C27.9354 458.802 27.0396 459.181 27.299 459.075L27.2162 459.129L27.0594 459.225L26.7381 459.422L26.0956 459.815C25.6808 460.091 25.1849 460.286 24.8282 460.619C24.0567 461.227 23.1613 461.727 22.5082 462.435C20.973 463.687 19.8113 465.207 18.7733 466.794C16.8034 470.02 16.1505 474.045 17.5766 478.07C18.2771 479.973 19.4708 482.279 20.7913 483.886C21.2349 484.718 23.0038 486.216 23.5242 486.865L26.6738 489.267C31.222 492.13 37.0225 493.993 42.7996 493.719C48.5727 493.801 54.2116 492.14 59.2231 489.824C64.2475 487.471 68.7999 484.792 73.0906 482.441C77.3902 480.118 81.602 478.211 85.1669 475.937C87.0724 474.975 88.7338 473.858 90.3331 472.792C91.9807 471.761 93.4634 470.751 94.803 469.71C96.2246 468.703 97.4706 467.741 98.521 466.741C99.5999 465.772 100.777 464.86 101.441 464.046C102.227 463.225 102.927 462.437 103.658 461.742C104.261 460.891 104.659 460.054 105.08 459.45C105.894 458.203 106.332 457.54 106.332 457.54L107.603 457.915Z" fill="#232D48"/>
<path d="M134.87 492.981C134.87 492.981 135.917 492.875 137.873 492.681C138.834 492.52 140.019 492.518 141.679 492.901C142.49 493.046 143.38 493.244 144.329 493.486C145.175 493.912 146.069 494.374 147.02 494.858C150.725 496.945 154.571 501.733 155.251 507.993C156.092 514.136 154.163 521.667 148.266 527.411C145.143 529.992 141.226 532.196 136.952 532.828C134.808 533.267 132.638 533.413 130.547 533.073L127.349 532.75C126.346 532.506 125.35 532.217 124.37 531.87L121.407 530.851L121.039 530.71L120.425 530.47L120.279 530.378L119.691 530.061L118.511 529.412C117.121 528.729 114.973 527.002 113.149 525.468C109.951 522.204 107.528 518.394 106.18 514.22C103.503 505.874 103.91 497.188 106.356 489.035C107.7 484.981 109.584 481.041 112.179 477.446C114.699 473.94 118.67 470.736 121.794 468.444C128.734 463.287 137.088 459.031 146.633 458.467C151.366 458.24 156.184 458.9 160.699 460.352C165.214 461.845 169.218 464.244 172.793 466.889C179.847 472.345 184.845 479.069 188.393 485.74C192.095 492.368 194.48 498.984 196.325 505.11C199.871 517.431 200.879 527.934 201.122 535.266C201.309 542.615 200.833 546.796 200.833 546.796L199.518 546.94C199.518 546.94 198.205 543.047 195.914 536.224C193.497 529.515 190.184 519.949 185.22 509.235C182.808 503.865 179.872 498.236 176.451 492.743C174.717 489.993 172.766 487.376 170.822 484.719C168.745 482.216 166.541 479.753 164.127 477.626C159.285 473.342 153.456 470.573 146.78 470.21C140.157 470.017 132.651 471.49 125.567 474.68C121.596 476.424 118.794 477.941 115.972 480.652C113.428 483.394 111.454 486.686 110.214 490.266C107.859 497.479 108.849 505.604 112.595 511.258C116.424 517.018 121.72 519.546 127.384 520.633C132.968 521.882 137.615 521.358 140.913 518.859C144.234 516.35 146.089 512.17 146.417 508.45C146.715 504.663 145.482 501.477 143.563 499.288C143.045 498.747 142.557 498.23 142.097 497.752C141.553 497.455 141.041 497.123 140.545 496.781C140.038 496.463 139.592 496.101 139.096 495.839C138.528 495.653 138.011 495.481 137.545 495.325C135.693 494.668 134.708 494.313 134.708 494.313L134.87 492.981Z" fill="#232D48"/>
<path d="M102.77 663.362C81.4621 671.483 109.537 737.659 61.6467 724.407C71.6731 740.619 96.2097 735.282 107.132 722.866C120.516 707.64 114.649 694.404 114.025 677.061C112.676 704.37 140.467 702.239 155.029 715.836C150.153 693.551 120.783 675.884 109.682 662.229" fill="#232D48"/>
<path d="M72.1806 409.491C63.1207 422.162 48.0658 439.188 30.8017 431.591C30.3618 417.089 50.2446 411.24 62.0778 412.332C54.7674 411.025 25.9417 402.777 32.6418 389.555C39.5379 375.954 60.6519 396.567 65.7744 401.946C58.5002 392.162 51.7472 381.447 56.6281 369.194C73.7478 370.962 71.5536 395.645 74.7189 407.655" fill="#232D48"/>
<path d="M173.593 295.884C158.066 311.798 141.43 311.689 120.438 306.999C133.171 292.798 148.903 295.115 164.59 294.975C149.862 287.998 144.929 270.38 146.747 256.433C162.19 271.276 168.731 277.827 175.421 298.428" fill="#232D48"/>
<path d="M159.777 132.189C154.075 134.823 143.613 159.577 130.36 158.362C107.653 156.28 128.015 130.178 139.994 124.896C102.761 128.866 108.022 95.2696 143.352 104.862C122.658 103.019 124.487 61.6737 149.1 74.2841C160.207 79.9743 165.742 107.324 168.821 117.955" fill="#232D48"/>
<path d="M202.477 -217.59C202.477 -217.59 202.919 -217.162 203.778 -216.357C204.755 -215.539 205.645 -214.305 206.075 -212.479C207.571 -208.967 203.482 -202.298 196.438 -201.637C193.033 -201.349 189.497 -202.858 186.62 -205.988C185.945 -206.844 185.264 -207.708 184.56 -208.596C183.994 -209.623 183.423 -210.671 182.839 -211.755L182.389 -212.548C182.5 -212.361 182.194 -213.05 182.121 -213.263L181.332 -215.242C180.7 -216.656 180.743 -217.584 180.371 -218.775C178.352 -228.682 181.883 -241.368 189.995 -251.677C194.048 -256.92 198.938 -261.474 205.34 -264.311C209.02 -266.344 212.099 -267.156 215.38 -268.427C218.972 -269.291 222.593 -270.21 226.419 -270.565C233.997 -271.448 242.05 -271.238 250.148 -269.682C258.221 -268.016 266.292 -265.012 273.823 -260.628C281.321 -256.243 288.4 -250.527 293.817 -243.23L297.592 -237.546C298.654 -235.55 299.585 -233.448 300.597 -231.394C302.174 -227.303 303.656 -222.502 305.053 -218.004C306.424 -213.435 306.717 -208.813 307.585 -204.206C308.365 -199.599 307.883 -194.766 308.096 -190.063C307.633 -180.612 305.922 -171.229 303.311 -162.14C300.535 -153.078 296.893 -144.312 292.613 -135.891C288.41 -127.444 283.689 -119.282 278.505 -111.465C268.292 -95.7524 256.804 -81.1408 245.068 -67.4441C233.163 -53.7413 221.647 -40.4866 210.734 -27.9212C199.867 -15.308 189.465 -2.65956 181.952 10.6794C178.358 17.4427 175.177 24.192 173.439 31.1754C172.995 32.9197 172.549 34.6302 172.109 36.3078C171.745 38.6304 171.719 39.7025 171.52 41.426C171.281 42.8605 171.321 44.7708 171.415 46.6361C171.473 48.4819 171.524 50.2796 172.06 51.9945C172.511 53.736 172.769 55.4195 173.732 57.0354C174.515 58.6762 175.333 60.2283 176.713 61.5149C178.999 64.3413 182.566 65.7878 185.711 66.3921C192.276 67.3628 197.586 64.5715 201.123 61.5596C203.047 60.1496 204.345 58.2881 205.684 56.7561C206.714 54.9657 207.915 53.4519 208.541 51.791C209.172 50.1442 209.886 48.6858 210.257 47.2726C210.564 45.8357 210.841 44.5419 211.091 43.3716C211.523 41.0401 211.349 39.209 211.469 38.0175C211.516 36.8142 211.527 36.2039 211.527 36.2039L210.205 36.1442C210.205 36.1442 210.083 36.7298 209.837 37.8738C209.521 38.9931 209.408 40.7238 208.629 42.7905C207.326 46.8375 204.551 53.2426 198.004 57.2663C194.889 59.2568 190.686 60.6536 187.016 59.594C183.403 58.5976 180.974 55.3177 180.513 50.4867C180.131 46.1259 181.022 39.846 183.334 34.2204C185.208 28.3892 188.498 22.6261 192.114 16.7613C199.606 5.00641 209.987 -6.3537 221.152 -18.811C232.364 -31.0655 244.162 -44.3149 255.665 -58.6885C267.115 -73.111 278.576 -88.4734 288.466 -105.349C293.364 -113.804 297.795 -122.665 301.665 -131.798C305.356 -141.028 308.324 -150.611 310.36 -160.385C314.487 -179.937 313.901 -200.295 308.899 -219.236C307.297 -223.835 306.219 -228.221 304.458 -233.001C303.431 -235.219 302.472 -237.474 301.371 -239.65L297.684 -245.953C292.233 -253.995 285.462 -261.034 277.728 -266.614C262.327 -277.73 243.382 -283.763 225.258 -282.156C220.713 -281.972 216.345 -280.803 212.03 -279.835C207.688 -278.333 203.087 -276.805 199.928 -274.876C192.002 -271.062 185.548 -264.831 180.929 -258.422C171.742 -245.422 167.901 -229.792 171.794 -216.547C172.368 -214.94 172.893 -212.951 173.547 -211.796L174.501 -209.878L175.093 -208.679L175.758 -207.717C176.648 -206.442 177.523 -205.197 178.382 -203.981C179.46 -202.871 180.53 -201.796 181.565 -200.747C186.004 -196.717 192.29 -194.776 197.344 -196.149C207.438 -198.729 211.29 -208.458 208.559 -213.354C207.483 -215.803 205.695 -217.183 204.798 -217.671C203.797 -218.304 203.282 -218.65 203.282 -218.65L202.477 -217.59Z" fill="#232D48"/>
<path d="M176.02 44.2552C171.408 40.0021 169.084 13.227 156.103 10.2937C133.858 5.27908 145.181 36.3932 154.952 45.0957C120.754 29.8541 115.407 63.4371 151.966 65.2035C131.709 60.5788 120.71 100.47 148.01 96.0588C160.331 94.0615 174.016 69.7561 180.226 60.5919" fill="#232D48"/>
</g>
</svg>
