<svg width="242" height="963" viewBox="0 0 242 963" fill="none" xmlns="http://www.w3.org/2000/svg">
<mask id="mask0_4_1283" style="mask-type:alpha" maskUnits="userSpaceOnUse" x="0" y="0" width="242" height="963">
<rect width="242" height="963" fill="#C4C4C4"/>
</mask>
<g mask="url(#mask0_4_1283)">
<path d="M-26.6279 474.015C13.531 481.017 66.6405 505.966 83.5034 523.944C124.274 567.476 108.176 589.164 99.9201 596.541C90.0256 605.36 80.2672 605.065 73.5085 599.298C67.8752 594.506 67.9691 585.931 71.927 581.692C76.601 576.713 83.4357 576.028 87.5942 579.68C93.7088 585.055 89.4696 592.797 95.6243 586.892C101.823 580.948 105.712 571.485 97.2864 555.108C88.8529 538.721 75.5551 530.044 78.1978 534.779C80.8406 539.514 79.7538 543.978 76.7612 547.241C73.7509 550.52 68.324 549.588 67.0898 552.688C63.7156 561.162 54.3601 563.342 50.4832 561.707C35.4746 555.338 45.9752 553.031 51.518 550.039C57.0463 547.013 55.7107 536.063 36.2226 517.282C-11.9877 470.926 -99.1676 468.559 -113.691 467.19C-128.249 465.835 -125.225 469.306 -119.362 469.822C-75.3827 473.698 -24.3235 498.8 7.46627 528.77C77.9002 595.212 53.9649 637.936 42.7744 649.642C31.5897 661.39 12.5413 663.83 4.90874 654.838C-1.68071 647.066 -3.39278 637.564 3.71613 631.778C10.3852 626.333 19.2266 627.624 23.5871 634.15C29.3867 642.9 20.2282 644.75 22.0172 646.604C23.7884 648.473 30.336 647.302 37.2124 641.752C55.2628 627.121 48.6742 605.793 41.2609 586.385C33.8731 566.97 24.8262 563.39 26.0657 566.781C32.4376 584.417 23.4504 591.195 21.0864 591.939C18.749 592.66 13.3268 589.679 11.2155 591.711C9.07865 593.749 8.20376 598.168 -3.0187 599.727C-14.2787 601.35 -16.1945 593.475 -11.903 589.383C0.0399013 577.942 2.95474 564.462 -7.6205 547.036C-41.6417 491.005 -99.399 478.246 -112.425 475.417C-117.499 474.332 -125.864 474.869 -114.769 481.757C-92.3809 495.58 -44.5341 518.069 -39.1356 557.32C-33.7039 596.573 -56.5273 623.913 -73.8893 629.037C-91.2358 634.178 -107.528 626.958 -113.191 620.918C-118.852 614.861 -113.714 636.507 -109.696 644.073C-105.644 651.641 -66.6288 722.903 22.4354 709.582C43.6387 706.393 68.9997 695.566 68.7323 680.704C68.5892 671.645 84.4045 668.355 94.1428 680.401C103.661 692.232 96.5996 699.234 94.9058 703.115C93.2153 706.946 104.712 708.574 113.633 703.741C125.197 697.478 149.724 676.879 150.201 651.502C150.668 626.148 127.32 614.271 118.479 619.93C111.383 624.462 112.631 629.434 117.059 625.301C121.513 621.144 126.367 621.888 131.03 627.078C136.256 632.873 135.307 641.226 127.616 647.477C121.617 652.38 109.339 650.685 103.569 643.843C95.9704 634.836 95.686 625.368 104.141 615.913C114.805 604.056 133.49 603.65 146.3 617.364C159.111 631.077 176.839 676.209 113.926 717.81C58.3631 754.578 -31.8668 723.632 -51.4883 712.076C-64.8959 704.204 -65.8022 708.069 -42.8374 722.154C-19.9314 736.244 26.4947 767.39 90.8005 742.412C101.897 738.102 107.481 723.814 112.291 731.422C117.094 739.005 111.775 747.021 105.753 751.111C99.7548 755.211 94.9261 758.942 97.1401 762.923C99.3287 766.909 92.7906 775.291 70.1773 775.27C70.1773 775.27 73.8932 779.312 85.8454 784.03C97.7977 788.749 119.383 791.121 119.86 810.187C119.988 814.619 132.843 830.243 137.826 839.744C144.326 852.076 145.167 873.699 134.374 883.766C123.616 893.802 118.317 892.695 115.429 893.397C112.535 894.057 126.367 915.898 132.881 923.406C139.395 930.914 138.488 934.795 126.647 922.665C114.858 910.522 47.8034 838.15 40.5121 830.367C33.2209 822.584 30.437 813.097 42.545 824.441C54.6529 835.785 69.034 845.316 85.6568 842.086C106.783 838.006 113.488 843.836 118.48 849.758C123.493 855.631 121.761 867.473 118.035 870.296C115.098 872.551 107.155 872.655 104.408 869.427C101.661 866.199 102.759 863.927 105.38 864.011C107.967 864.092 108.826 862.031 107.325 860.396C105.795 858.801 103.968 859.262 101.24 862.04C98.5979 864.79 94.5701 871.308 100.825 878.289C107.097 885.271 118.405 889.33 127.839 880.79C137.221 872.264 152.146 839.988 81.2706 795.339C10.4289 750.692 -29.0681 763.394 -86.2938 700.991C-104.738 680.913 -127.84 641.896 -124.555 609.58C-123.36 597.897 -119.905 599.196 -114.628 604.852C-109.358 610.482 -90.6927 631.561 -66.8721 613.125C-43.1754 594.798 -36.0397 539.151 -93.9365 503.208C-117.286 488.722 -173.072 474.041 -204.538 499.19C-210.134 503.675 -209.565 508.412 -207.702 510.814C-205.814 513.209 -203.046 512.156 -202.137 508.651C-201.264 505.178 -194.522 503.065 -191.645 504.905C-188.786 506.76 -141.977 482.054 -90.8081 528.967C-76.9138 541.679 -54.8038 577.229 -82.8575 593.053C-92.4171 598.449 -106.433 589.366 -100.924 580.727C-95.4211 572.046 -79.4402 547.08 -131.934 513.506C-144.424 505.533 -174.032 503.461 -184.061 506.769C-184.061 506.769 -186.536 511.101 -179.745 509.795C-172.918 508.441 -137.883 503.943 -117.269 533.041C-96.6206 562.108 -112.958 590.439 -131.214 597.906C-149.417 605.342 -170.386 599.188 -176.272 576.549C-179.303 565.157 -166.899 553.185 -160.115 553.425C-153.382 553.679 -155.699 558.549 -156.146 562.811C-156.735 568.252 -147.434 577.317 -134.727 571.479C-122.021 565.674 -123.33 553.238 -126.348 547.575C-128.303 543.854 -130.511 547.418 -136.559 550.068C-142.666 552.723 -156.214 546.264 -147.965 539.522C-139.658 532.776 -157.746 511.976 -176.011 515.378C-180.716 516.248 -173.19 531.908 -185.29 542.653C-198.86 554.692 -212.958 548.34 -220.713 537.332C-232.273 520.914 -229.149 504.026 -207.42 489.287C-182.632 472.469 -158.281 477.911 -156.973 460.766C-155.649 443.496 -182.225 445.548 -205.433 426.613C-225.787 410.009 -227.436 392.934 -214.474 377.578C-205.792 367.309 -191.175 362.212 -178.724 375.392C-167.606 387.183 -176.508 402.096 -171.883 403.403C-154.002 408.407 -134.118 389.269 -141.789 381.805C-149.478 374.356 -135.38 369.133 -129.568 372.305C-123.732 375.488 -121.838 379.23 -119.599 375.718C-116.112 370.337 -113.691 358.046 -125.83 351.133C-137.969 344.22 -148.058 352.425 -147.946 357.894C-147.868 362.197 -145.991 367.26 -152.734 366.905C-159.494 366.549 -170.796 353.568 -166.809 342.431C-158.917 320.386 -137.519 316.114 -120.021 325.151C-102.522 334.187 -88.7428 363.828 -111.796 390.977C-134.893 418.149 -169.413 410.586 -176.081 408.655C-182.749 406.725 -180.648 411.291 -180.648 411.291C-170.968 415.446 -141.306 416.009 -128.156 409.136C-72.9296 380.292 -86.6295 354.01 -91.3609 344.901C-96.0923 335.793 -81.319 327.979 -72.2803 334.192C-45.734 352.454 -70.867 385.868 -85.8224 397.334C-140.913 439.552 -185.376 410.814 -188.388 412.412C-191.4 414.009 -197.92 411.318 -198.497 407.769C-199.1 404.226 -201.767 402.91 -203.841 405.145C-205.871 407.34 -206.921 412.007 -201.717 416.973C-172.569 444.817 -115.722 435.087 -91.1826 422.702C-30.3587 391.982 -32.6074 335.945 -54.6053 315.599C-76.7301 295.144 -97.1379 314.492 -102.877 319.654C-108.642 324.823 -112.217 325.799 -112.356 314.048C-112.803 281.619 -86.3617 244.741 -66.2485 226.345C-3.7639 169.252 34.4605 185.365 108.95 147.145C183.458 108.909 171.436 75.441 162.804 66.1171C154.216 56.7709 142.572 59.8169 135.7 66.2282C128.846 72.6073 132.248 79.4733 134.718 82.4577C137.144 85.4644 138.919 86.0877 140.577 84.6128C142.209 83.1446 141.569 80.9878 138.967 80.872C136.376 80.7151 135.448 78.3393 138.463 75.3869C141.497 72.3856 149.397 73.2322 152.142 75.7073C155.562 78.861 156.293 90.7838 150.795 96.2207C145.272 101.664 138.099 106.877 117.433 100.959C101.137 96.2898 85.9805 104.473 72.9169 114.73C59.8543 124.97 63.4741 115.791 71.405 108.653C79.3437 101.524 152.486 35.317 165.296 24.3081C178.151 13.2603 178.703 17.2096 171.573 24.1146C164.4 31.042 148.71 51.5522 151.535 52.4935C154.361 53.4348 159.747 52.783 169.587 63.748C179.445 74.6974 176.725 96.1686 169.179 107.906C163.394 116.93 149.154 131.351 148.666 135.744C146.506 154.709 124.823 155.174 112.516 158.805C100.208 162.436 96.0921 166.138 96.0921 166.138C118.664 168.129 124.435 177.062 121.871 180.812C119.331 184.59 123.81 188.731 129.421 193.338C135.032 197.961 139.681 206.387 134.209 213.531C128.754 220.66 124.453 205.967 113.798 200.704C51.9029 170.169 2.95079 197.138 -21.145 209.117C-45.2329 221.104 -44.6811 225.053 -30.6416 218.388C-10.0557 208.603 82.5163 185.762 134.685 227.219C193.685 274.222 172.031 317.627 158.07 330.151C144.144 342.661 125.554 338.565 115.971 327.892C107.482 318.427 110.12 306.276 113.905 300.805C118.869 293.636 130.325 286.037 140.766 295.97C151.173 305.917 145.137 316.531 141.888 318.699C138.621 320.882 133.52 321.786 129.46 317.245C125.398 312.737 123.175 317.714 130.598 325.129C138.029 332.553 163.227 321.791 164.962 296.485C166.707 271.154 144.063 248.467 133.124 241.237C124.667 235.613 113.061 236.236 114.421 240.228C115.748 244.218 122.198 251.814 111.659 262.742C100.879 273.914 85.4036 269.23 86.3699 260.217C87.9538 245.44 63.6162 232.421 42.7598 227.394C-44.7749 206.279 -89.8939 273.847 -94.5735 281.017C-99.2531 288.187 -106.242 309.311 -100.096 303.807C-93.9304 298.253 -77.081 292.512 -60.2238 299.141C-43.3766 305.794 -23.0485 335.033 -31.8861 373.652C-40.7238 412.271 -90.3483 435.351 -114.441 445.832C-118.725 447.7 -131.655 455.857 -114.655 451.966C-101.635 448.966 -42.8905 441.732 -4.78099 388.386C7.05309 371.82 5.16969 358.176 -5.88857 345.846C-9.8239 341.446 -7.31904 333.753 3.74234 336.173C14.8115 338.602 15.3548 343.077 17.3147 345.268C19.3001 347.452 24.9075 344.891 27.2264 345.775C29.5277 346.675 37.9784 354.113 30.299 371.237C28.8099 374.529 38.0931 371.642 46.9256 352.827C55.7325 334.019 63.9026 313.256 47.0182 297.325C40.5639 291.243 34.1365 289.603 32.2286 291.33C30.3039 293.055 39.3 295.595 32.8705 303.849C28.0514 310.057 19.1149 310.658 12.8753 304.748C6.24364 298.429 8.63578 289.089 15.7968 281.826C24.0904 273.457 42.8799 277.315 53.1648 289.839C63.4398 302.387 84.1173 346.778 8.92498 407.744C-24.9904 435.254 -77.7575 456.46 -121.918 457.022C-127.778 457.1 -131.093 460.317 -116.457 460.047C-101.873 459.806 -14.7395 463.959 36.7541 421.353C57.6225 404.101 59.7324 393.279 54.4554 389.857C49.1606 386.449 38.8623 383.342 54.3075 378.113C58.2997 376.754 67.4319 379.661 70.1744 388.35C71.1934 391.526 76.6936 391.041 79.4413 394.52C82.1812 397.99 82.9136 402.519 79.9405 407.055C76.9496 411.606 90.8608 403.937 100.491 388.226C110.137 372.533 106.927 362.777 101.201 356.415C95.4934 350.038 99.1613 358.116 92.6459 362.987C88.22 366.3 81.4629 365.108 77.1661 359.816C73.548 355.295 74.1005 346.741 80.0999 342.356C87.2493 337.117 97.0244 337.54 106.184 347.106C113.874 355.074 128.328 377.908 84.4219 418.255C66.2667 434.928 11.5419 456.803 -29.1428 459.778C-33.3192 460.089 -25.1417 463.145 -14.1886 463.191C-3.25429 463.27 70.6668 464.631 119.409 420.846C128.421 412.74 131.443 405.598 133.761 405.963C136.07 406.353 135.014 411.78 135.793 417.024C136.546 422.274 140.733 441.785 161.132 449.652C181.548 457.536 193.319 447.348 195.296 442.966C197.29 438.568 195.031 433.181 192.707 433.041C190.356 432.924 186.202 434.064 185.343 439.287C184.457 444.533 174.512 444.559 170.09 439.267C165.712 433.936 165.253 423.929 172.029 417.855C178.797 411.771 189.591 414.709 194.949 420.278C200.325 425.832 205.596 440.395 193.145 450.473C180.679 460.55 151.568 463.276 133.447 426.166C130.797 420.745 129.754 418.345 118.771 430.465C107.748 442.575 105.232 445.969 106.56 450.336C107.878 454.727 105.027 460.634 102.39 462.247C99.7788 463.854 103.638 464.844 108.104 461.558C112.577 458.297 118.793 448.264 129.94 451.585C141.084 454.938 146.243 462.192 150.063 466.174C155.805 472.144 173.201 475.813 179.878 475.378C186.545 474.967 188.114 471.336 191.999 471.534C195.899 471.749 194.231 477.322 209.246 477.945C224.26 478.568 230.877 483.013 220.496 483.438C210.108 483.854 203.064 483.874 200.321 484.134C197.564 484.359 194.591 488.895 190.11 488.86C185.614 488.807 183.602 482.448 173.613 482.89C163.632 483.34 157.633 485.743 146.399 494.719C135.172 503.705 122.188 514.552 108.133 493.851C104.683 488.788 101.08 489.019 102.105 498.276C102.885 505.485 105.495 509.95 109.378 514.254C113.268 518.566 120.574 527.956 122.786 530.397C124.995 532.872 128.956 528.19 134.551 522.416C140.126 516.675 152.523 503.624 174.718 506.01C181.894 506.802 189.309 511.457 192.976 515.212C197.403 519.76 200.224 531.824 192.827 538.98C184.105 547.381 173.986 544.996 168.61 539.317C165.025 535.459 161.198 527.646 167.546 521.602C171.819 517.526 178.518 517.008 182.666 521.613C186.806 526.21 187.083 524.755 188.723 523.296C190.382 521.804 190.189 516.03 182.134 512.881C174.115 509.702 146.682 501.044 128.361 539.125C123.966 548.262 122.926 542.132 118.938 536.065C114.967 529.982 78.7143 483.009 -23.7224 469.759C-41.0769 467.531 -50.2255 464.355 -61.7315 464.324C-66.6541 464.269 -37.0844 472.21 -26.6279 474.015Z" fill="#161E32"/>
</g>
</svg>
