<svg width="242" height="963" viewBox="0 0 242 963" fill="none" xmlns="http://www.w3.org/2000/svg">
<mask id="mask0_4_1284" style="mask-type:alpha" maskUnits="userSpaceOnUse" x="0" y="0" width="242" height="963">
<rect width="242" height="963" transform="matrix(-1 0 0 1 242 0)" fill="#C4C4C4"/>
</mask>
<g mask="url(#mask0_4_1284)">
<path d="M268.628 474.015C228.469 481.017 175.359 505.966 158.497 523.944C117.726 567.476 133.824 589.164 142.08 596.541C151.974 605.36 161.733 605.065 168.492 599.298C174.125 594.506 174.031 585.931 170.073 581.692C165.399 576.713 158.564 576.028 154.406 579.68C148.291 585.055 152.53 592.797 146.376 586.892C140.177 580.948 136.288 571.485 144.714 555.108C153.147 538.721 166.445 530.044 163.802 534.779C161.159 539.514 162.246 543.978 165.239 547.241C168.249 550.52 173.676 549.588 174.91 552.688C178.284 561.162 187.64 563.342 191.517 561.707C206.525 555.338 196.025 553.031 190.482 550.039C184.954 547.013 186.289 536.063 205.777 517.282C253.988 470.926 341.168 468.559 355.691 467.19C370.249 465.835 367.225 469.306 361.362 469.822C317.383 473.698 266.324 498.8 234.534 528.77C164.1 595.212 188.035 637.936 199.226 649.642C210.41 661.39 229.459 663.83 237.091 654.838C243.681 647.066 245.393 637.564 238.284 631.778C231.615 626.333 222.773 627.624 218.413 634.15C212.613 642.9 221.772 644.75 219.983 646.604C218.212 648.473 211.664 647.302 204.788 641.752C186.737 627.121 193.326 605.793 200.739 586.385C208.127 566.97 217.174 563.39 215.934 566.781C209.562 584.417 218.55 591.195 220.914 591.939C223.251 592.66 228.673 589.679 230.784 591.711C232.921 593.749 233.796 598.168 245.019 599.727C256.279 601.35 258.195 593.475 253.903 589.383C241.96 577.942 239.045 564.462 249.62 547.036C283.642 491.005 341.399 478.246 354.425 475.417C359.499 474.332 367.864 474.869 356.769 481.757C334.381 495.58 286.534 518.069 281.136 557.32C275.704 596.573 298.527 623.913 315.889 629.037C333.236 634.178 349.528 626.958 355.191 620.918C360.852 614.861 355.714 636.507 351.696 644.073C347.644 651.641 308.629 722.903 219.565 709.582C198.361 706.393 173 695.566 173.268 680.704C173.411 671.645 157.595 668.355 147.857 680.401C138.339 692.232 145.4 699.234 147.094 703.115C148.785 706.946 137.288 708.574 128.367 703.741C116.803 697.478 92.2761 676.879 91.7993 651.502C91.3325 626.148 114.68 614.271 123.521 619.93C130.617 624.462 129.369 629.434 124.941 625.301C120.487 621.144 115.633 621.888 110.97 627.078C105.744 632.873 106.693 641.226 114.384 647.477C120.383 652.38 132.661 650.685 138.431 643.843C146.03 634.836 146.314 625.368 137.859 615.913C127.195 604.056 108.51 603.65 95.6996 617.364C82.8894 631.077 65.161 676.209 128.074 717.81C183.637 754.578 273.867 723.632 293.488 712.076C306.896 704.204 307.802 708.069 284.837 722.154C261.931 736.244 215.505 767.39 151.199 742.412C140.103 738.102 134.519 723.814 129.709 731.422C124.906 739.005 130.225 747.021 136.247 751.111C142.245 755.211 147.074 758.942 144.86 762.923C142.671 766.909 149.209 775.291 171.823 775.27C171.823 775.27 168.107 779.312 156.155 784.03C144.202 788.749 122.617 791.121 122.14 810.187C122.012 814.619 109.157 830.243 104.174 839.744C97.674 852.076 96.8327 873.699 107.626 883.766C118.384 893.802 123.683 892.695 126.571 893.397C129.465 894.057 115.633 915.898 109.119 923.406C102.605 930.914 103.512 934.795 115.353 922.665C127.142 910.522 194.197 838.15 201.488 830.367C208.779 822.584 211.563 813.097 199.455 824.441C187.347 835.785 172.966 845.316 156.343 842.086C135.217 838.006 128.512 843.836 123.52 849.758C118.507 855.631 120.239 867.473 123.965 870.296C126.902 872.551 134.845 872.655 137.592 869.427C140.339 866.199 139.241 863.927 136.62 864.011C134.033 864.092 133.174 862.031 134.675 860.396C136.205 858.801 138.032 859.262 140.76 862.04C143.402 864.79 147.43 871.308 141.175 878.289C134.903 885.271 123.595 889.33 114.161 880.79C104.779 872.264 89.8545 839.988 160.729 795.339C231.571 750.692 271.068 763.394 328.294 700.991C346.738 680.913 369.84 641.896 366.555 609.58C365.36 597.897 361.905 599.196 356.628 604.852C351.358 610.482 332.693 631.561 308.872 613.125C285.175 594.798 278.04 539.151 335.936 503.208C359.286 488.722 415.072 474.041 446.538 499.19C452.134 503.675 451.565 508.412 449.702 510.814C447.814 513.209 445.046 512.156 444.137 508.651C443.264 505.178 436.522 503.065 433.645 504.905C430.786 506.76 383.977 482.054 332.808 528.967C318.914 541.679 296.804 577.229 324.857 593.053C334.417 598.449 348.433 589.366 342.924 580.727C337.421 572.046 321.44 547.08 373.934 513.506C386.424 505.533 416.032 503.461 426.061 506.769C426.061 506.769 428.536 511.101 421.745 509.795C414.918 508.441 379.883 503.943 359.269 533.041C338.621 562.108 354.958 590.439 373.214 597.906C391.417 605.342 412.386 599.188 418.272 576.549C421.303 565.157 408.899 553.185 402.115 553.425C395.382 553.679 397.699 558.549 398.146 562.811C398.735 568.252 389.434 577.317 376.727 571.479C364.021 565.674 365.33 553.238 368.348 547.575C370.303 543.854 372.511 547.418 378.559 550.068C384.666 552.723 398.214 546.264 389.965 539.522C381.658 532.776 399.746 511.976 418.011 515.378C422.716 516.248 415.19 531.908 427.29 542.653C440.86 554.692 454.958 548.34 462.713 537.332C474.273 520.914 471.149 504.026 449.42 489.287C424.632 472.469 400.281 477.911 398.973 460.766C397.649 443.496 424.225 445.548 447.433 426.613C467.787 410.009 469.436 392.934 456.474 377.578C447.792 367.309 433.175 362.212 420.724 375.392C409.606 387.183 418.508 402.096 413.883 403.403C396.002 408.407 376.118 389.269 383.789 381.805C391.478 374.356 377.38 369.133 371.568 372.305C365.732 375.488 363.838 379.23 361.599 375.718C358.112 370.337 355.691 358.046 367.83 351.133C379.969 344.22 390.058 352.425 389.946 357.894C389.868 362.197 387.991 367.26 394.734 366.905C401.494 366.549 412.796 353.568 408.809 342.431C400.917 320.386 379.519 316.114 362.021 325.151C344.522 334.187 330.743 363.828 353.796 390.977C376.893 418.149 411.413 410.586 418.081 408.655C424.749 406.725 422.648 411.291 422.648 411.291C412.968 415.446 383.306 416.009 370.156 409.136C314.93 380.292 328.629 354.01 333.361 344.901C338.092 335.793 323.319 327.979 314.28 334.192C287.734 352.454 312.867 385.868 327.822 397.334C382.913 439.552 427.376 410.814 430.388 412.412C433.4 414.009 439.92 411.318 440.497 407.769C441.1 404.226 443.767 402.91 445.841 405.145C447.871 407.34 448.921 412.007 443.717 416.973C414.569 444.817 357.722 435.087 333.183 422.702C272.359 391.982 274.607 335.945 296.605 315.599C318.73 295.144 339.138 314.492 344.877 319.654C350.642 324.823 354.217 325.799 354.356 314.048C354.803 281.619 328.362 244.741 308.248 226.345C245.764 169.252 207.539 185.365 133.05 147.145C58.5418 108.909 70.564 75.441 79.1957 66.1171C87.7842 56.7709 99.4276 59.8169 106.3 66.2282C113.154 72.6073 109.752 79.4733 107.282 82.4577C104.856 85.4644 103.081 86.0877 101.423 84.6128C99.7906 83.1446 100.431 80.9878 103.033 80.872C105.624 80.7151 106.552 78.3393 103.537 75.3869C100.503 72.3856 92.6031 73.2322 89.8585 75.7073C86.4377 78.861 85.7075 90.7838 91.2051 96.2207C96.7283 101.664 103.901 106.877 124.567 100.959C140.863 96.2898 156.019 104.473 169.083 114.73C182.146 124.97 178.526 115.791 170.595 108.653C162.656 101.524 89.5142 35.317 76.7038 24.3081C63.8491 13.2603 63.2973 17.2096 70.4273 24.1146C77.6004 31.042 93.29 51.5522 90.4645 52.4935C87.639 53.4348 82.2533 52.783 72.4129 63.748C62.5547 74.6974 65.2754 96.1686 72.8215 107.906C78.6058 116.93 92.8458 131.351 93.3343 135.744C95.4939 154.709 117.177 155.174 129.484 158.805C141.792 162.436 145.908 166.138 145.908 166.138C123.336 168.129 117.565 177.062 120.129 180.812C122.669 184.59 118.19 188.731 112.579 193.338C106.968 197.961 102.319 206.387 107.791 213.531C113.246 220.66 117.547 205.967 128.202 200.704C190.097 170.169 239.049 197.138 263.145 209.117C287.233 221.104 286.681 225.053 272.642 218.388C252.056 208.603 159.484 185.762 107.315 227.219C48.3155 274.222 69.9691 317.627 83.9297 330.151C97.856 342.661 116.446 338.565 126.029 327.892C134.518 318.427 131.88 306.276 128.095 300.805C123.131 293.636 111.675 286.037 101.234 295.97C90.8271 305.917 96.8632 316.531 100.112 318.699C103.379 320.882 108.48 321.786 112.54 317.245C116.602 312.737 118.825 317.714 111.402 325.129C103.971 332.553 78.773 321.791 77.038 296.485C75.293 271.154 97.9366 248.467 108.876 241.237C117.333 235.613 128.939 236.236 127.579 240.228C126.252 244.218 119.802 251.814 130.341 262.742C141.121 273.914 156.596 269.23 155.63 260.217C154.046 245.44 178.384 232.421 199.24 227.394C286.775 206.279 331.894 273.847 336.574 281.017C341.253 288.187 348.242 309.311 342.096 303.807C335.93 298.253 319.081 292.512 302.224 299.141C285.377 305.794 265.048 335.033 273.886 373.652C282.724 412.271 332.348 435.351 356.441 445.832C360.725 447.7 373.655 455.857 356.655 451.966C343.635 448.966 284.89 441.732 246.781 388.386C234.947 371.82 236.83 358.176 247.889 345.846C251.824 341.446 249.319 333.753 238.258 336.173C227.188 338.602 226.645 343.077 224.685 345.268C222.7 347.452 217.093 344.891 214.774 345.775C212.472 346.675 204.022 354.113 211.701 371.237C213.19 374.529 203.907 371.642 195.074 352.827C186.267 334.019 178.097 313.256 194.982 297.325C201.436 291.243 207.864 289.603 209.771 291.33C211.696 293.055 202.7 295.595 209.13 303.849C213.949 310.057 222.885 310.658 229.125 304.748C235.756 298.429 233.364 289.089 226.203 281.826C217.91 273.457 199.12 277.315 188.835 289.839C178.56 302.387 157.883 346.778 233.075 407.744C266.99 435.254 319.757 456.46 363.918 457.022C369.778 457.1 373.093 460.317 358.457 460.047C343.873 459.806 256.739 463.959 205.246 421.353C184.377 404.101 182.268 393.279 187.545 389.857C192.839 386.449 203.138 383.342 187.692 378.113C183.7 376.754 174.568 379.661 171.826 388.35C170.807 391.526 165.306 391.041 162.559 394.52C159.819 397.99 159.086 402.519 162.06 407.055C165.05 411.606 151.139 403.937 141.509 388.226C131.863 372.533 135.073 362.777 140.799 356.415C146.507 350.038 142.839 358.116 149.354 362.987C153.78 366.3 160.537 365.108 164.834 359.816C168.452 355.295 167.9 346.741 161.9 342.356C154.751 337.117 144.976 337.54 135.816 347.106C128.126 355.074 113.672 377.908 157.578 418.255C175.733 434.928 230.458 456.803 271.143 459.778C275.319 460.089 267.142 463.145 256.189 463.191C245.254 463.27 171.333 464.631 122.591 420.846C113.579 412.74 110.557 405.598 108.239 405.963C105.93 406.353 106.986 411.78 106.207 417.024C105.454 422.274 101.267 441.785 80.8675 449.652C60.4522 457.536 48.6808 447.348 46.7044 442.966C44.7102 438.568 46.9685 433.181 49.293 433.041C51.6441 432.924 55.7979 434.064 56.657 439.287C57.5426 444.533 67.4883 444.559 71.9105 439.267C76.2884 433.936 76.7473 423.929 69.9713 417.855C63.2031 411.771 52.4087 414.709 47.0507 420.278C41.675 425.832 36.4044 440.395 48.8546 450.473C61.3214 460.55 90.4319 463.276 108.553 426.166C111.203 420.745 112.246 418.345 123.229 430.465C134.252 442.575 136.768 445.969 135.44 450.336C134.122 454.727 136.973 460.634 139.61 462.247C142.221 463.854 138.362 464.844 133.896 461.558C129.423 458.297 123.207 448.264 112.06 451.585C100.916 454.938 95.7572 462.192 91.9375 466.174C86.1952 472.144 68.7987 475.813 62.1221 475.378C55.4554 474.967 53.8862 471.336 50.0014 471.534C46.1011 471.749 47.7688 477.322 32.7543 477.945C17.7399 478.568 11.1226 483.013 21.5035 483.438C31.8922 483.854 38.9356 483.874 41.6786 484.134C44.4361 484.359 47.4093 488.895 51.8898 488.86C56.386 488.807 58.3982 482.448 68.3871 482.89C78.3682 483.34 84.3671 485.743 95.6013 494.719C106.828 503.705 119.812 514.552 133.867 493.851C137.317 488.788 140.92 489.019 139.895 498.276C139.115 505.485 136.505 509.95 132.622 514.254C128.732 518.566 121.426 527.956 119.214 530.397C117.005 532.872 113.044 528.19 107.449 522.416C101.874 516.675 89.477 503.624 67.2818 506.01C60.1062 506.802 52.6912 511.457 49.0244 515.212C44.5967 519.76 41.7764 531.824 49.1731 538.98C57.8953 547.381 68.014 544.996 73.3901 539.317C76.9751 535.459 80.8019 527.646 74.4544 521.602C70.1807 517.526 63.4822 517.008 59.3341 521.613C55.1939 526.21 54.9172 524.755 53.2772 523.296C51.6184 521.804 51.8114 516.03 59.8658 512.881C67.8848 509.702 95.3178 501.044 113.639 539.125C118.034 548.262 119.074 542.132 123.062 536.065C127.033 529.982 163.286 483.009 265.722 469.759C283.077 467.531 292.226 464.355 303.732 464.324C308.654 464.269 279.084 472.21 268.628 474.015Z" fill="#161E32"/>
</g>
</svg>
