<svg width="121" height="64" viewBox="0 0 121 64" fill="none" xmlns="http://www.w3.org/2000/svg">
<mask id="mask0_74_4" style="mask-type:alpha" maskUnits="userSpaceOnUse" x="0" y="0" width="121" height="64">
<rect width="121" height="64" rx="32" fill="#C6840C"/>
</mask>
<g mask="url(#mask0_74_4)">
<path fill-rule="evenodd" clip-rule="evenodd" d="M62.0364 35.0483C62.0761 35.4676 61.3405 35.6733 58.9844 35.9022C55.8039 36.2108 49.9969 38.3485 48.6997 39.6884C48.38 40.0183 47.9071 40.3087 47.6491 40.3331C47.391 40.3576 47.1989 40.5785 47.2222 40.8243C47.2455 41.07 46.9842 41.1921 46.6416 41.0955C46.2989 40.9993 46.033 41.0721 46.0505 41.2573C46.0681 41.443 45.4499 42.1164 44.6764 42.754C43.2526 43.9275 40.1581 47.5159 37.4168 51.1717C36.5917 52.2727 35.7736 53.0668 35.5992 52.9376C35.4248 52.8079 35.398 52.874 35.5392 53.0846C35.6808 53.2951 33.8725 55.9399 31.5203 58.962C29.1681 61.9841 27.2264 64.313 27.2053 64.1375C27.1842 63.962 27.8741 62.8889 28.7379 61.7529C35.1488 53.3247 37.7716 44.0359 34.4493 41.5282C31.13 39.023 29.1347 39.8903 31.3005 42.8969C33.0654 45.3462 32.6031 52.4873 30.5453 54.567C29.7278 55.3936 29.5635 55.0892 29.8127 53.2085C30.4575 48.3444 29.1293 44.16 26.3186 42.2015C22.8344 39.7734 20.6129 42.7506 23.0386 46.5973C26.1383 51.5126 26.1458 60.7493 23.0536 64.9261C21.49 67.038 19.0529 69.9151 18.8073 69.9383C18.6434 69.9539 18.2934 70.2236 18.0293 70.5377C16.7163 72.0998 14.7429 73.3217 15.2701 72.2462C15.4246 71.9314 15.3457 71.8799 15.0517 72.1044C14.7983 72.2974 14.7001 72.5457 14.8332 72.6568C15.0631 72.848 14.662 73.1674 11.7519 75.11C10.1981 76.1472 11.0657 76.4812 12.8642 75.538C14.4054 74.7299 14.4554 74.7199 14.5013 75.2046C14.5518 75.7377 9.32322 77.3714 4.98328 78.1783L1.30553 78.8618L6.30226 78.2671C16.7507 77.0241 20.7719 74.1415 33.5951 58.7044C37.9059 53.5147 42.1304 48.6637 42.9832 47.9241C43.8357 47.1846 44.5196 46.4329 44.5026 46.2533C44.4856 46.0742 44.6315 45.9121 44.8267 45.8937C45.0218 45.8752 46.1858 45.0369 47.4136 44.0309C54.7596 38.0105 60.845 36.3021 67.976 38.2577C78.2716 41.0808 82.8396 52.6457 76.3361 59.4222C73.8868 61.9742 67.5213 63.1192 66.5253 61.1867C66.293 60.7368 66.1067 60.528 66.111 60.7227C66.1363 61.8428 64.7984 59.9374 64.6797 58.6844C64.4807 56.5835 65.7792 54.7659 67.4063 54.8687C68.3689 54.9294 68.5848 54.7977 68.5268 54.1856C68.4873 53.7687 68.2338 53.4483 67.9638 53.4738C67.1937 53.5468 66.8323 52.7907 67.3039 52.0934C67.9138 51.1919 69.3404 51.1671 70.6773 52.0344C72.1349 52.9802 73.4799 52.5413 72.3403 51.4916C71.9418 51.1247 71.6019 50.678 71.585 50.4997C71.5297 49.9162 69.2018 48.4795 67.778 48.1502C63.6644 47.1987 59.4922 50.8639 59.8914 55.0785C60.0409 56.6564 59.5395 56.8725 58.1724 55.8187C57.5305 55.3242 56.9369 54.9256 56.8531 54.9335C56.4994 54.967 57.6795 57.3544 58.3098 57.8794C58.6885 58.1949 59.0102 58.5781 59.0247 58.7311C59.0783 59.2973 62.6646 62.0903 63.8513 62.4897C64.5269 62.7172 65.0905 63.0205 65.1041 63.1637C65.1176 63.307 65.3525 63.3841 65.6257 63.3358C65.8992 63.2871 67.3767 63.2831 68.9093 63.3265C81.7145 63.6887 85.4263 46.9743 74.2359 39.3389C73.4454 38.7994 73.0428 38.3347 73.3413 38.3064C74.8069 38.1676 78.9201 42.5585 80.4524 45.8974C82.564 50.4999 81.9556 54.9297 78.4809 60.2487C76.5144 63.2587 70.4254 65.0868 65.5163 64.1406C61.4114 63.349 61.3386 63.8046 65.3157 65.3982C68.2521 66.5748 74.7031 66.1876 76.9094 64.7022C77.6083 64.2316 78.3106 63.9644 78.4702 64.1085C78.6298 64.2525 78.5582 64.4662 78.3106 64.5829C77.9817 64.7386 78.0396 65.0727 78.5273 65.8298C79.3828 67.1576 79.4191 67.6566 78.7222 68.5056C77.146 70.4257 79.2805 70.0293 81.0386 68.0753C81.6574 67.3876 82.3218 66.9036 82.5149 67.0001C82.7084 67.0966 82.8407 66.9013 82.8089 66.5663C82.7772 66.2314 82.9723 65.7899 83.2423 65.5851C85.5117 63.8649 86.0428 52.9359 84.039 49.1896C83.2033 47.6267 83.3234 47.4683 85.6476 47.0698C87.8156 46.6983 88.3972 46.2067 89.0062 44.2292C89.439 42.8234 88.7563 41.0237 88.2104 42.1312C87.754 43.0567 84.1861 42.6985 84.0932 41.7174C84.0747 41.5221 83.86 41.3816 83.6165 41.4047C83.1245 41.4513 80.9346 40.0806 78.3179 38.0882C77.3743 37.3702 76.256 36.707 75.8325 36.6144C75.2145 36.4795 75.1459 36.3223 75.4856 35.8203C75.8313 35.3091 75.7881 35.2546 75.2493 35.5239C74.8865 35.7052 74.1776 35.6934 73.674 35.498C69.9717 34.0621 61.9135 33.7509 62.0364 35.0483ZM67.4716 35.9199C68.7731 36.1834 69.8524 36.5323 69.8695 36.6956C69.8869 36.8588 68.9224 36.7433 67.7265 36.4393C66.5306 36.1348 64.9018 35.7455 64.1074 35.5741C62.8664 35.3056 62.8352 35.2744 63.8842 35.3513C64.5559 35.4005 66.1704 35.6563 67.4716 35.9199ZM55.5676 39.3529C49.8871 42.0971 47.4835 44.5683 51.1847 43.8593C53.9374 43.3323 56.4213 44.051 56.5502 45.4117C56.5833 45.7612 56.768 45.9269 56.9606 45.78C57.1529 45.6335 57.4076 45.9193 57.5261 46.415C58.1453 49.0086 60.2717 46.2905 59.9856 43.2707C59.8175 41.4963 60.3267 40.7608 61.8207 40.6193C63.955 40.4171 65.6264 42.7588 64.8317 44.8365C63.9218 47.2142 67.9577 46.8889 69.2539 44.4803L70.0128 43.0696L70.9289 43.8896C71.4329 44.3402 71.8912 45.1975 71.9478 45.7943C72.1776 48.2208 74.6387 47.9559 74.891 45.4776C75.4594 39.9006 62.7641 35.8768 55.5676 39.3529ZM12.5332 48.0278C10.571 48.7198 7.32681 52.5332 7.68703 53.7242C7.82609 54.185 8.33956 53.7976 9.60323 52.2785C10.717 50.9392 11.5568 50.2673 11.9713 50.3839C12.3243 50.4832 12.4945 50.4064 12.3493 50.2134C11.8942 49.6083 15.6049 48.9265 17.3934 49.2864C22.3663 50.2876 23.7761 56.192 20.1344 60.7678C19.533 61.5239 15.1703 64.0671 13.6916 64.5235C13.0259 64.7291 13.4324 64.3815 14.6265 63.7249C18.2548 61.7293 19.2606 60.3986 15.8705 62.0789C14.7106 62.6538 9.68539 64.2577 9.49629 64.1135C9.42876 64.0621 9.94231 63.7223 10.6375 63.3584C12.5876 62.3386 13.9939 60.1748 13.0215 59.6904C12.7826 59.5709 12.6559 59.6754 12.7402 59.9215C12.8938 60.369 11.591 61.3728 8.69956 63.0343C7.36085 63.804 6.20707 63.9911 -0.392144 64.5083C-8.05589 65.1093 -11.4685 65.8048 -13.3463 67.1488C-14.284 67.8199 -14.2801 67.8228 -12.9108 67.4785C-11.622 67.1544 -11.6618 67.2128 -13.4976 68.3382C-22.3429 73.7616 -21.2571 85.9487 -12.0065 85.0724C-8.40467 84.7312 -6.79794 83.6201 -5.01197 80.2363C-4.54551 79.3526 -3.85057 78.5978 -3.46777 78.5591C-2.33094 78.4449 1.00732 76.307 2.44077 74.775C4.10992 72.9915 5.98001 66.8216 4.35343 68.4656C4.04429 68.7782 3.89214 69.118 4.01546 69.2207C4.91125 69.9673 0.766421 75.4027 -1.75318 76.7859C-4.04374 78.0436 -4.22993 78.0368 -4.35727 76.6926C-4.84048 71.5918 -12.3875 70.2123 -14.6419 74.8131C-16.3803 78.3613 -13.9492 81.1054 -10.4984 79.4894C-9.08675 78.8284 -8.39741 78.68 -8.0564 78.9641C-7.79483 79.182 -7.16643 79.3207 -6.65961 79.2727C-5.49772 79.1626 -5.45059 79.6004 -6.49732 80.7724C-12.2198 87.1777 -20.7796 83.0179 -18.1527 75.1082C-17.3701 72.7523 -17.2711 72.6794 -12.1123 70.6545C-7.63019 68.8948 -2.67782 67.9684 4.62985 67.5216C14.876 66.8955 19.955 64.3325 22.4203 58.5439C25.3876 51.5764 19.6807 45.5062 12.5332 48.0278ZM39.7526 54.7147C38.0425 55.6646 37.7436 55.9783 33.6639 61.0941C31.6863 63.5733 29.8714 65.5034 29.6299 65.383C29.3885 65.2629 29.3249 65.3426 29.4886 65.56C29.7574 65.9181 28.7894 66.9268 24.4862 70.7717C23.7155 71.4608 22.129 72.653 20.9604 73.4213C17.1314 75.9391 19.8353 75.3752 24.0658 72.7733C30.5108 68.8101 36.3413 65.8702 39.5536 64.9636C41.1171 64.5224 41.2475 64.2307 40.1597 63.6078C38.9595 62.921 38.8143 61.3875 39.8389 60.2257C42.0919 57.6707 45.8164 61.0992 43.741 63.8182C42.2461 65.7766 44.4723 65.9427 47.0933 64.0686C53.0271 59.8253 46.2036 51.1301 39.7526 54.7147ZM-10.9618 68.8496C-12.4573 69.4921 -14.0654 70.2772 -14.5358 70.5945C-15.0062 70.9115 -15.3995 71.0782 -15.4102 70.9652C-15.4679 70.3567 -10.5718 67.8847 -9.04465 67.7511C-8.60363 67.7125 -9.46637 68.2067 -10.9618 68.8496ZM25.5882 66.5476C23.3078 68.9916 22.231 70.0212 21.9245 70.0502C21.5483 70.0859 26.6001 64.7726 27.005 64.707C27.2 64.675 26.5626 65.5033 25.5882 66.5476ZM-7.97784 73.3243C-7.88485 73.5207 -7.61989 73.6633 -7.38872 73.6414C-6.50007 73.5573 -5.3048 75.225 -5.16033 76.75C-5.02523 78.1761 -5.10305 78.3105 -6.11563 78.4007C-7.50384 78.5241 -8.46346 78.0511 -8.14434 77.3999C-7.65106 76.3939 -8.51555 74.975 -9.51287 75.1537C-10.3583 75.3055 -10.4171 75.4703 -10.1071 76.8135C-9.59161 79.0464 -13.2989 80.0287 -14.0841 77.8669C-15.0969 75.0793 -9.21491 70.7033 -7.97784 73.3243ZM16.8122 73.9954C16.5693 74.3544 15.9866 74.6762 15.5169 74.7106C14.8046 74.7626 14.8538 74.6622 15.812 74.1048C17.312 73.2331 17.3292 73.2311 16.8122 73.9954Z" fill="#C6840C"/>
</g>
</svg>
