<svg width="963" height="242" viewBox="0 0 963 242" fill="none" xmlns="http://www.w3.org/2000/svg">
<mask id="mask0_4_1362" style="mask-type:alpha" maskUnits="userSpaceOnUse" x="0" y="0" width="963" height="242">
<rect width="242" height="963" transform="matrix(0 -1 -1 0 963 242)" fill="#C4C4C4"/>
</mask>
<g mask="url(#mask0_4_1362)">
<path d="M488.985 268.628C481.983 228.469 457.034 175.359 439.056 158.497C395.524 117.726 373.836 133.824 366.459 142.08C357.64 151.974 357.935 161.733 363.702 168.492C368.494 174.125 377.069 174.031 381.308 170.073C386.287 165.399 386.972 158.564 383.32 154.406C377.945 148.291 370.203 152.53 376.108 146.376C382.052 140.177 391.515 136.288 407.892 144.714C424.279 153.147 432.956 166.445 428.221 163.802C423.486 161.159 419.022 162.246 415.759 165.239C412.48 168.249 413.412 173.676 410.312 174.91C401.838 178.284 399.658 187.64 401.293 191.517C407.662 206.525 409.969 196.025 412.961 190.482C415.987 184.954 426.937 186.289 445.718 205.777C492.074 253.988 494.441 341.168 495.81 355.691C497.165 370.249 493.694 367.225 493.178 361.362C489.302 317.383 464.2 266.324 434.23 234.534C367.788 164.1 325.064 188.035 313.358 199.226C301.61 210.41 299.17 229.459 308.162 237.091C315.934 243.681 325.436 245.393 331.222 238.284C336.667 231.615 335.376 222.773 328.85 218.413C320.1 212.613 318.25 221.772 316.396 219.983C314.527 218.212 315.698 211.664 321.248 204.788C335.879 186.737 357.207 193.326 376.615 200.739C396.03 208.127 399.61 217.174 396.219 215.934C378.583 209.562 371.805 218.55 371.061 220.914C370.34 223.251 373.321 228.673 371.289 230.784C369.251 232.921 364.832 233.796 363.273 245.019C361.65 256.279 369.525 258.195 373.617 253.903C385.058 241.96 398.538 239.045 415.964 249.62C471.995 283.642 484.754 341.399 487.583 354.425C488.668 359.499 488.131 367.864 481.243 356.769C467.42 334.381 444.931 286.534 405.68 281.136C366.427 275.704 339.087 298.527 333.963 315.889C328.822 333.236 336.042 349.528 342.082 355.191C348.139 360.852 326.493 355.714 318.927 351.696C311.359 347.644 240.097 308.629 253.418 219.565C256.607 198.361 267.434 173 282.296 173.268C291.355 173.411 294.645 157.595 282.599 147.857C270.768 138.339 263.766 145.4 259.885 147.094C256.054 148.785 254.426 137.288 259.259 128.367C265.522 116.803 286.121 92.2761 311.498 91.7993C336.852 91.3325 348.729 114.68 343.07 123.521C338.538 130.617 333.566 129.369 337.699 124.941C341.856 120.487 341.112 115.633 335.922 110.97C330.127 105.744 321.774 106.693 315.523 114.384C310.62 120.383 312.315 132.661 319.157 138.431C328.164 146.03 337.632 146.314 347.087 137.859C358.944 127.195 359.35 108.51 345.636 95.6996C331.923 82.8894 286.791 65.161 245.19 128.074C208.422 183.637 239.368 273.867 250.924 293.488C258.796 306.896 254.931 307.802 240.846 284.837C226.756 261.931 195.61 215.505 220.588 151.199C224.898 140.103 239.186 134.519 231.578 129.709C223.995 124.906 215.979 130.225 211.889 136.247C207.789 142.245 204.058 147.074 200.077 144.86C196.091 142.671 187.709 149.209 187.73 171.823C187.73 171.823 183.688 168.107 178.97 156.155C174.251 144.202 171.879 122.617 152.813 122.14C148.381 122.012 132.757 109.157 123.256 104.174C110.924 97.674 89.3009 96.8327 79.2339 107.626C69.1982 118.384 70.3055 123.683 69.6032 126.571C68.9431 129.465 47.1018 115.633 39.594 109.119C32.0863 102.605 28.2051 103.512 40.3347 115.353C52.4778 127.142 124.85 194.197 132.633 201.488C140.416 208.779 149.903 211.563 138.559 199.455C127.215 187.347 117.684 172.966 120.914 156.343C124.994 135.217 119.164 128.512 113.242 123.52C107.369 118.507 95.5274 120.239 92.704 123.965C90.4492 126.902 90.3454 134.845 93.5733 137.592C96.8012 140.339 99.0728 139.241 98.9893 136.62C98.9079 134.033 100.969 133.174 102.604 134.675C104.199 136.205 103.738 138.032 100.96 140.76C98.2095 143.402 91.6918 147.43 84.7107 141.175C77.7286 134.903 73.6702 123.595 82.2098 114.161C90.7359 104.779 123.012 89.8545 167.661 160.729C212.308 231.571 199.606 271.068 262.009 328.294C282.087 346.738 321.104 369.84 353.42 366.555C365.103 365.36 363.804 361.905 358.148 356.628C352.518 351.358 331.439 332.693 349.875 308.872C368.202 285.175 423.849 278.04 459.792 335.936C474.278 359.286 488.959 415.072 463.81 446.538C459.325 452.134 454.588 451.565 452.186 449.702C449.791 447.814 450.844 445.046 454.349 444.137C457.822 443.264 459.935 436.522 458.095 433.645C456.24 430.786 480.946 383.977 434.033 332.808C421.321 318.914 385.771 296.804 369.947 324.857C364.551 334.417 373.634 348.433 382.273 342.924C390.954 337.421 415.92 321.44 449.494 373.934C457.467 386.424 459.539 416.032 456.231 426.061C456.231 426.061 451.899 428.536 453.205 421.745C454.559 414.918 459.057 379.883 429.959 359.269C400.892 338.621 372.561 354.958 365.094 373.214C357.658 391.417 363.812 412.386 386.451 418.272C397.843 421.303 409.815 408.899 409.575 402.115C409.321 395.382 404.451 397.699 400.189 398.146C394.748 398.735 385.683 389.434 391.521 376.727C397.326 364.021 409.762 365.33 415.425 368.348C419.146 370.303 415.582 372.511 412.932 378.559C410.277 384.666 416.736 398.214 423.478 389.965C430.224 381.658 451.024 399.746 447.622 418.011C446.752 422.716 431.092 415.19 420.347 427.29C408.308 440.86 414.66 454.958 425.668 462.713C442.086 474.273 458.974 471.149 473.713 449.42C490.531 424.632 485.089 400.281 502.234 398.973C519.504 397.649 517.452 424.225 536.387 447.433C552.991 467.787 570.066 469.436 585.422 456.474C595.691 447.792 600.788 433.175 587.608 420.724C575.817 409.606 560.904 418.508 559.597 413.883C554.593 396.002 573.731 376.118 581.195 383.789C588.644 391.478 593.867 377.38 590.695 371.568C587.512 365.732 583.77 363.838 587.282 361.599C592.663 358.112 604.954 355.691 611.867 367.83C618.78 379.969 610.575 390.058 605.106 389.946C600.803 389.868 595.74 387.991 596.095 394.734C596.451 401.494 609.432 412.796 620.569 408.809C642.614 400.917 646.886 379.519 637.849 362.021C628.813 344.522 599.172 330.743 572.023 353.796C544.851 376.893 552.414 411.413 554.345 418.081C556.275 424.749 551.709 422.648 551.709 422.648C547.554 412.968 546.991 383.306 553.864 370.156C582.708 314.93 608.99 328.629 618.099 333.361C627.207 338.092 635.021 323.319 628.808 314.28C610.546 287.734 577.132 312.867 565.666 327.822C523.448 382.913 552.186 427.376 550.588 430.388C548.991 433.4 551.682 439.92 555.231 440.497C558.774 441.1 560.09 443.767 557.855 445.841C555.66 447.871 550.993 448.921 546.027 443.717C518.183 414.569 527.913 357.722 540.298 333.183C571.018 272.359 627.055 274.607 647.401 296.605C667.856 318.73 648.508 339.138 643.346 344.877C638.177 350.642 637.201 354.217 648.952 354.356C681.381 354.803 718.259 328.362 736.655 308.248C793.748 245.764 777.635 207.539 815.855 133.05C854.091 58.5418 887.559 70.564 896.883 79.1957C906.229 87.7842 903.183 99.4276 896.772 106.3C890.393 113.154 883.527 109.752 880.542 107.282C877.536 104.856 876.912 103.081 878.387 101.423C879.855 99.7906 882.012 100.431 882.128 103.033C882.285 105.624 884.661 106.552 887.613 103.537C890.614 100.503 889.768 92.6031 887.293 89.8585C884.139 86.4377 872.216 85.7075 866.779 91.2051C861.336 96.7283 856.123 103.901 862.041 124.567C866.71 140.863 858.527 156.019 848.27 169.083C838.03 182.146 847.209 178.526 854.347 170.595C861.476 162.656 927.683 89.5142 938.692 76.7038C949.74 63.8491 945.79 63.2973 938.885 70.4273C931.958 77.6004 911.448 93.29 910.507 90.4645C909.565 87.639 910.217 82.2533 899.252 72.4129C888.303 62.5547 866.831 65.2754 855.094 72.8215C846.07 78.6058 831.649 92.8458 827.256 93.3343C808.291 95.4939 807.826 117.177 804.195 129.484C800.564 141.792 796.862 145.908 796.862 145.908C794.871 123.336 785.938 117.565 782.188 120.129C778.41 122.669 774.269 118.19 769.662 112.579C765.039 106.968 756.613 102.319 749.469 107.791C742.34 113.246 757.033 117.547 762.296 128.202C792.831 190.097 765.862 239.049 753.883 263.145C741.896 287.233 737.947 286.681 744.612 272.642C754.397 252.056 777.238 159.484 735.781 107.315C688.778 48.3155 645.373 69.9691 632.849 83.9297C620.339 97.856 624.435 116.446 635.108 126.029C644.573 134.518 656.724 131.88 662.195 128.095C669.364 123.131 676.963 111.675 667.03 101.234C657.083 90.8271 646.469 96.8632 644.301 100.112C642.118 103.379 641.214 108.48 645.755 112.54C650.263 116.602 645.286 118.825 637.871 111.402C630.447 103.971 641.209 78.773 666.515 77.038C691.846 75.293 714.533 97.9366 721.763 108.876C727.387 117.333 726.764 128.939 722.772 127.579C718.782 126.252 711.186 119.802 700.258 130.341C689.086 141.121 693.77 156.596 702.783 155.63C717.56 154.046 730.579 178.384 735.606 199.24C756.721 286.775 689.153 331.894 681.983 336.574C674.813 341.253 653.689 348.242 659.193 342.096C664.747 335.93 670.488 319.081 663.859 302.224C657.206 285.377 627.967 265.048 589.348 273.886C550.729 282.724 527.649 332.348 517.168 356.441C515.3 360.725 507.143 373.655 511.034 356.655C514.034 343.635 521.268 284.89 574.614 246.781C591.18 234.947 604.824 236.83 617.154 247.889C621.554 251.824 629.247 249.319 626.827 238.258C624.398 227.188 619.923 226.645 617.732 224.685C615.548 222.7 618.109 217.093 617.225 214.774C616.325 212.472 608.887 204.022 591.763 211.701C588.471 213.19 591.358 203.907 610.173 195.074C628.981 186.267 649.744 178.097 665.675 194.982C671.757 201.436 673.397 207.864 671.67 209.771C669.945 211.696 667.405 202.7 659.151 209.13C652.943 213.949 652.342 222.885 658.252 229.125C664.571 235.756 673.911 233.364 681.174 226.203C689.543 217.91 685.685 199.12 673.161 188.835C660.613 178.56 616.222 157.883 555.256 233.075C527.746 266.99 506.54 319.757 505.978 363.918C505.9 369.778 502.683 373.093 502.953 358.457C503.194 343.873 499.041 256.739 541.647 205.246C558.899 184.377 569.721 182.268 573.143 187.545C576.551 192.839 579.658 203.138 584.887 187.692C586.246 183.7 583.339 174.568 574.65 171.826C571.474 170.807 571.959 165.306 568.48 162.559C565.01 159.819 560.481 159.086 555.945 162.06C551.394 165.05 559.063 151.139 574.774 141.509C590.467 131.863 600.223 135.073 606.585 140.799C612.962 146.507 604.884 142.839 600.013 149.354C596.7 153.78 597.892 160.537 603.184 164.834C607.705 168.452 616.259 167.9 620.644 161.9C625.883 154.751 625.46 144.976 615.894 135.816C607.926 128.126 585.092 113.672 544.745 157.578C528.072 175.733 506.197 230.458 503.222 271.143C502.911 275.319 499.855 267.142 499.809 256.189C499.73 245.254 498.369 171.333 542.154 122.591C550.26 113.579 557.402 110.557 557.037 108.239C556.647 105.93 551.22 106.986 545.976 106.207C540.726 105.454 521.215 101.267 513.348 80.8675C505.464 60.4522 515.652 48.6808 520.034 46.7044C524.432 44.7102 529.819 46.9685 529.959 49.293C530.076 51.6441 528.936 55.7979 523.713 56.657C518.467 57.5426 518.441 67.4883 523.733 71.9105C529.064 76.2884 539.071 76.7473 545.145 69.9713C551.229 63.2031 548.291 52.4087 542.722 47.0507C537.168 41.675 522.605 36.4044 512.527 48.8546C502.45 61.3214 499.724 90.4319 536.834 108.553C542.255 111.203 544.655 112.246 532.535 123.229C520.425 134.252 517.031 136.768 512.664 135.44C508.273 134.122 502.366 136.973 500.753 139.61C499.146 142.221 498.156 138.362 501.442 133.896C504.703 129.423 514.736 123.207 511.415 112.06C508.062 100.916 500.808 95.7572 496.826 91.9375C490.856 86.1952 487.187 68.7987 487.622 62.1221C488.033 55.4554 491.664 53.8862 491.466 50.0014C491.251 46.1011 485.678 47.7688 485.055 32.7543C484.432 17.7399 479.987 11.1226 479.562 21.5035C479.146 31.8922 479.126 38.9356 478.866 41.6786C478.641 44.4361 474.105 47.4093 474.14 51.8898C474.193 56.386 480.552 58.3982 480.11 68.3871C479.66 78.3682 477.257 84.3671 468.281 95.6013C459.295 106.828 448.448 119.812 469.149 133.867C474.212 137.317 473.981 140.92 464.724 139.895C457.515 139.115 453.05 136.505 448.746 132.622C444.434 128.732 435.044 121.426 432.603 119.214C430.128 117.005 434.81 113.044 440.584 107.449C446.325 101.874 459.376 89.477 456.99 67.2818C456.198 60.1062 451.543 52.6912 447.788 49.0244C443.24 44.5967 431.176 41.7764 424.02 49.1731C415.619 57.8953 418.004 68.014 423.683 73.3901C427.541 76.9751 435.354 80.8019 441.398 74.4544C445.474 70.1807 445.992 63.4822 441.387 59.3341C436.79 55.1939 438.245 54.9172 439.704 53.2772C441.196 51.6184 446.97 51.8114 450.119 59.8658C453.298 67.8848 461.956 95.3178 423.875 113.639C414.738 118.034 420.868 119.074 426.935 123.062C433.018 127.033 479.991 163.286 493.241 265.722C495.469 283.077 498.645 292.226 498.676 303.732C498.731 308.654 490.79 279.084 488.985 268.628Z" fill="#161E32"/>
</g>
</svg>
