<svg width="18" height="18" viewBox="0 0 18 18" fill="none" xmlns="http://www.w3.org/2000/svg">
<path fill-rule="evenodd" clip-rule="evenodd" d="M17.25 9C17.25 4.44375 13.5562 0.75 9 0.75C4.44375 0.75 0.75 4.44375 0.75 9C0.75 13.5562 4.44375 17.25 9 17.25C13.5562 17.25 17.25 13.5562 17.25 9ZM11.4698 7.34475C11.6112 7.20813 11.8007 7.13254 11.9973 7.13424C12.1939 7.13595 12.3821 7.21483 12.5211 7.35389C12.6602 7.49294 12.739 7.68105 12.7408 7.8777C12.7425 8.07435 12.6669 8.2638 12.5302 8.40525L9.53025 11.4052C9.3896 11.5459 9.19887 11.6248 9 11.6248C8.80113 11.6248 8.6104 11.5459 8.46975 11.4052L5.46975 8.40525C5.33313 8.2638 5.25754 8.07435 5.25924 7.8777C5.26095 7.68105 5.33983 7.49294 5.47889 7.35389C5.61794 7.21483 5.80605 7.13595 6.0027 7.13424C6.19935 7.13254 6.3888 7.20813 6.53025 7.34475L9 9.8145L11.4698 7.34475Z" fill="#FCB633"/>
</svg>
