<svg width="18" height="18" viewBox="0 0 18 18" fill="none" xmlns="http://www.w3.org/2000/svg">
<path fill-rule="evenodd" clip-rule="evenodd" d="M9 0.75C4.44375 0.75 0.75 4.44375 0.75 9C0.75 13.5562 4.44375 17.25 9 17.25C13.5562 17.25 17.25 13.5562 17.25 9C17.25 4.44375 13.5562 0.75 9 0.75ZM7.34475 6.53025C7.20813 6.3888 7.13254 6.19935 7.13424 6.0027C7.13595 5.80605 7.21483 5.61794 7.35389 5.47889C7.49294 5.33983 7.68105 5.26095 7.8777 5.25924C8.07435 5.25754 8.2638 5.33313 8.40525 5.46975L11.4052 8.46975C11.5459 8.6104 11.6248 8.80113 11.6248 9C11.6248 9.19887 11.5459 9.3896 11.4052 9.53025L8.40525 12.5303C8.2638 12.6669 8.07435 12.7425 7.8777 12.7408C7.68105 12.739 7.49294 12.6602 7.35389 12.5211C7.21483 12.3821 7.13595 12.1939 7.13424 11.9973C7.13254 11.8007 7.20813 11.6112 7.34475 11.4698L9.8145 9L7.34475 6.53025Z" fill="#FCB633"/>
</svg>
