<svg width="375" height="212" viewBox="0 0 375 212" fill="none" xmlns="http://www.w3.org/2000/svg">
<path d="M56.55 158.65C67.2 158.65 76.35 155.2 84 148.45C91.65 141.7 96 133.9 97.35 125.35C98.4 118.6 96.75 112.45 92.7 107.2C88.65 101.8 82.95 99.1 75.9 99.1C69.45 98.95 64.05 100.75 59.7 104.5C55.35 108.1 53.1 112.15 52.95 116.8C52.65 123.25 60.3 123.25 60.6 116.8C61.05 111.55 66.45 107.05 74.7 107.2C79.5 107.2 83.25 109 86.1 112.45C88.95 115.9 90 119.95 89.4 124.6C88.65 131.35 85.2 137.35 79.05 142.6C72.9 147.85 65.55 150.55 56.85 150.55C45.6 150.55 36.6 146.35 29.7 137.8C22.95 129.25 19.65 119.5 19.95 108.7C20.4 95.05 27.3 79.45 38.1 67C48.9 54.4 65.85 45.4 83.7 45.4C92.1 45.4 98.55 47.35 103.2 51.25C107.85 55 110.1 59.5 109.95 64.45C109.8 68.5 108.3 72.1 105.15 75.25C102 78.4 98.25 80.05 93.9 80.05C86.25 80.05 82.65 76.15 82.8 71.5C82.8 70.15 83.55 68.65 84.9 66.7C88.05 61.15 82.35 57.25 77.7 62.8C75.75 65.35 74.7 67.9 74.7 70.6C74.25 80.2 80.1 88 93.45 88C100.2 88 105.9 85.6 110.55 80.65C115.2 75.7 117.75 70 117.9 63.7C117.75 56.65 114.75 50.65 108.75 45.4C102.75 40.15 94.5 37.45 84 37.45C73.95 37.45 64.5 39.7 55.35 44.35C46.2 48.85 38.55 54.7 32.4 61.75C26.25 68.8 21.3 76.45 17.55 84.85C13.8 93.1 11.85 101.2 11.7 108.85C11.25 122.5 15.3 134.2 23.55 143.95C31.8 153.7 42.9 158.65 56.55 158.65ZM117.116 140.8C124.766 140.8 131.216 135.4 136.466 124.45L147.566 100.9C149.066 97.9 149.816 95.05 149.816 92.35C149.816 85 144.866 80.95 136.616 80.95C128.966 80.95 122.516 86.35 117.266 97.3L106.016 121C104.666 124 103.916 126.85 103.916 129.4C103.916 136.75 108.866 140.8 117.116 140.8ZM112.016 129.4C112.016 127.9 112.466 126.25 113.366 124.45L124.166 101.35C125.966 97.75 125.966 97.6 128.216 94C130.616 90.4 133.466 88.75 136.616 88.75C141.566 88.75 142.916 91.6 140.366 97.3L129.566 120.7C125.666 128.95 121.466 133 117.116 133C113.666 133 112.016 131.8 112.016 129.4ZM169.699 120.85C168.199 124 167.449 127 167.449 129.55C167.449 137.05 171.649 140.8 179.899 140.8C184.249 140.8 188.149 139 191.599 135.4C195.049 131.8 197.749 128.05 199.399 124C200.299 121.6 199.549 119.95 197.299 119.2C195.049 118.3 193.399 118.9 192.199 121.15C188.299 129.1 184.249 133 179.899 133C177.049 133 175.549 131.8 175.549 129.55C175.549 128.05 175.999 126.25 177.049 124.15L187.849 100.9C189.349 97.9 190.099 95.05 190.099 92.35C190.099 85 184.999 80.35 177.799 80.95C174.949 81.1 171.799 82.9 170.599 84.55C170.449 82.6 169.249 81.55 167.149 81.55C165.499 81.55 164.149 82.45 163.249 84.25L146.299 121.15C142.549 129.1 138.499 133 133.999 133C129.499 133 129.199 140.8 133.999 140.8C144.649 140.8 151.549 129.4 153.799 124.15L165.199 98.95C167.149 94.3 172.249 88.75 177.649 88.75C180.499 88.75 181.999 89.95 181.999 92.35C181.999 93.4 181.549 95.05 180.649 97.3L169.699 120.85ZM224.549 89.2C226.649 88.45 227.549 86.95 227.399 84.7C227.249 82.75 226.049 81.7 223.949 81.7H221.849C219.899 81.7 219.299 80.8 220.049 79L224.249 70.15C227.399 63.7 219.449 61.6 216.899 67L211.199 79C210.449 80.8 209.099 81.7 206.999 81.7H206.399C205.649 81.7 204.899 81.85 204.299 82.15C202.349 82.9 201.299 84.4 201.449 86.5C201.599 88.45 202.799 89.5 205.049 89.5C206.099 89.5 206.399 90.4 205.649 92.2L192.299 121.15C190.799 124.45 190.049 127.3 190.049 129.55C190.049 137.2 195.299 141.55 203.699 140.8C208.049 140.35 211.949 138.4 215.399 134.95C218.999 131.35 221.549 127.75 223.199 124C224.099 121.6 223.349 119.95 221.099 119.2C218.849 118.3 217.199 118.9 215.999 121.15C214.349 124.15 214.349 124.6 211.949 128.05C209.549 131.5 206.849 133 203.699 133C198.749 133 197.699 128.8 199.649 124.15L214.049 92.2C214.799 90.4 216.299 89.5 218.249 89.5H222.599L224.549 89.2ZM249.776 140.8C254.126 140.8 258.026 139 261.476 135.4C264.926 131.8 267.626 128.05 269.276 124C270.176 121.6 269.426 119.95 267.176 119.2C264.926 118.3 263.276 118.9 262.076 121.15C260.426 124.15 260.426 124.6 258.026 128.05C255.626 131.5 252.926 133 249.776 133C246.926 133 245.426 131.8 245.426 129.55C245.426 128.05 245.876 126.25 246.926 124.15L263.576 87.4C263.726 86.8 263.876 86.2 263.876 85.75C263.876 83.8 262.976 82.75 261.026 82.45C258.776 82.3 257.126 83.35 256.226 85.75C254.876 82.75 250.676 80.95 246.626 80.95C238.976 80.95 232.526 86.35 227.276 97.3L216.026 121C214.676 124 213.926 126.85 213.926 129.4C213.926 136.75 218.876 140.8 227.126 140.8C231.476 140.8 235.376 139 238.676 135.55C240.626 139 244.226 140.8 249.776 140.8ZM238.526 122.8C236.276 127.75 232.076 133 227.126 133C222.176 133 221.126 128.2 223.376 124.45L234.176 101.35C235.976 97.75 235.976 97.6 238.226 94C240.626 90.4 243.476 88.75 246.626 88.75C252.326 88.75 252.326 93.7 250.376 97.6L238.526 122.8ZM291.422 80.95C284.072 80.95 277.772 86.35 272.672 97.3L264.572 114.4C262.322 119.05 261.272 123.1 261.272 126.25C261.272 135.7 268.472 140.8 278.822 140.8C284.222 140.8 289.172 139.15 293.822 135.85C298.472 132.4 301.772 128.5 303.722 124C304.772 121.45 304.172 119.8 301.922 118.9C299.822 117.85 298.172 118.6 296.822 120.85C293.672 126.7 286.622 133 278.822 133C272.822 133 269.822 130.45 269.822 125.5C269.822 123.1 270.572 120.4 271.922 117.55L279.722 101.05C282.122 96.1 282.572 94.3 286.022 91.15C287.672 89.5 289.472 88.75 291.422 88.75C296.372 88.75 295.922 92.5 293.072 98.05C292.622 98.95 292.322 99.7 292.322 100.45C292.172 102.55 293.222 103.75 295.322 104.2C297.872 104.65 299.672 103.6 301.022 101.05C302.822 97.3 303.722 94.15 303.722 91.3C303.722 84.85 298.772 80.95 291.422 80.95ZM329.139 89.2C331.239 88.45 332.139 86.95 331.989 84.7C331.839 82.75 330.639 81.7 328.539 81.7H326.439C324.489 81.7 323.889 80.8 324.639 79L328.839 70.15C331.989 63.7 324.039 61.6 321.489 67L315.789 79C315.039 80.8 313.689 81.7 311.589 81.7H310.989C310.239 81.7 309.489 81.85 308.889 82.15C306.939 82.9 305.889 84.4 306.039 86.5C306.189 88.45 307.389 89.5 309.639 89.5C310.689 89.5 310.989 90.4 310.239 92.2L296.889 121.15C295.389 124.45 294.639 127.3 294.639 129.55C294.639 137.2 299.889 141.55 308.289 140.8C312.639 140.35 316.539 138.4 319.989 134.95C323.589 131.35 326.139 127.75 327.789 124C328.689 121.6 327.939 119.95 325.689 119.2C323.439 118.3 321.789 118.9 320.589 121.15C318.939 124.15 318.939 124.6 316.539 128.05C314.139 131.5 311.439 133 308.289 133C303.339 133 302.289 128.8 304.239 124.15L318.639 92.2C319.389 90.4 320.889 89.5 322.839 89.5H327.189L329.139 89.2Z" fill="url(#paint0_linear_61_923)"/>
<path d="M105.594 173L98.8125 155.281H98.7031C98.8307 156.685 98.8945 158.353 98.8945 160.285V173H96.748V153.012H100.248L106.578 169.5H106.688L113.072 153.012H116.545V173H114.221V160.121C114.221 158.645 114.285 157.04 114.412 155.309H114.303L107.467 173H105.594ZM130.914 173L130.463 170.867H130.354C129.606 171.806 128.859 172.444 128.111 172.781C127.373 173.109 126.448 173.273 125.336 173.273C123.85 173.273 122.684 172.891 121.836 172.125C120.997 171.359 120.578 170.27 120.578 168.857C120.578 165.831 122.998 164.245 127.838 164.1L130.381 164.018V163.088C130.381 161.912 130.126 161.046 129.615 160.49C129.114 159.925 128.307 159.643 127.195 159.643C125.947 159.643 124.534 160.025 122.957 160.791L122.26 159.055C122.998 158.654 123.805 158.339 124.68 158.111C125.564 157.883 126.448 157.77 127.332 157.77C129.118 157.77 130.44 158.166 131.297 158.959C132.163 159.752 132.596 161.023 132.596 162.773V173H130.914ZM125.787 171.4C127.2 171.4 128.307 171.013 129.109 170.238C129.921 169.464 130.326 168.379 130.326 166.984V165.631L128.057 165.727C126.252 165.79 124.949 166.073 124.146 166.574C123.354 167.066 122.957 167.837 122.957 168.885C122.957 169.705 123.203 170.329 123.695 170.758C124.197 171.186 124.894 171.4 125.787 171.4ZM149.521 173L146.773 164.209C146.6 163.671 146.277 162.45 145.803 160.545H145.693C145.329 162.14 145.01 163.37 144.736 164.236L141.906 173H139.281L135.193 158.016H137.572C138.538 161.78 139.272 164.646 139.773 166.615C140.284 168.584 140.576 169.91 140.648 170.594H140.758C140.858 170.074 141.018 169.404 141.236 168.584C141.464 167.755 141.66 167.098 141.824 166.615L144.572 158.016H147.033L149.713 166.615C150.223 168.183 150.57 169.5 150.752 170.566H150.861C150.898 170.238 150.993 169.732 151.148 169.049C151.312 168.365 152.265 164.688 154.006 158.016H156.357L152.215 173H149.521ZM168.293 173L167.842 170.867H167.732C166.985 171.806 166.238 172.444 165.49 172.781C164.752 173.109 163.827 173.273 162.715 173.273C161.229 173.273 160.062 172.891 159.215 172.125C158.376 171.359 157.957 170.27 157.957 168.857C157.957 165.831 160.377 164.245 165.217 164.1L167.76 164.018V163.088C167.76 161.912 167.505 161.046 166.994 160.49C166.493 159.925 165.686 159.643 164.574 159.643C163.326 159.643 161.913 160.025 160.336 160.791L159.639 159.055C160.377 158.654 161.184 158.339 162.059 158.111C162.943 157.883 163.827 157.77 164.711 157.77C166.497 157.77 167.819 158.166 168.676 158.959C169.542 159.752 169.975 161.023 169.975 162.773V173H168.293ZM163.166 171.4C164.579 171.4 165.686 171.013 166.488 170.238C167.299 169.464 167.705 168.379 167.705 166.984V165.631L165.436 165.727C163.631 165.79 162.327 166.073 161.525 166.574C160.732 167.066 160.336 167.837 160.336 168.885C160.336 169.705 160.582 170.329 161.074 170.758C161.576 171.186 162.273 171.4 163.166 171.4ZM184.863 170.99H184.74C183.692 172.512 182.124 173.273 180.037 173.273C178.077 173.273 176.551 172.604 175.457 171.264C174.372 169.924 173.83 168.019 173.83 165.549C173.83 163.079 174.377 161.16 175.471 159.793C176.564 158.426 178.087 157.742 180.037 157.742C182.07 157.742 183.628 158.48 184.713 159.957H184.891L184.795 158.877L184.74 157.824V151.727H187.01V173H185.164L184.863 170.99ZM180.324 171.373C181.874 171.373 182.995 170.954 183.688 170.115C184.389 169.268 184.74 167.905 184.74 166.027V165.549C184.74 163.425 184.385 161.912 183.674 161.01C182.972 160.098 181.846 159.643 180.297 159.643C178.966 159.643 177.945 160.162 177.234 161.201C176.533 162.231 176.182 163.689 176.182 165.576C176.182 167.49 176.533 168.935 177.234 169.91C177.936 170.885 178.966 171.373 180.324 171.373ZM202.035 170.99H201.912C200.864 172.512 199.296 173.273 197.209 173.273C195.249 173.273 193.723 172.604 192.629 171.264C191.544 169.924 191.002 168.019 191.002 165.549C191.002 163.079 191.549 161.16 192.643 159.793C193.736 158.426 195.258 157.742 197.209 157.742C199.242 157.742 200.8 158.48 201.885 159.957H202.062L201.967 158.877L201.912 157.824V151.727H204.182V173H202.336L202.035 170.99ZM197.496 171.373C199.046 171.373 200.167 170.954 200.859 170.115C201.561 169.268 201.912 167.905 201.912 166.027V165.549C201.912 163.425 201.557 161.912 200.846 161.01C200.144 160.098 199.018 159.643 197.469 159.643C196.138 159.643 195.117 160.162 194.406 161.201C193.704 162.231 193.354 163.689 193.354 165.576C193.354 167.49 193.704 168.935 194.406 169.91C195.108 170.885 196.138 171.373 197.496 171.373ZM218.223 173L217.771 170.867H217.662C216.915 171.806 216.167 172.444 215.42 172.781C214.682 173.109 213.757 173.273 212.645 173.273C211.159 173.273 209.992 172.891 209.145 172.125C208.306 171.359 207.887 170.27 207.887 168.857C207.887 165.831 210.307 164.245 215.146 164.1L217.689 164.018V163.088C217.689 161.912 217.434 161.046 216.924 160.49C216.423 159.925 215.616 159.643 214.504 159.643C213.255 159.643 211.842 160.025 210.266 160.791L209.568 159.055C210.307 158.654 211.113 158.339 211.988 158.111C212.872 157.883 213.757 157.77 214.641 157.77C216.427 157.77 217.749 158.166 218.605 158.959C219.471 159.752 219.904 161.023 219.904 162.773V173H218.223ZM213.096 171.4C214.508 171.4 215.616 171.013 216.418 170.238C217.229 169.464 217.635 168.379 217.635 166.984V165.631L215.365 165.727C213.561 165.79 212.257 166.073 211.455 166.574C210.662 167.066 210.266 167.837 210.266 168.885C210.266 169.705 210.512 170.329 211.004 170.758C211.505 171.186 212.202 171.4 213.096 171.4ZM234.848 173V163.307C234.848 162.085 234.57 161.174 234.014 160.572C233.458 159.971 232.587 159.67 231.402 159.67C229.826 159.67 228.673 160.098 227.943 160.955C227.223 161.812 226.863 163.215 226.863 165.166V173H224.594V151.727H226.863V158.166C226.863 158.941 226.827 159.583 226.754 160.094H226.891C227.337 159.374 227.971 158.809 228.791 158.398C229.62 157.979 230.564 157.77 231.621 157.77C233.453 157.77 234.825 158.207 235.736 159.082C236.657 159.948 237.117 161.329 237.117 163.225V173H234.848ZM249.408 173V153.012H251.732V173H249.408ZM267.141 173V163.307C267.141 162.085 266.863 161.174 266.307 160.572C265.751 159.971 264.88 159.67 263.695 159.67C262.128 159.67 260.979 160.094 260.25 160.941C259.521 161.789 259.156 163.188 259.156 165.139V173H256.887V158.016H258.732L259.102 160.066H259.211C259.676 159.328 260.327 158.758 261.166 158.357C262.005 157.947 262.939 157.742 263.969 157.742C265.773 157.742 267.132 158.18 268.043 159.055C268.954 159.921 269.41 161.311 269.41 163.225V173H267.141ZM284.285 170.99H284.162C283.114 172.512 281.546 173.273 279.459 173.273C277.499 173.273 275.973 172.604 274.879 171.264C273.794 169.924 273.252 168.019 273.252 165.549C273.252 163.079 273.799 161.16 274.893 159.793C275.986 158.426 277.508 157.742 279.459 157.742C281.492 157.742 283.05 158.48 284.135 159.957H284.312L284.217 158.877L284.162 157.824V151.727H286.432V173H284.586L284.285 170.99ZM279.746 171.373C281.296 171.373 282.417 170.954 283.109 170.115C283.811 169.268 284.162 167.905 284.162 166.027V165.549C284.162 163.425 283.807 161.912 283.096 161.01C282.394 160.098 281.268 159.643 279.719 159.643C278.388 159.643 277.367 160.162 276.656 161.201C275.954 162.231 275.604 163.689 275.604 165.576C275.604 167.49 275.954 168.935 276.656 169.91C277.358 170.885 278.388 171.373 279.746 171.373ZM304.191 165.494C304.191 167.937 303.576 169.846 302.346 171.223C301.115 172.59 299.415 173.273 297.246 173.273C295.906 173.273 294.717 172.959 293.678 172.33C292.639 171.701 291.837 170.799 291.271 169.623C290.706 168.447 290.424 167.071 290.424 165.494C290.424 163.051 291.035 161.151 292.256 159.793C293.477 158.426 295.173 157.742 297.342 157.742C299.438 157.742 301.102 158.439 302.332 159.834C303.572 161.229 304.191 163.115 304.191 165.494ZM292.775 165.494C292.775 167.408 293.158 168.867 293.924 169.869C294.689 170.872 295.815 171.373 297.301 171.373C298.786 171.373 299.912 170.876 300.678 169.883C301.452 168.88 301.84 167.417 301.84 165.494C301.84 163.589 301.452 162.145 300.678 161.16C299.912 160.167 298.777 159.67 297.273 159.67C295.788 159.67 294.667 160.158 293.91 161.133C293.154 162.108 292.775 163.562 292.775 165.494ZM318.438 173V163.307C318.438 162.085 318.16 161.174 317.604 160.572C317.048 159.971 316.177 159.67 314.992 159.67C313.424 159.67 312.276 160.094 311.547 160.941C310.818 161.789 310.453 163.188 310.453 165.139V173H308.184V158.016H310.029L310.398 160.066H310.508C310.973 159.328 311.624 158.758 312.463 158.357C313.301 157.947 314.236 157.742 315.266 157.742C317.07 157.742 318.428 158.18 319.34 159.055C320.251 159.921 320.707 161.311 320.707 163.225V173H318.438ZM331.713 173.273C329.498 173.273 327.748 172.599 326.463 171.25C325.187 169.901 324.549 168.028 324.549 165.631C324.549 163.215 325.141 161.297 326.326 159.875C327.52 158.453 329.12 157.742 331.125 157.742C333.003 157.742 334.488 158.362 335.582 159.602C336.676 160.832 337.223 162.459 337.223 164.482V165.918H326.9C326.946 167.677 327.388 169.012 328.227 169.924C329.074 170.835 330.264 171.291 331.795 171.291C333.408 171.291 335.003 170.954 336.58 170.279V172.303C335.778 172.649 335.017 172.895 334.297 173.041C333.586 173.196 332.725 173.273 331.713 173.273ZM331.098 159.643C329.895 159.643 328.933 160.035 328.213 160.818C327.502 161.602 327.083 162.687 326.955 164.072H334.789C334.789 162.641 334.47 161.548 333.832 160.791C333.194 160.025 332.283 159.643 331.098 159.643ZM350.771 168.912C350.771 170.307 350.252 171.382 349.213 172.139C348.174 172.895 346.715 173.273 344.838 173.273C342.851 173.273 341.301 172.959 340.189 172.33V170.225C340.91 170.589 341.68 170.876 342.5 171.086C343.329 171.296 344.127 171.4 344.893 171.4C346.077 171.4 346.989 171.214 347.627 170.84C348.265 170.457 348.584 169.878 348.584 169.104C348.584 168.52 348.329 168.023 347.818 167.613C347.317 167.194 346.333 166.702 344.865 166.137C343.471 165.617 342.477 165.166 341.885 164.783C341.301 164.391 340.864 163.949 340.572 163.457C340.29 162.965 340.148 162.377 340.148 161.693C340.148 160.472 340.645 159.51 341.639 158.809C342.632 158.098 343.995 157.742 345.727 157.742C347.34 157.742 348.917 158.07 350.457 158.727L349.65 160.572C348.146 159.952 346.784 159.643 345.562 159.643C344.487 159.643 343.676 159.811 343.129 160.148C342.582 160.486 342.309 160.951 342.309 161.543C342.309 161.944 342.409 162.286 342.609 162.568C342.819 162.851 343.152 163.12 343.607 163.375C344.063 163.63 344.938 163.999 346.232 164.482C348.01 165.13 349.208 165.781 349.828 166.438C350.457 167.094 350.771 167.919 350.771 168.912ZM356.746 173H354.477V158.016H356.746V173ZM354.285 153.955C354.285 153.436 354.413 153.057 354.668 152.82C354.923 152.574 355.242 152.451 355.625 152.451C355.99 152.451 356.304 152.574 356.568 152.82C356.833 153.066 356.965 153.445 356.965 153.955C356.965 154.465 356.833 154.848 356.568 155.104C356.304 155.35 355.99 155.473 355.625 155.473C355.242 155.473 354.923 155.35 354.668 155.104C354.413 154.848 354.285 154.465 354.285 153.955ZM370.773 173L370.322 170.867H370.213C369.465 171.806 368.718 172.444 367.971 172.781C367.232 173.109 366.307 173.273 365.195 173.273C363.71 173.273 362.543 172.891 361.695 172.125C360.857 171.359 360.438 170.27 360.438 168.857C360.438 165.831 362.857 164.245 367.697 164.1L370.24 164.018V163.088C370.24 161.912 369.985 161.046 369.475 160.49C368.973 159.925 368.167 159.643 367.055 159.643C365.806 159.643 364.393 160.025 362.816 160.791L362.119 159.055C362.857 158.654 363.664 158.339 364.539 158.111C365.423 157.883 366.307 157.77 367.191 157.77C368.978 157.77 370.299 158.166 371.156 158.959C372.022 159.752 372.455 161.023 372.455 162.773V173H370.773ZM365.646 171.4C367.059 171.4 368.167 171.013 368.969 170.238C369.78 169.464 370.186 168.379 370.186 166.984V165.631L367.916 165.727C366.111 165.79 364.808 166.073 364.006 166.574C363.213 167.066 362.816 167.837 362.816 168.885C362.816 169.705 363.062 170.329 363.555 170.758C364.056 171.186 364.753 171.4 365.646 171.4Z" fill="white"/>
<defs>
<linearGradient id="paint0_linear_61_923" x1="9.52335" y1="25.44" x2="348.534" y2="112.026" gradientUnits="userSpaceOnUse">
<stop stop-color="#FCB633"/>
<stop offset="0.203125" stop-color="#D1A045"/>
<stop offset="0.244792" stop-color="#C9932F"/>
<stop offset="0.604167" stop-color="#FFCA66"/>
<stop offset="0.677083" stop-color="#FCB126"/>
<stop offset="1" stop-color="#815400"/>
</linearGradient>
</defs>
</svg>
