<svg width="41" height="193" viewBox="0 0 41 193" fill="none" xmlns="http://www.w3.org/2000/svg">
<path d="M22.337 28.646C22.1409 29.5711 20.1495 34.9998 24.4113 39.9246C26.32 42.1292 31.0408 43.7732 30.8708 40.5679C30.8418 40.0567 32.2522 40.2702 32.3234 41.5381C32.3524 42.0232 31.9995 43.3142 31.3269 43.5829C30.6544 43.8516 32.351 43.8777 33.2109 43.6091C34.0737 43.3389 36.0056 42.5619 35.9853 40.6217C35.9766 40.0509 35.5742 39.6457 35.2111 39.6661C34.848 39.6893 34.7855 40.0292 34.848 40.2136C34.9075 40.3951 34.4224 40.231 34.4224 39.8273C34.4224 39.4235 34.7463 38.5928 35.8981 38.6364C36.4429 38.6567 36.928 38.9602 37.2519 39.2826C37.573 39.6065 37.6543 39.1215 37.8954 39.1215C38.1395 39.1215 38.5825 39.1607 38.5622 40.0712C38.5418 40.9789 38.5026 41.3624 39.0081 40.4735C39.5107 39.5862 40.0583 37.8304 39.3291 36.2561C38.6028 34.6818 37.233 34.6426 36.9295 35.1843C36.6259 35.7318 36.989 35.9932 36.9498 36.4187C36.9077 36.8413 36.3426 37.4687 35.3549 37.4063C34.3643 37.3467 33.7179 36.317 33.8195 35.2075C33.9212 34.095 34.7869 32.6239 36.5852 32.4815C38.3806 32.3392 40.741 33.8351 40.9458 36.8617C41.1477 39.8912 38.6217 44.5516 32.3641 44.5937C26.105 44.6329 22.7263 40.2877 21.7052 35.4282C21.5628 34.7558 21.2258 34.4697 20.8235 34.5148C20.3412 34.5685 20.2337 35.7797 20.2337 36.1283C20.2337 36.4768 20.0187 36.6395 20.0434 36.0745C20.0725 35.5096 19.936 34.5685 19.3709 34.5685C18.88 34.5685 18.8378 35.0086 18.7783 35.4559C18.0782 40.7321 14.8491 44.8479 8.59001 44.8072C2.33092 44.7651 -0.190731 40.1018 0.0111748 37.0752C0.213081 34.0486 2.57642 32.5542 4.37179 32.695C6.16715 32.8359 7.03577 34.3085 7.13745 35.421C7.23622 36.5305 6.59273 37.5602 5.60208 37.6198C4.61144 37.6793 4.04785 37.0548 4.00718 36.6322C3.96506 36.2067 4.33111 35.9453 4.02753 35.3978C3.72394 34.8531 2.35124 34.8924 1.62496 36.4696C0.898679 38.0439 1.44338 39.7997 1.94887 40.687C2.45436 41.5744 2.4137 41.1924 2.39482 40.2847C2.37448 39.3741 2.81751 39.3349 3.05864 39.3349C3.30267 39.3349 3.38257 39.82 3.70504 39.4961C4.02751 39.1723 4.51412 38.8687 5.05884 38.8499C6.21072 38.8077 6.53174 39.6385 6.53174 40.0408C6.53174 40.443 6.04657 40.6057 6.10903 40.4242C6.16858 40.2426 6.10903 39.8999 5.74588 39.8796C5.37984 39.8592 4.9775 40.263 4.97168 40.8352C4.94844 42.7725 6.88324 43.5524 7.74316 43.8226C8.60598 44.0927 10.3026 44.0636 9.63005 43.7964C8.95461 43.5263 8.60597 42.2337 8.63066 41.7516C8.70184 40.4837 10.1123 40.2702 10.0861 40.7814C9.9162 43.9867 14.7532 42.4385 16.5457 40.1352C19.8561 35.8857 17.9096 29.0977 17.6496 28.1871C17.4347 27.4319 17.8646 27.9169 18.0244 28.3483C18.1856 28.7796 18.7245 30.717 18.7245 31.0946C18.7245 31.4722 19.965 31.9544 19.9098 30.6095C19.8546 29.2647 20.302 26.7972 18.4006 25.8474C17.8109 25.5497 17.6119 25.1416 18.0767 24.7495C18.4427 24.4459 19.4639 24.369 19.8125 24.931C19.9142 25.0922 20.0565 24.9935 20.0565 24.1656C20.0565 23.3378 19.8546 23.377 19.6106 23.2783C19.3695 23.1766 18.9105 22.8049 19.1284 21.6023C19.1676 21.3816 18.4224 21.2785 18.0985 20.8559C17.7745 20.4303 17.6729 20.8951 17.4913 21.2582C17.3097 21.6212 16.7854 22.0235 16.0591 21.9843C15.3328 21.9451 15.1716 21.3177 15.1512 20.8747C15.1309 20.4289 15.4316 19.9249 15.8383 19.9046C16.2406 19.8843 16.6866 20.3897 16.6633 19.7434C16.643 19.1 16.7854 14.9188 15.9763 12.9815C15.1701 11.0441 14.0749 9.6121 12.8271 9.50899C12.3216 9.46978 12.6252 9.95486 12.6456 10.3368C12.6688 10.7231 12.3652 11.2242 11.758 11.1646C11.1538 11.1051 11.0114 10.6403 11.0318 10.3165C11.0521 9.99261 11.193 8.66232 13.0523 8.7422C14.9072 8.82498 17.1427 10.5009 17.0105 12.2335C16.9873 12.4978 18.0607 11.4682 18.6025 12.0128C19.1501 12.5574 19.0485 13.7294 18.5822 15.3037C18.1203 16.878 17.654 20.4289 19.6745 20.5117C21.6921 20.5915 22.0146 16.7763 21.3711 15.0205C20.7247 13.2647 20.8467 11.6599 21.9957 11.8516C22.4809 11.9314 22.6421 11.792 22.844 10.9642C23.0459 10.1364 25.0025 7.97682 27.1247 7.97682C27.9308 7.97682 28.8009 8.45898 28.7791 9.40878C28.7588 10.2773 28.0921 10.6404 27.588 10.6404C27.084 10.6404 26.5785 10.1974 26.5785 9.77186C26.5785 9.34924 26.8429 9.22728 27.0244 9.1445C27.206 9.06462 27.0244 8.68266 26.2982 8.96296C25.5719 9.24616 23.3989 10.7217 23.2478 17.501C23.2086 19.3397 23.3698 20.0847 23.7329 19.9031C24.0961 19.7216 24.8645 19.9235 24.8645 20.7513C24.8645 21.5791 24.237 21.9916 23.611 22.0221C22.8455 22.0642 22.0988 21.2959 22.0596 20.8936C22.0175 20.4913 21.7139 20.8312 21.3508 21.0752C20.9876 21.3162 20.9281 21.4978 21.0501 21.8608C21.1692 22.2268 21.1663 23.0125 20.4632 23.2768C20.1422 23.3959 20.3441 23.6995 20.3209 24.0625C20.3005 24.4256 20.2613 24.8308 20.6448 24.6667C21.0283 24.5084 21.939 24.488 22.2194 24.8903C22.5026 25.2926 22.0465 25.6397 21.7575 25.8372C21.3115 26.1408 20.302 27.1908 20.302 29.7948C20.302 30.9857 20.5039 31.7713 20.8264 31.7713C21.2912 31.7713 21.5294 31.3662 21.8562 29.2298C21.9332 28.7084 22.3966 28.3613 22.337 28.646Z" fill="#FCB633"/>
<path d="M19.0454 40.8627C18.5123 42.1669 16.4613 45.4665 13.9324 47.4838C11.402 49.5039 10.5392 53.0011 10.8631 55.0459C11.1871 57.0937 12.1007 58.1945 13.6346 58.1683C15.17 58.1393 16.0314 57.281 16.0038 55.7721C15.9747 54.266 15.0901 53.5137 14.2534 53.5137C13.4196 53.5137 13.0957 53.9959 13.0957 54.4809C13.0957 54.966 13.5518 55.2071 13.5518 54.8586C13.5518 54.5071 13.8351 54.2544 14.1982 54.266C14.5614 54.2806 15.1148 54.6974 15.0465 55.3553C14.9812 56.0161 14.3348 56.2426 13.7552 56.2426C13.1756 56.2426 12.1515 55.8113 12.1385 54.7104C12.1269 53.6067 12.8255 52.7048 13.9847 52.744C15.1424 52.7861 16.4584 53.5239 16.3654 55.8127C16.2667 58.2715 14.3347 58.6665 13.0826 58.5983C11.8305 58.53 11.049 57.6673 10.8864 57.48C10.7237 57.2926 10.699 57.4262 10.6598 57.602C10.6205 57.7748 10.3896 57.8823 10.1746 57.8968C9.95964 57.9113 9.04887 57.647 9.00239 55.8795C8.98786 55.3407 8.86876 55.3117 8.67847 55.3117C8.49109 55.3117 7.9231 55.1635 8.05964 54.3023C8.19619 53.4426 8.46204 52.8355 8.67847 52.5407C8.89491 52.2459 8.96171 52.1384 8.70751 52.0701C8.45331 52.0019 7.84179 50.9475 9.34084 49.9716C9.91896 49.594 10.7397 49.2164 10.7251 48.9361C10.7135 48.6529 10.1208 49.0014 9.65021 49.2701C9.17957 49.5388 8.1294 50.0137 8.30226 48.8533C8.34438 48.5831 7.37404 48.8141 6.94553 48.5977C6.51412 48.3827 6.33836 47.9514 6.72765 47.6566C7.11985 47.3618 6.87873 47.279 6.62308 47.0103C6.36452 46.7402 5.79802 45.5551 6.98622 44.736C7.37551 44.4688 7.57598 44.5878 7.3639 45.1281C7.14892 45.6669 7.49751 47.5898 10.484 47.1875C13.4705 46.7852 16.4337 45.224 18.842 40.6492C19.0454 40.2644 19.2895 40.2731 19.0454 40.8627Z" fill="#FCB633"/>
<path d="M21.9058 40.6493C22.4418 41.9535 24.4899 45.2502 27.0202 47.2703C29.5506 49.2876 30.4105 52.7876 30.0895 54.8296C29.7656 56.8773 28.849 57.981 27.3151 57.952C25.7827 57.9259 24.9213 57.0646 24.9489 55.5586C24.975 54.0497 25.8626 53.2974 26.6963 53.2974C27.533 53.2974 27.854 53.7795 27.854 54.2646C27.854 54.7497 27.3979 54.9908 27.3979 54.6422C27.3979 54.2937 27.1147 54.038 26.7515 54.0497C26.3884 54.0642 25.8379 54.481 25.9033 55.1418C25.9715 55.7997 26.6179 56.0291 27.1975 56.0291C27.777 56.0291 28.7982 55.5978 28.8113 54.4941C28.8243 53.3903 28.1242 52.4884 26.9665 52.5306C25.8088 52.5698 24.4899 53.3104 24.5828 55.5964C24.6845 58.058 26.6165 58.4501 27.8686 58.3819C29.1207 58.3136 29.8992 57.451 30.0619 57.2636C30.2246 57.0763 30.2522 57.2099 30.2914 57.3856C30.3307 57.5584 30.5587 57.6688 30.7737 57.6804C30.9916 57.6949 31.9023 57.4306 31.9459 55.6632C31.9604 55.1244 32.0824 55.0982 32.2698 55.0982C32.4572 55.0982 33.0251 54.9472 32.8915 54.0889C32.755 53.2262 32.4863 52.6192 32.2698 52.3243C32.0534 52.0295 31.9895 51.922 32.2437 51.8538C32.4993 51.7884 33.1094 50.7311 31.6104 49.7552C31.0322 49.3776 30.2086 49.0029 30.2232 48.7197C30.2377 48.4365 30.8303 48.7851 31.2981 49.0537C31.7687 49.3239 32.8189 49.7973 32.646 48.6398C32.6068 48.3697 33.5742 48.5977 34.0056 48.3814C34.437 48.165 34.6099 47.738 34.2206 47.4402C33.8284 47.1454 34.0724 47.0626 34.3281 46.794C34.5838 46.5267 35.1503 45.3388 33.965 44.5226C33.5728 44.2524 33.3723 44.3715 33.5873 44.9118C33.8023 45.4521 33.4537 47.3764 30.4672 46.9712C27.4764 46.5689 24.5175 45.0077 22.1092 40.4329C21.9058 40.051 21.6647 40.0568 21.9058 40.6493Z" fill="#FCB633"/>
<path d="M20.132 58.4545C20.132 57.8765 19.1675 55.7852 17.7745 55.5412C17.1964 55.4425 17.1441 55.0169 17.7977 55.0387C18.4499 55.0648 19.8066 54.7889 19.7558 53.5835C19.7078 52.3781 18.6518 51.9017 17.3213 51.9017C16.9945 51.9017 16.8448 51.7507 17.4724 51.527C18.0999 51.3005 19.9068 49.4706 19.9068 47.1106C19.9068 46.6081 19.6062 46.3046 19.2794 46.884C18.9525 47.4592 17.9226 49.1932 17.1455 49.4198C16.3684 49.6434 16.518 49.093 15.6639 49.5926C14.8098 50.0951 13.5301 49.7204 13.1277 49.3181C12.7283 48.9187 13.3035 49.1453 13.7059 49.1671C14.1053 49.1932 16.3161 48.7894 17.9735 46.0301C19.6309 43.2707 19.9824 41.162 20.0565 39.2028C20.1334 37.2451 20.3339 38.2501 20.3862 38.9414C20.5082 40.6319 20.485 42.6404 22.4939 45.4535C24.4999 48.2652 26.8371 49.4648 27.6374 48.2652C27.8422 47.9616 28.1429 48.7677 27.6142 49.244C27.0854 49.7204 25.6793 49.6434 25.1288 49.3951C24.5754 49.1424 24.4984 50.1212 23.3698 49.0683C22.2411 48.0125 21.8664 47.0598 21.7124 46.6575C21.5613 46.2581 20.9353 46.5065 20.9353 47.0351C20.9353 47.5637 21.236 50.3826 23.1708 51.4777C23.9232 51.9032 23.4976 51.9032 23.0691 51.8553C22.6435 51.8044 21.0384 51.6287 20.9353 53.1856C20.8365 54.7395 22.1641 55.0925 23.0691 55.0925C23.5717 55.0925 23.3218 55.3423 22.6696 55.4439C22.0145 55.5427 20.3354 56.873 20.3354 58.607C20.3339 59.0049 20.132 59.0311 20.132 58.4545ZM21.3435 50.6862C21.3071 50.1779 20.9091 49.7843 20.4951 49.8017C20.0812 49.8221 19.8488 50.4422 19.8735 50.8009C19.9127 51.3281 20.1945 51.6694 20.6651 51.6694C21.1357 51.6694 21.3812 51.193 21.3435 50.6862Z" fill="#FCB633"/>
<path d="M19.9345 19.3222C19.9345 18.917 19.5917 18.0093 19.1879 17.7871C18.7841 17.5649 19.0063 17.2628 19.2475 16.8794C19.4915 16.496 19.7951 16.1533 19.8343 14.6589C19.8938 12.2989 19.673 10.7841 19.5307 10.1567C19.3883 9.53222 19.3288 9.75444 19.1284 9.99552C18.9235 10.2395 18.4413 10.5634 18.0985 10.3586C17.7557 10.1567 18.036 10.2003 18.28 9.67167C18.5212 9.14739 18.6635 7.63553 18.0592 6.86581C17.4521 6.10045 16.8057 5.63424 16.4817 5.83611C16.1607 6.03798 16.383 6.58553 16.0198 6.58553C15.6567 6.58553 15.4519 6.40397 15.4519 6.10043C15.4519 5.7969 15.7352 5.29148 16.3235 5.25227C16.9074 5.21306 19.169 6.1716 19.9156 10.5198C20.0376 11.2256 20.1567 11.0252 20.2395 10.6026C20.3194 10.1771 20.9063 7.66165 21.9158 6.1803C22.7844 4.90954 24.0148 4.92987 24.6002 5.45415C25.187 5.97843 24.0467 6.38216 23.9538 5.97842C23.8346 5.45414 22.4809 5.51662 21.9768 6.72784C21.236 8.5011 21.4117 9.59321 21.634 9.93595C21.8562 10.2787 21.4728 10.2787 21.069 10.2598C20.6652 10.241 20.4226 10.3789 20.4022 10.8248C20.3819 11.2706 20.2003 12.964 20.2003 14.2145C20.2003 14.8215 20.0042 16.7865 20.9063 17.2643C21.2491 17.4458 21.2302 17.6869 20.7639 17.9904C20.2976 18.294 20.2584 18.8386 20.1989 19.1813C20.1393 19.524 19.9345 19.7056 19.9345 19.3222Z" fill="#FCB633"/>
<path d="M20.1554 9.0878C20.1757 8.62306 20.1554 5.35535 20.1554 5.05182C20.1554 4.74829 20.1554 4.76866 20.289 4.64957C20.4197 4.52758 20.4996 3.8813 20.0566 3.86097C19.6107 3.84064 19.541 4.36637 19.753 4.64957C19.9651 4.92986 19.9462 5.16365 19.9346 5.4149C19.9259 5.6676 19.9346 8.70586 19.9259 8.92661C19.9143 9.14736 20.1467 9.32888 20.1554 9.0878Z" fill="#FCB633"/>
<path d="M20.0158 3.59666C20.1378 3.60828 20.1857 3.53713 20.1857 3.25393C20.1857 2.97364 20.1857 0.40016 20.1857 0.23605C20.1857 0.0777492 19.9533 -0.266475 19.9329 0.369632C19.9126 1.00574 19.8109 2.99396 19.8022 3.21471C19.792 3.43691 19.8937 3.58795 20.0158 3.59666Z" fill="#FCB633"/>
<path d="M19.7441 193L19.7441 55.4279H21.2112L21.2112 193H19.7441Z" fill="#FCB633"/>
</svg>
