<svg width="121" height="36" viewBox="0 0 121 36" fill="none" xmlns="http://www.w3.org/2000/svg">
<path d="M63.5178 6.25401C63.038 10.3687 61.4608 17.4979 64.3576 23.43C66.6779 28.1798 69.5133 31.7413 74.1744 33.0144C75.5584 33.3919 80.0148 33.4651 83.4382 29.523C83.9708 28.9114 84.0497 28.6041 83.6225 28.1446C83.1983 27.6881 83.4294 26.9564 83.9824 26.8189C84.5413 26.6813 85.9604 27.3281 85.9312 25.5839C85.9078 23.8397 84.4067 22.0048 82.932 22.8008C81.4573 23.5909 79.646 22.8856 79.8567 21.2409C79.9299 20.6643 79.3184 20.7785 78.4552 21.5335C77.5979 22.2886 76.4654 22.1569 75.9856 21.6009C75.5057 21.0448 75.0932 19.3445 78.3966 16.1984C79.0667 15.5634 77.2994 15.7653 76.1963 16.9184C75.0874 18.0744 74.8006 18.7065 74.5958 20.0322C74.391 21.3521 73.4692 21.4721 72.3544 20.3629C72.1437 20.1581 71.658 22.6896 72.5416 23.986C73.4282 25.2883 74.3704 26.415 75.5994 26.336C76.8283 26.2511 76.1495 25.0834 76.9542 24.4337C77.753 23.7753 78.5429 23.7138 79.1779 24.381C79.8128 25.0483 80.3951 26.3535 78.9789 27.6617C77.5686 28.9699 74.8825 29.7952 72.4013 27.4393C69.2968 24.4894 68.5214 19.9913 72.5388 15.5605C75.5731 12.2096 82.3292 11.8116 86.2559 15.6453C90.1827 19.4791 91.593 26.9799 84.4272 32.1072C83.049 33.0905 83.6284 33.2632 84.948 32.4496C86.2677 31.636 88.5324 30.2195 90.367 28.888C92.2016 27.5564 96.1342 25.8414 98.6711 27.729C101.214 29.6196 100.248 32.4964 99.8766 33.0437C99.505 33.591 101.287 34.106 102.495 33.9304C103.701 33.746 103.827 34.1821 104.02 34.4689C104.626 35.3557 115.815 35.2796 120.215 35.063C120.215 35.063 120.874 35.0279 120.994 35.3761C121.108 35.7185 119.639 35.6951 118.954 35.701C118.264 35.701 93.7904 35.8883 92.7868 35.8678C91.7832 35.8473 91.9529 35.6102 93.0151 35.2327C94.0713 34.8552 94.6214 34.3079 94.2732 33.5002C93.925 32.6924 94.2615 31.1443 95.4115 30.7902C96.5614 30.4419 97.7845 31.1677 97.7991 32.0749C97.8225 32.9792 96.0055 32.4993 96.1986 33.1139C96.3859 33.7314 97.5358 33.3539 98.0625 32.9939C98.595 32.6281 100.228 30.8956 98.7266 29.4967C97.2285 28.092 94.68 28.4607 93.7261 29.8332C92.7664 31.2058 92.5615 32.8564 91.0224 33.2807C89.4833 33.7051 89.1937 31.8642 86.4052 33.2017C83.6225 34.5333 75.5643 37.5798 68.0093 30.4186C61.4872 24.2406 61.7914 14.4601 62.5405 9.70446C63.2135 5.42877 63.0028 0.690665 62.8448 0C62.836 0.00585309 64.1001 1.2701 63.5178 6.25401Z" fill="url(#paint0_linear_56_377)"/>
<path d="M58.3854 0.00588989C58.2303 0.696558 58.0196 5.4346 58.6926 9.7103C59.4358 14.466 59.743 24.2465 53.2297 30.4245C45.6689 37.5858 37.6106 34.5393 34.828 33.2077C32.0453 31.8703 31.7469 33.711 30.2107 33.2867C28.6746 32.8623 28.4668 31.2118 27.507 29.8393C26.5473 28.4667 24.0046 28.095 22.5065 29.5026C21.0025 30.9045 22.6381 32.6341 23.1648 32.9999C23.6973 33.3599 24.8444 33.7374 25.0345 33.1199C25.2277 32.5024 23.4107 32.9824 23.4282 32.081C23.4458 31.1708 24.6747 30.445 25.8217 30.7962C26.9716 31.1503 27.3081 32.6985 26.9599 33.5062C26.6117 34.3139 27.1589 34.8612 28.2181 35.2388C29.2802 35.6163 29.4529 35.8504 28.4463 35.8738C27.4398 35.8972 2.96941 35.707 2.27887 35.707C1.58833 35.7012 0.125343 35.7245 0.23946 35.3821C0.359425 35.0338 1.01775 35.069 1.01775 35.069C5.41849 35.2855 16.6017 35.3616 17.2133 34.4749C17.4064 34.1881 17.5322 33.755 18.7377 33.9364C19.9433 34.1149 21.7253 33.5998 21.3566 33.0496C20.9879 32.4995 20.0252 29.6256 22.5621 27.7351C25.0989 25.8474 29.0315 27.5624 30.8661 28.894C32.7008 30.2256 34.9684 31.642 36.2851 32.4555C37.6047 33.2662 38.1812 33.0964 36.806 32.1131C29.6343 26.9858 31.0505 19.4879 34.9772 15.6512C38.9039 11.8145 45.6571 12.2155 48.6943 15.5664C52.7118 19.9972 51.9334 24.4954 48.8319 27.4453C46.3506 29.8012 43.6645 28.9759 42.2542 27.6677C40.838 26.3596 41.4203 25.0543 42.0553 24.3871C42.6902 23.7198 43.4772 23.7813 44.279 24.4397C45.0836 25.0924 44.4048 26.2571 45.6338 26.342C46.8627 26.421 47.8049 25.2972 48.6915 23.9919C49.5781 22.6955 49.0923 20.161 48.8787 20.3688C47.7581 21.478 46.8451 21.3581 46.6373 20.0382C46.4325 18.7125 46.1458 18.0774 45.0368 16.9244C43.9337 15.7684 42.1694 15.5694 42.8365 16.2044C46.14 19.3475 45.7274 21.0507 45.2476 21.6068C44.7677 22.1628 43.6352 22.2917 42.7779 21.5395C41.9147 20.7845 41.3033 20.6703 41.3764 21.2469C41.5871 22.8945 39.7758 23.5969 38.3011 22.8067C36.8264 22.0136 35.3224 23.8457 35.302 25.5899C35.2727 27.3341 36.6977 26.6873 37.2507 26.8249C37.8038 26.9624 38.0349 27.6941 37.6106 28.1506C37.1834 28.6072 37.2624 28.9173 37.7949 29.529C41.2183 33.474 45.6747 33.398 47.0587 33.0204C51.7228 31.7445 54.5581 28.1857 56.8756 23.4359C59.7723 17.5037 58.1952 10.3747 57.7153 6.25993C57.1272 1.27014 58.3854 0.00588989 58.3854 0.00588989Z" fill="url(#paint1_linear_56_377)"/>
<defs>
<linearGradient id="paint0_linear_56_377" x1="119.265" y1="4.30432" x2="58.1011" y2="21.1249" gradientUnits="userSpaceOnUse">
<stop stop-color="#FCB633"/>
<stop offset="0.203125" stop-color="#D1A045"/>
<stop offset="0.244792" stop-color="#C9932F"/>
<stop offset="0.604167" stop-color="#FFCA66"/>
<stop offset="0.677083" stop-color="#FCB126"/>
<stop offset="1" stop-color="#815400"/>
</linearGradient>
<linearGradient id="paint1_linear_56_377" x1="57.3393" y1="4.31027" x2="-3.82205" y2="21.1291" gradientUnits="userSpaceOnUse">
<stop stop-color="#FCB633"/>
<stop offset="0.203125" stop-color="#D1A045"/>
<stop offset="0.244792" stop-color="#C9932F"/>
<stop offset="0.604167" stop-color="#FFCA66"/>
<stop offset="0.677083" stop-color="#FCB126"/>
<stop offset="1" stop-color="#815400"/>
</linearGradient>
</defs>
</svg>
