<svg width="322" height="212" viewBox="0 0 322 212" fill="none" xmlns="http://www.w3.org/2000/svg">
<path d="M72.15 58C69.75 60.55 68.55 63.7 68.55 67.15C68.55 75.1 74.85 82.15 85.8 82.15C91.95 82.15 96.9 79.9 100.95 75.4C105 70.75 107.1 65.65 107.1 59.95C106.95 53.8 104.1 48.4 98.25 43.9C92.55 39.4 84.9 37.15 75.15 37.15C66 37.15 57.45 39.25 49.2 43.6C40.95 47.8 34.2 53.2 28.65 59.65C17.85 72.7 10.95 88.6 10.95 102.25C10.95 112.6 14.25 121.45 21 129.1C27.75 136.75 36.75 140.5 48.15 140.5C57.15 140.5 65.1 138.4 72.15 134.05C73.2 133.3 74.55 133 73.5 134.8L69 144.7C62.25 160.15 51.75 169 41.1 169C33.9 169 30.15 166.15 29.7 160.45C29.25 155.8 33 151.6 37.65 151.6C43.95 151.6 43.8 143.95 37.8 143.95C33 143.95 29.1 145.75 25.95 149.2C22.95 152.8 21.45 156.55 21.45 160.45C21.45 169.6 28.05 176.8 41.1 176.8C55.65 176.8 67.65 166.45 76.95 145.9L97.8 99.85C98.25 99.1 98.4 98.35 98.4 97.75C98.7 95.65 97.8 94.45 95.85 94.15C93.6 93.85 91.65 95.05 90.3 97.9L87.3 104.2C84.3 110.35 80.55 116.05 74.1 122.2C67.95 128.35 58.5 132.55 48.15 132.55C39 132.55 31.95 129.55 26.7 123.7C21.45 117.7 18.9 110.5 18.9 102.25C18.9 90.25 25.05 76.15 34.65 64.75C44.25 53.35 59.55 44.95 75.3 44.95C89.85 44.95 99.15 51.85 99.15 60.1C99.15 67.75 93.45 74.35 85.8 74.35C79.35 74.2 76.35 71.2 76.2 67.15C76.2 65.8 76.65 64.3 77.7 62.8C79.5 60.25 79.5 58.3 77.55 56.95C75.75 55.6 73.95 56.05 72.15 58ZM133.76 140.8C138.11 140.8 142.01 139 145.46 135.4C148.91 131.8 151.61 128.05 153.26 124C154.16 121.6 153.41 119.95 151.16 119.2C148.91 118.3 147.26 118.9 146.06 121.15C144.41 124.15 144.41 124.6 142.01 128.05C139.61 131.5 136.91 133 133.76 133C130.91 133 129.41 131.8 129.41 129.55C129.41 128.05 129.86 126.25 130.91 124.15L147.56 87.4C147.71 86.8 147.86 86.2 147.86 85.75C147.86 83.8 146.96 82.75 145.01 82.45C142.76 82.3 141.11 83.35 140.21 85.75C138.86 82.75 134.66 80.95 130.61 80.95C122.96 80.95 116.51 86.35 111.26 97.3L100.01 121C98.6602 124 97.9102 126.85 97.9102 129.4C97.9102 136.75 102.86 140.8 111.11 140.8C115.46 140.8 119.36 139 122.66 135.55C124.61 139 128.21 140.8 133.76 140.8ZM122.51 122.8C120.26 127.75 116.06 133 111.11 133C106.16 133 105.11 128.2 107.36 124.45L118.16 101.35C119.96 97.75 119.96 97.6 122.21 94C124.61 90.4 127.46 88.75 130.61 88.75C136.31 88.75 136.31 93.7 134.36 97.6L122.51 122.8ZM185.906 53.8C189.056 47.35 181.106 45.25 178.556 50.65L146.156 120.85C144.656 124 143.906 127 143.906 129.55C143.906 137.05 148.106 140.8 156.356 140.8C160.706 140.8 164.606 139 168.056 135.4C171.506 131.8 174.206 128.05 175.856 124C176.756 121.6 176.006 119.95 173.756 119.2C171.506 118.3 169.856 118.9 168.656 121.15C167.006 124.15 167.006 124.6 164.606 128.05C162.206 131.5 159.506 133 156.356 133C150.656 133 152.006 127.75 153.506 124.15L185.906 53.8ZM208.611 53.8C211.761 47.35 203.811 45.25 201.261 50.65L168.861 120.85C167.361 124 166.611 127 166.611 129.55C166.611 137.05 170.811 140.8 179.061 140.8C183.411 140.8 187.311 139 190.761 135.4C194.211 131.8 196.911 128.05 198.561 124C199.461 121.6 198.711 119.95 196.461 119.2C194.211 118.3 192.561 118.9 191.361 121.15C189.711 124.15 189.711 124.6 187.311 128.05C184.911 131.5 182.211 133 179.061 133C173.361 133 174.711 127.75 176.211 124.15L208.611 53.8ZM190.816 126.25C190.066 140.05 207.316 145.9 221.866 135.7C236.716 125.35 247.066 104.8 253.216 87.1C254.416 83.65 254.416 83.65 256.666 85.6C259.366 88.3 259.966 91.6 258.316 95.65L247.066 120.85C245.566 123.85 244.816 126.7 244.816 129.55C244.816 137.05 249.016 140.8 257.266 140.8C261.616 140.8 265.516 139 268.966 135.4C272.416 131.8 275.116 128.05 276.766 124C277.666 121.6 276.916 119.95 274.666 119.2C272.416 118.3 270.766 118.9 269.566 121.15C267.916 124.15 267.916 124.6 265.516 128.05C263.116 131.5 260.416 133 257.266 133C251.566 133 252.916 127.75 254.416 124.15L266.716 96.55C269.866 86.95 265.216 81.1 256.366 75.7C256.966 71.95 257.266 69.4 257.266 68.35C257.266 59.2 252.166 51.1 243.316 51.1C237.166 51.1 232.066 55.6 232.066 62.65C232.066 67 233.566 70.45 237.166 73.45C240.766 76.3 242.566 77.2 247.516 79.75C244.516 90.55 239.116 103 232.066 113.95C225.016 124.9 215.566 133 207.166 133C201.916 132.85 199.366 130.3 199.366 125.5C199.366 123.7 200.116 120.7 201.766 116.65C202.516 114.85 203.866 114.25 205.816 114.85C207.766 115.3 209.266 115.45 210.166 115.45C219.766 115.45 226.816 109.45 231.316 97.6C232.066 95.5 232.516 93.4 232.516 91.15C232.516 84.7 228.316 80.95 220.966 80.95C213.616 80.95 207.316 86.35 202.216 97.3L194.116 114.4C191.866 119.05 190.816 123.1 190.816 126.25ZM222.616 96.85C219.766 103.75 215.866 107.2 211.216 107.2C208.216 107.2 207.166 105.85 208.216 103.3L210.166 98.95C213.316 91.6 216.916 88.15 220.966 88.75C224.116 89.2 224.716 91.9 222.616 96.85ZM240.166 62.5C240.166 60.25 241.666 58.9 243.316 58.9C247.366 58.9 249.466 63.4 249.466 68.65C249.466 71.05 249.316 71.35 247.516 70.6C242.566 67.75 240.166 65.2 240.166 62.65V62.5ZM269.789 121C268.289 123.85 267.539 126.7 267.539 129.4C267.539 136.75 272.489 140.8 280.739 140.8C281.639 140.8 282.839 140.65 284.189 140.5L283.289 142.6C276.539 158.8 265.889 168.7 255.539 168.7C247.589 168.7 243.989 164.95 243.989 160.15C243.989 156.1 247.139 151.9 252.089 151.45C257.489 151.45 257.789 143.65 252.089 143.65C247.289 143.8 243.389 145.6 240.389 149.05C237.389 152.5 235.889 156.25 235.889 160.15C235.889 169.3 242.489 176.5 255.539 176.5C270.089 176.5 281.939 165.55 291.389 143.8L317.189 87.4C319.739 81.55 312.089 79.3 309.839 84.4L293.189 121.15V121C289.139 128.95 285.089 133 280.739 133C277.289 133 275.639 131.8 275.639 129.4C275.639 128.35 276.089 126.7 276.989 124.45L293.939 87.4C296.489 81.55 288.839 79.3 286.589 84.4L269.789 121.15V121ZM300.989 140.8C305.339 140.8 309.239 139 312.689 135.4C316.139 131.8 318.839 128.05 320.489 124C321.389 121.6 320.639 119.95 318.389 119.2C316.139 118.3 314.489 118.9 313.289 121.15C311.639 124.15 311.639 124.6 309.239 128.05C306.839 131.5 304.139 133 300.989 133C295.889 133 295.889 140.8 300.989 140.8Z" fill="url(#paint0_linear_61_648)"/>
<path d="M158.594 173L151.812 155.281H151.703C151.831 156.685 151.895 158.353 151.895 160.285V173H149.748V153.012H153.248L159.578 169.5H159.688L166.072 153.012H169.545V173H167.221V160.121C167.221 158.645 167.285 157.04 167.412 155.309H167.303L160.467 173H158.594ZM181.029 173.273C178.814 173.273 177.064 172.599 175.779 171.25C174.503 169.901 173.865 168.028 173.865 165.631C173.865 163.215 174.458 161.297 175.643 159.875C176.837 158.453 178.436 157.742 180.441 157.742C182.319 157.742 183.805 158.362 184.898 159.602C185.992 160.832 186.539 162.459 186.539 164.482V165.918H176.217C176.262 167.677 176.704 169.012 177.543 169.924C178.391 170.835 179.58 171.291 181.111 171.291C182.725 171.291 184.32 170.954 185.896 170.279V172.303C185.094 172.649 184.333 172.895 183.613 173.041C182.902 173.196 182.041 173.273 181.029 173.273ZM180.414 159.643C179.211 159.643 178.249 160.035 177.529 160.818C176.818 161.602 176.399 162.687 176.271 164.072H184.105C184.105 162.641 183.786 161.548 183.148 160.791C182.51 160.025 181.599 159.643 180.414 159.643ZM200.621 170.99H200.498C199.45 172.512 197.882 173.273 195.795 173.273C193.835 173.273 192.309 172.604 191.215 171.264C190.13 169.924 189.588 168.019 189.588 165.549C189.588 163.079 190.135 161.16 191.229 159.793C192.322 158.426 193.844 157.742 195.795 157.742C197.827 157.742 199.386 158.48 200.471 159.957H200.648L200.553 158.877L200.498 157.824V151.727H202.768V173H200.922L200.621 170.99ZM196.082 171.373C197.632 171.373 198.753 170.954 199.445 170.115C200.147 169.268 200.498 167.905 200.498 166.027V165.549C200.498 163.425 200.143 161.912 199.432 161.01C198.73 160.098 197.604 159.643 196.055 159.643C194.724 159.643 193.703 160.162 192.992 161.201C192.29 162.231 191.939 163.689 191.939 165.576C191.939 167.49 192.29 168.935 192.992 169.91C193.694 170.885 194.724 171.373 196.082 171.373ZM209.863 173H207.594V158.016H209.863V173ZM207.402 153.955C207.402 153.436 207.53 153.057 207.785 152.82C208.04 152.574 208.359 152.451 208.742 152.451C209.107 152.451 209.421 152.574 209.686 152.82C209.95 153.066 210.082 153.445 210.082 153.955C210.082 154.465 209.95 154.848 209.686 155.104C209.421 155.35 209.107 155.473 208.742 155.473C208.359 155.473 208.04 155.35 207.785 155.104C207.53 154.848 207.402 154.465 207.402 153.955ZM223.891 173L223.439 170.867H223.33C222.583 171.806 221.835 172.444 221.088 172.781C220.35 173.109 219.424 173.273 218.312 173.273C216.827 173.273 215.66 172.891 214.812 172.125C213.974 171.359 213.555 170.27 213.555 168.857C213.555 165.831 215.975 164.245 220.814 164.1L223.357 164.018V163.088C223.357 161.912 223.102 161.046 222.592 160.49C222.09 159.925 221.284 159.643 220.172 159.643C218.923 159.643 217.51 160.025 215.934 160.791L215.236 159.055C215.975 158.654 216.781 158.339 217.656 158.111C218.54 157.883 219.424 157.77 220.309 157.77C222.095 157.77 223.417 158.166 224.273 158.959C225.139 159.752 225.572 161.023 225.572 162.773V173H223.891ZM218.764 171.4C220.176 171.4 221.284 171.013 222.086 170.238C222.897 169.464 223.303 168.379 223.303 166.984V165.631L221.033 165.727C219.229 165.79 217.925 166.073 217.123 166.574C216.33 167.066 215.934 167.837 215.934 168.885C215.934 169.705 216.18 170.329 216.672 170.758C217.173 171.186 217.87 171.4 218.764 171.4Z" fill="white"/>
<defs>
<linearGradient id="paint0_linear_61_648" x1="9.28747" y1="25.44" x2="340.895" y2="108.037" gradientUnits="userSpaceOnUse">
<stop stop-color="#FCB633"/>
<stop offset="0.203125" stop-color="#D1A045"/>
<stop offset="0.244792" stop-color="#C9932F"/>
<stop offset="0.604167" stop-color="#FFCA66"/>
<stop offset="0.677083" stop-color="#FCB126"/>
<stop offset="1" stop-color="#815400"/>
</linearGradient>
</defs>
</svg>
