<svg width="82" height="106" viewBox="0 0 82 106" fill="none" xmlns="http://www.w3.org/2000/svg">
<mask id="mask0_56_406" style="mask-type:alpha" maskUnits="userSpaceOnUse" x="0" y="0" width="82" height="106">
<rect width="82" height="106" rx="10" fill="#232D48"/>
</mask>
<g mask="url(#mask0_56_406)">
<path d="M24.0272 59.6518C24.0272 59.6518 24.1548 59.6156 24.4002 59.5414C24.6499 59.4888 25.0071 59.3646 25.5021 59.0845C26.4402 58.5642 27.6559 57.38 28.3004 55.4363C28.9205 53.5404 29.1807 50.9146 27.8663 48.1837C27.5008 47.511 27.1115 46.8598 26.4579 46.2248C26.1047 45.7966 25.0962 45.0778 24.3761 44.7812C22.7828 44.0272 21.0064 43.8476 19.2597 43.9053C17.5013 43.9896 15.7596 44.3791 14.0115 44.9364C13.5804 45.0937 13.1353 45.2276 12.7083 45.4252L12.0606 45.7091L11.7375 45.8639L11.5751 45.9425L11.3803 46.046L11.3103 46.0897C10.5571 46.57 9.811 46.9049 8.952 47.7238C8.06289 48.427 7.48789 49.2445 6.81866 50.0487C6.28444 50.9312 5.72289 51.8078 5.35428 52.7719C4.51862 54.6558 4.01789 56.6743 3.79995 58.7234C3.53522 60.7723 3.5763 62.8548 3.73514 64.9273C3.90259 67.0057 4.21473 69.0876 4.78222 71.1363C5.02021 72.1705 5.39618 73.1739 5.77396 74.1771C5.99575 74.689 6.15876 75.1396 6.4336 75.7028L7.20871 77.0732C8.35925 78.9666 9.98863 80.6597 11.9258 81.8326C15.8579 84.1968 20.6676 84.6615 24.9753 83.9379C29.3146 83.2418 33.4346 81.6069 36.9306 79.2976C40.5994 76.7432 43.109 73.4358 44.8841 69.9973C46.6293 66.5591 47.6632 63.0507 48.1184 59.7584C48.3721 58.1118 48.4162 56.5119 48.4217 55.0018C48.4076 54.2229 48.3618 53.5494 48.292 52.744C48.1936 52.0695 48.0963 51.4097 48.0035 50.7734C47.8475 49.5081 47.5818 48.2848 47.3406 47.1671C47.1203 46.0415 46.8839 45.035 46.6166 44.1468C45.6469 40.55 44.9767 38.5401 44.9767 38.5401L44.6164 38.6107C44.6164 38.6107 44.6625 39.1421 44.7498 40.1329C44.8473 41.1179 44.9921 42.5649 45.176 44.4026C45.2647 45.3239 45.3743 46.3328 45.4476 47.4142C45.5385 48.4997 45.6432 49.6554 45.635 50.9604C45.6453 51.6053 45.6576 52.2704 45.6699 52.9543C45.6353 53.5894 45.6005 54.2432 45.5629 54.9106C45.4327 56.2806 45.2515 57.7148 44.8966 59.1792C44.2798 62.1236 43.1199 65.1985 41.5101 68.1914C40.6509 69.6592 39.6918 71.1035 38.5947 72.4832C37.4585 73.8351 36.1724 75.0611 34.8178 76.1378C31.8153 78.3318 28.2156 79.9209 24.3916 80.7461C22.4835 81.1739 20.5166 81.3776 18.5678 81.3009C16.6243 81.2326 14.652 80.9025 12.8809 80.0618C11.1069 79.2067 9.58804 77.9445 8.37897 76.3636L7.52701 75.04C7.32552 74.67 7.08756 74.1518 6.86943 73.7158C6.47986 72.7767 6.11051 71.8262 5.86081 70.8372C5.32282 68.8819 5.0259 66.8588 5.04598 64.869C5.002 62.8768 5.27395 60.9125 5.74479 59.0757C6.58821 55.397 8.54849 52.0924 10.9256 50.2676C11.3835 49.8171 12.2523 49.3441 12.996 48.9012L13.4284 48.7025L13.979 48.4676C14.3507 48.3219 14.7188 48.1768 15.0844 48.0286C16.5678 47.5045 18.0643 47.1237 19.4704 47.0167C20.865 46.8896 22.2092 46.9444 23.2665 47.3769C23.5309 47.486 23.8001 47.5904 23.9724 47.7062C24.0772 47.7736 24.165 47.7826 24.2971 47.8839L24.7007 48.2069C25.0671 48.483 25.4341 48.944 25.7272 49.371C26.8819 51.2187 27.0578 53.4169 26.7948 55.0448C26.5349 56.7169 25.7547 57.8813 25.0827 58.4803C24.7748 58.7893 24.4561 59.005 24.218 59.117C23.9968 59.2482 23.8806 59.314 23.8806 59.314L24.0272 59.6518Z" fill="url(#paint0_linear_56_406)"/>
<path d="M33.6031 3.20719C33.6031 3.20719 33.4475 3.1385 33.1489 3.00808C32.8183 2.88582 32.4712 2.65085 32.1893 2.21423C31.4715 1.44222 31.9075 -0.677585 33.6791 -1.50681C34.537 -1.90102 35.5983 -1.83953 36.6403 -1.29366C36.8956 -1.13607 37.1537 -0.97344 37.4194 -0.810409C37.6618 -0.594208 37.9107 -0.373647 38.1625 -0.148052L38.3533 0.0146664C38.3067 -0.0229519 38.4519 0.126311 38.492 0.178299L38.8825 0.616066C39.1782 0.922817 39.2549 1.17145 39.4619 1.44509C40.9127 3.83134 41.1857 7.46166 40.0409 10.9002C39.4805 12.6423 38.6347 14.2833 37.2361 15.6229C36.4694 16.4929 35.7449 16.9956 35.0112 17.6329C34.1573 18.1909 33.3028 18.7751 32.341 19.2214C30.4527 20.1614 28.3394 20.8594 26.0882 21.2159C23.8339 21.5375 21.4532 21.5098 19.0869 21.0774C16.7273 20.6417 14.3507 19.8129 12.2593 18.4253L10.7474 17.3039C10.283 16.8806 9.84431 16.426 9.38754 15.9844C8.59688 15.0695 7.76024 13.958 6.97549 12.9205C6.19156 11.8585 5.68095 10.6832 5.02287 9.56666C4.3893 8.44157 4.06241 7.14423 3.56667 5.9398C2.80199 3.43794 2.3685 0.841303 2.19534 -1.77262C2.06861 -4.38815 2.19567 -7.0066 2.51915 -9.59619C2.82175 -12.1873 3.28334 -14.7497 3.90168 -17.2661C5.0844 -22.3071 6.70343 -27.1829 8.47167 -31.8411C10.2843 -36.5211 12.0358 -41.0451 13.6988 -45.333C15.3428 -49.6322 16.861 -53.8955 17.5654 -58.0649C17.8656 -60.1619 18.0609 -62.2122 17.8584 -64.1921C17.8126 -64.6843 17.7678 -65.171 17.7241 -65.6524C17.6018 -66.2866 17.5069 -66.571 17.3986 -67.0379C17.3268 -67.4333 17.1388 -67.9257 16.9374 -68.4005C16.7493 -68.8742 16.569 -69.3363 16.2687 -69.7338C15.9903 -70.143 15.7656 -70.5553 15.3624 -70.8859C15.005 -71.2404 14.6456 -71.5665 14.1681 -71.7703C13.3078 -72.2956 12.2468 -72.3366 11.3726 -72.1973C9.57528 -71.8342 8.45438 -70.6144 7.81661 -69.4967C7.44864 -68.9497 7.28668 -68.3439 7.08007 -67.8229C6.98021 -67.2629 6.80858 -66.7544 6.80117 -66.2667C6.79195 -65.7787 6.74295 -65.3316 6.77944 -64.9255C6.83323 -64.5265 6.88428 -64.1606 6.92721 -63.8362C7.03075 -63.1926 7.25023 -62.7307 7.3299 -62.4097C7.43118 -62.0929 7.48307 -61.9329 7.48307 -61.9329L7.83411 -62.0409C7.83411 -62.0409 7.81138 -62.2048 7.76735 -62.5253C7.74454 -62.8424 7.61255 -63.3065 7.62081 -63.914C7.57958 -65.0896 7.70199 -67.0152 9.02699 -68.6733C9.64873 -69.4813 10.6111 -70.24 11.6639 -70.3078C12.697 -70.3903 13.6371 -69.7628 14.2077 -68.5487C14.714 -67.4529 15.0705 -65.7369 14.9995 -64.055C15.0573 -62.3647 14.7399 -60.5561 14.3507 -58.6941C13.5037 -54.9381 11.8677 -51.0088 10.1327 -46.7255C8.36582 -42.4902 6.53899 -37.9402 4.89141 -33.1243C3.26541 -28.3032 1.72513 -23.2352 0.734224 -17.9214C0.251378 -15.2669 -0.0711863 -12.5485 -0.221419 -9.80956C-0.315891 -7.06284 -0.190877 -4.29364 0.195627 -1.5644C0.95454 3.90804 3.00992 9.14351 6.08755 13.6011C6.93312 14.6435 7.6275 15.6876 8.53015 16.7637C9.00584 17.2447 9.46597 17.7417 9.95504 18.2051L11.5044 19.4987C13.6745 21.0785 16.095 22.2745 18.6275 23.0017C23.6747 24.4502 29.1624 24.2417 33.7253 22.1275C34.8895 21.6546 35.9148 20.9397 36.9462 20.2853C37.9344 19.486 38.987 18.6628 39.6267 17.8607C41.3318 16.1282 42.4259 13.902 43.0263 11.8005C44.1975 7.56025 43.7319 3.13733 41.4804 0.062601C41.18 -0.306791 40.8568 -0.772701 40.576 -1.01317L40.1504 -1.41977L39.8836 -1.67422L39.6202 -1.86387C39.2685 -2.1129 38.9243 -2.3522 38.5862 -2.58894C38.2014 -2.77728 37.8246 -2.95409 37.4545 -3.1341C35.9244 -3.7658 34.1063 -3.68107 32.9208 -2.84875C30.5384 -1.23239 30.4473 1.65583 31.6176 2.67584C32.1258 3.20839 32.7211 3.40223 33.001 3.44655C33.32 3.51874 33.4843 3.55577 33.4843 3.55577L33.6031 3.20719Z" fill="url(#paint1_linear_56_406)"/>
<path d="M33.2941 22.1484C33.2941 22.1484 33.2975 22.3665 33.3052 22.7783C33.3137 22.9842 33.3202 23.2278 33.3593 23.5231C33.4398 23.829 33.5694 24.1757 33.7174 24.588C33.8502 25.037 34.0979 25.3756 34.3441 25.8024C34.4718 26.0148 34.6069 26.2371 34.7464 26.4623C34.9129 26.6634 35.0874 26.8667 35.2651 27.0769C35.9622 27.9633 36.9099 28.7819 37.998 29.5731C38.5562 29.95 39.1391 30.3389 39.7781 30.67C40.403 31.0339 41.0791 31.3541 41.8085 31.5834C43.2375 32.1284 44.8712 32.3246 46.5165 32.4364C47.3336 32.5214 48.184 32.4708 49.0065 32.5548C49.8512 32.5035 50.6826 32.6138 51.5388 32.5734C53.2424 32.5914 55.0011 32.4135 56.8135 31.8886L58.1498 31.339C58.6698 31.0147 58.885 30.9577 59.3444 30.591C60.2272 29.9133 60.8341 29.1344 61.3319 28.1712C62.307 26.2637 62.2419 23.8007 61.2488 21.9568C60.775 21.0267 60.1236 20.2118 59.3695 19.6077C59.0055 19.2769 58.5997 19.0385 58.208 18.786C58.0142 18.6557 57.8007 18.5778 57.5992 18.4752L57.2949 18.3346L57.1429 18.2653L57.0667 18.2297L56.8202 18.1359C56.353 17.9562 54.8335 17.7132 54.1491 17.8378C53.3144 17.9021 52.5679 18.0819 51.8655 18.2773C50.4831 18.7443 49.2955 19.3751 48.3736 20.2829C48.1486 20.5383 47.9303 20.7605 47.7449 21.0268C47.5798 21.3396 47.4013 21.584 47.3154 21.9187C47.104 22.5585 47.1745 23.2721 47.4321 23.7191C47.5666 23.9377 47.687 24.1516 47.8221 24.3065C47.972 24.4417 48.1177 24.5553 48.2522 24.6599C48.5115 24.8859 48.7584 24.9815 48.9589 25.0694C49.3488 25.2269 49.5565 25.3133 49.5565 25.3133L49.754 25.0036C49.754 25.0036 49.6291 24.8336 49.3942 24.5224C49.2818 24.3686 49.1198 24.2002 49.0391 23.9599C48.9881 23.852 48.9324 23.7395 48.8746 23.6162C48.8459 23.4984 48.8554 23.375 48.8353 23.263C48.8609 22.8297 49.1373 22.5793 49.8462 22.1881C50.5495 21.8541 51.5294 21.5669 52.591 21.4676C53.12 21.4182 53.6687 21.3837 54.1907 21.4424C54.8577 21.5343 54.7464 21.472 55.6298 21.8002L55.6463 21.8081C55.3067 21.6783 55.5576 21.7751 55.485 21.7481L55.5083 21.7622L55.5525 21.7873L55.643 21.8388L55.824 21.9417C55.941 22.0142 56.0798 22.0637 56.1813 22.1522C56.3998 22.3133 56.6516 22.4435 56.8384 22.6332C57.2736 22.965 57.6081 23.3745 57.9091 23.8036C58.4822 24.6769 58.6986 25.7826 58.3408 26.9073C58.1644 27.4392 57.8555 28.0869 57.5051 28.5426C57.3901 28.7764 56.9149 29.2059 56.777 29.39L55.9286 30.0816C54.6981 30.9133 53.1127 31.4799 51.5146 31.4561C49.9207 31.5306 48.3483 31.1223 46.9433 30.5278C45.5344 29.9228 44.253 29.2237 43.0468 28.6128C41.8384 28.0097 40.6579 27.5209 39.6528 26.9248C39.1179 26.6761 38.649 26.3827 38.1977 26.1026C37.7334 25.8326 37.3148 25.5668 36.9354 25.2914C36.5337 25.026 36.1809 24.7715 35.8818 24.5047C35.5751 24.2468 35.2417 24.0054 35.0511 23.7866C34.8267 23.5668 34.6263 23.3555 34.418 23.17C34.244 22.9404 34.1265 22.7128 34.0048 22.5497C33.7686 22.2126 33.6419 22.0336 33.6419 22.0336L33.2941 22.1484Z" fill="url(#paint2_linear_56_406)"/>
<path d="M26.0769 32.0786C26.0769 32.0786 25.7869 32.0587 25.2449 32.0226C24.978 31.987 24.6507 31.9969 24.1956 32.1177C23.973 32.1651 23.729 32.2278 23.4688 32.303C23.239 32.4284 22.9962 32.5639 22.7379 32.7061C21.7333 33.316 20.714 34.673 20.5823 36.4079C20.4054 38.1123 21.0056 40.1752 22.686 41.7087C23.5719 42.3936 24.6736 42.967 25.8598 43.1032C26.4558 43.2053 27.0565 43.2261 27.6311 43.1136L28.5113 42.9955C28.7863 42.9193 29.0588 42.8304 29.3263 42.7256L30.1357 42.4176L30.2359 42.3756L30.4032 42.3036L30.4429 42.2771L30.6024 42.1842L30.9225 41.9943C31.3002 41.7932 31.8782 41.2967 32.3681 40.8568C33.2221 39.9267 33.8572 38.8524 34.1921 37.6874C34.8564 35.3583 34.6662 32.9628 33.9173 30.7327C33.5097 29.6251 32.954 28.5539 32.205 27.5842C31.4775 26.6383 30.3518 25.789 29.4684 25.1841C27.5054 23.8218 25.1598 22.7214 22.5183 22.6514C21.2089 22.6309 19.884 22.8566 18.6501 23.2983C17.4164 23.7511 16.3319 24.4495 15.3684 25.2122C13.4689 26.7827 12.1486 28.6848 11.2288 30.559C10.2658 32.423 9.66639 34.2719 9.21156 35.9803C8.34286 39.4152 8.15882 42.3254 8.1573 44.3527C8.17161 46.3843 8.34072 47.5349 8.34072 47.5349L8.70525 47.5626C8.70525 47.5626 9.03297 46.4757 9.60452 44.5705C10.2119 42.6957 11.0411 40.0239 12.3159 37.02C12.934 35.5152 13.6943 33.9341 14.5901 32.3862C15.0443 31.611 15.5596 30.8706 16.0728 30.1194C16.6239 29.4094 17.2106 28.7093 17.8582 28.1001C19.1573 26.8734 20.7423 26.0564 22.5831 25.8961C24.4107 25.7833 26.497 26.1229 28.4824 26.9403C29.5947 27.3864 30.3825 27.7801 31.1861 28.5036C31.9135 29.2382 32.4882 30.1298 32.8629 31.1074C33.5779 33.0785 33.3775 35.3318 32.3936 36.9268C31.3877 38.5523 29.9477 39.298 28.393 39.6491C26.8619 40.0442 25.5737 39.9411 24.6402 39.2805C23.7005 38.6173 23.1505 37.4796 23.0266 36.4548C22.9103 35.4117 23.2221 34.5204 23.7326 33.8988C23.8707 33.7446 24.0009 33.5976 24.1239 33.4613C24.2714 33.3744 24.4097 33.2782 24.5436 33.1791C24.6808 33.0868 24.8007 32.9829 24.9353 32.906C25.0907 32.8494 25.232 32.7975 25.3593 32.7501C25.8647 32.552 26.1337 32.4452 26.1337 32.4452L26.0769 32.0786Z" fill="url(#paint3_linear_56_406)"/>
<path d="M36.4732 78.8507C42.4314 80.9025 35.2711 99.4327 48.3796 95.3427C45.7558 99.9103 38.9307 98.6565 35.8024 95.3252C31.9691 91.2399 33.4707 87.5315 33.4875 82.7355C34.1052 90.2664 26.4099 89.9272 22.51 93.8134C23.6568 87.6145 31.6104 82.471 34.5539 78.6" fill="url(#paint4_linear_56_406)"/>
<path d="M42.643 8.45545C45.2592 11.8739 49.5703 16.4416 54.2705 14.1882C54.2618 10.1789 48.7176 8.74168 45.459 9.14956C47.4664 8.72294 55.3542 6.18595 53.3849 2.59411C51.3581 -1.10055 45.7113 4.7825 44.3447 6.31409C46.2661 3.54634 48.0351 0.526081 46.577 -2.81429C41.8643 -2.17225 42.6919 4.62558 41.9255 7.97133" fill="url(#paint5_linear_56_406)"/>
</g>
<defs>
<linearGradient id="paint0_linear_56_406" x1="47.7681" y1="78.2706" x2="32.7791" y2="35.786" gradientUnits="userSpaceOnUse">
<stop stop-color="#FCB633"/>
<stop offset="0.203125" stop-color="#D1A045"/>
<stop offset="0.244792" stop-color="#C9932F"/>
<stop offset="0.604167" stop-color="#FFCA66"/>
<stop offset="0.677083" stop-color="#FCB126"/>
<stop offset="1" stop-color="#815400"/>
</linearGradient>
<linearGradient id="paint1_linear_56_406" x1="41.0355" y1="18.3197" x2="-13.615" y2="-66.9256" gradientUnits="userSpaceOnUse">
<stop stop-color="#FCB633"/>
<stop offset="0.203125" stop-color="#D1A045"/>
<stop offset="0.244792" stop-color="#C9932F"/>
<stop offset="0.604167" stop-color="#FFCA66"/>
<stop offset="0.677083" stop-color="#FCB126"/>
<stop offset="1" stop-color="#815400"/>
</linearGradient>
<linearGradient id="paint2_linear_56_406" x1="59.8748" y1="30.923" x2="55.4391" y2="15.4755" gradientUnits="userSpaceOnUse">
<stop stop-color="#FCB633"/>
<stop offset="0.203125" stop-color="#D1A045"/>
<stop offset="0.244792" stop-color="#C9932F"/>
<stop offset="0.604167" stop-color="#FFCA66"/>
<stop offset="0.677083" stop-color="#FCB126"/>
<stop offset="1" stop-color="#815400"/>
</linearGradient>
<linearGradient id="paint3_linear_56_406" x1="32.8003" y1="42.1842" x2="25.0622" y2="19.0201" gradientUnits="userSpaceOnUse">
<stop stop-color="#FCB633"/>
<stop offset="0.203125" stop-color="#D1A045"/>
<stop offset="0.244792" stop-color="#C9932F"/>
<stop offset="0.604167" stop-color="#FFCA66"/>
<stop offset="0.677083" stop-color="#FCB126"/>
<stop offset="1" stop-color="#815400"/>
</linearGradient>
<linearGradient id="paint4_linear_56_406" x1="45.69" y1="97.2778" x2="38.0511" y2="75.2127" gradientUnits="userSpaceOnUse">
<stop stop-color="#FCB633"/>
<stop offset="0.203125" stop-color="#D1A045"/>
<stop offset="0.244792" stop-color="#C9932F"/>
<stop offset="0.604167" stop-color="#FFCA66"/>
<stop offset="0.677083" stop-color="#FCB126"/>
<stop offset="1" stop-color="#815400"/>
</linearGradient>
<linearGradient id="paint5_linear_56_406" x1="54.202" y1="13.856" x2="45.7698" y2="-4.21105" gradientUnits="userSpaceOnUse">
<stop stop-color="#FCB633"/>
<stop offset="0.203125" stop-color="#D1A045"/>
<stop offset="0.244792" stop-color="#C9932F"/>
<stop offset="0.604167" stop-color="#FFCA66"/>
<stop offset="0.677083" stop-color="#FCB126"/>
<stop offset="1" stop-color="#815400"/>
</linearGradient>
</defs>
</svg>
