<svg width="30" height="30" viewBox="0 0 30 30" fill="none" xmlns="http://www.w3.org/2000/svg">
<path d="M6.87492 18.75C7.96824 18.7468 9.0202 18.3317 9.82117 17.5875L17.6462 22.0588C17.384 23.0833 17.4996 24.1679 17.9717 25.1142C18.4439 26.0604 19.2411 26.805 20.2174 27.2115C21.1936 27.618 22.2837 27.6594 23.2879 27.3279C24.2921 26.9964 25.1434 26.3144 25.6858 25.4066C26.2283 24.4988 26.4257 23.426 26.2418 22.3846C26.0579 21.3432 25.5051 20.4028 24.6846 19.7357C23.8641 19.0685 22.8307 18.7192 21.7737 18.7517C20.7167 18.7842 19.7067 19.1963 18.9287 19.9125L11.1037 15.4413C11.1862 15.1288 11.2312 14.805 11.2387 14.4813L18.9262 10.0875C19.6664 10.761 20.6157 11.1594 21.6149 11.2159C22.614 11.2724 23.6022 10.9836 24.4136 10.3979C25.2251 9.81221 25.8104 8.96527 26.0714 7.99917C26.3325 7.03307 26.2533 6.00658 25.8472 5.09193C25.4411 4.17728 24.7329 3.43011 23.8412 2.97576C22.9495 2.52141 21.9288 2.38754 20.9501 2.59659C19.9714 2.80565 19.0944 3.34491 18.4662 4.12392C17.838 4.90293 17.4968 5.87428 17.4999 6.87502C17.5049 7.23502 17.5537 7.59377 17.6462 7.94127L10.5412 12C10.1291 11.3626 9.55838 10.8433 8.88495 10.4932C8.21151 10.1431 7.45859 9.97427 6.70014 10.0032C5.9417 10.0321 5.20383 10.2579 4.55903 10.6583C3.91423 11.0587 3.38469 11.6199 3.02243 12.2869C2.66017 12.9538 2.47765 13.7036 2.49282 14.4624C2.50798 15.2213 2.7203 15.9631 3.10892 16.6151C3.49753 17.267 4.04907 17.8067 4.70935 18.181C5.36963 18.5553 6.11593 18.7514 6.87492 18.75V18.75Z" fill="white"/>
</svg>
