<svg width="101" height="158" viewBox="0 0 101 158" fill="none" xmlns="http://www.w3.org/2000/svg">
<g filter="url(#filter0_d_132_12)">
<path d="M79 132C63.8827 132 49.3845 125.995 38.6949 115.305C28.0053 104.616 22 90.1173 22 75C22 59.8827 28.0053 45.3845 38.6949 34.6949C49.3845 24.0053 63.8827 18 79 18V75L79 132Z" fill="url(#paint0_linear_132_12)"/>
</g>
<path d="M65 73.75C65.6904 73.75 66.25 74.3096 66.25 75C66.25 75.6904 65.6904 76.25 65 76.25V73.75ZM44.1161 75.8839C43.628 75.3957 43.628 74.6043 44.1161 74.1161L52.0711 66.1612C52.5592 65.673 53.3507 65.673 53.8388 66.1612C54.327 66.6493 54.327 67.4408 53.8388 67.9289L46.7678 75L53.8388 82.0711C54.327 82.5592 54.327 83.3507 53.8388 83.8388C53.3507 84.327 52.5592 84.327 52.0711 83.8388L44.1161 75.8839ZM65 76.25H45V73.75H65V76.25Z" fill="#121828"/>
<defs>
<filter id="filter0_d_132_12" x="0" y="0" width="101" height="158" filterUnits="userSpaceOnUse" color-interpolation-filters="sRGB">
<feFlood flood-opacity="0" result="BackgroundImageFix"/>
<feColorMatrix in="SourceAlpha" type="matrix" values="0 0 0 0 0 0 0 0 0 0 0 0 0 0 0 0 0 0 127 0" result="hardAlpha"/>
<feOffset dy="4"/>
<feGaussianBlur stdDeviation="11"/>
<feComposite in2="hardAlpha" operator="out"/>
<feColorMatrix type="matrix" values="0 0 0 0 0 0 0 0 0 0 0 0 0 0 0 0 0 0 0.69 0"/>
<feBlend mode="normal" in2="BackgroundImageFix" result="effect1_dropShadow_132_12"/>
<feBlend mode="normal" in="SourceGraphic" in2="effect1_dropShadow_132_12" result="shape"/>
</filter>
<linearGradient id="paint0_linear_132_12" x1="8" y1="14" x2="117.782" y2="32.1704" gradientUnits="userSpaceOnUse">
<stop stop-color="#FCB633"/>
<stop offset="0.203125" stop-color="#D1A045"/>
<stop offset="0.244792" stop-color="#C9932F"/>
<stop offset="0.604167" stop-color="#FFCA66"/>
<stop offset="0.677083" stop-color="#FCB126"/>
<stop offset="1" stop-color="#815400"/>
</linearGradient>
</defs>
</svg>
