<svg width="316" height="361" viewBox="0 0 316 361" fill="none" xmlns="http://www.w3.org/2000/svg">
<path d="M160.664 6.25401C160.184 10.3687 158.607 17.4979 161.504 23.43C163.824 28.1798 166.659 31.7413 171.32 33.0144C172.704 33.3919 177.161 33.4651 180.584 29.523C181.117 28.9114 181.196 28.6041 180.769 28.1446C180.344 27.6881 180.575 26.9564 181.128 26.8189C181.687 26.6813 183.106 27.3281 183.077 25.5839C183.054 23.8397 181.553 22.0048 180.078 22.8008C178.603 23.5909 176.792 22.8856 177.003 21.2409C177.076 20.6643 176.464 20.7785 175.601 21.5335C174.744 22.2886 173.611 22.1569 173.132 21.6009C172.652 21.0448 172.239 19.3445 175.543 16.1984C176.213 15.5634 174.445 15.7653 173.342 16.9184C172.233 18.0744 171.947 18.7065 171.742 20.0322C171.537 21.3521 170.615 21.4721 169.5 20.3629C169.29 20.1581 168.804 22.6896 169.688 23.986C170.574 25.2883 171.516 26.415 172.745 26.336C173.974 26.2511 173.296 25.0834 174.1 24.4337C174.899 23.7753 175.689 23.7138 176.324 24.381C176.959 25.0483 177.541 26.3535 176.125 27.6617C174.715 28.9699 172.029 29.7952 169.547 27.4393C166.443 24.4894 165.667 19.9913 169.685 15.5605C172.719 12.2096 179.475 11.8116 183.402 15.6453C187.329 19.4791 188.739 26.9799 181.573 32.1072C180.195 33.0905 180.774 33.2632 182.094 32.4496C183.414 31.636 185.678 30.2195 187.513 28.888C189.348 27.5564 193.28 25.8414 195.817 27.729C198.36 29.6196 197.394 32.4964 197.023 33.0437C196.651 33.591 198.433 34.106 199.641 33.9304C200.847 33.746 200.973 34.1821 201.166 34.4689C201.772 35.3557 212.961 35.2796 217.361 35.063C217.361 35.063 218.02 35.0279 218.14 35.3761C218.254 35.7185 216.785 35.6951 216.1 35.701C215.41 35.701 190.936 35.8883 189.933 35.8678C188.929 35.8473 189.099 35.6102 190.161 35.2327C191.217 34.8552 191.767 34.3079 191.419 33.5002C191.071 32.6924 191.408 31.1443 192.557 30.7902C193.707 30.4419 194.93 31.1677 194.945 32.0749C194.969 32.9792 193.151 32.4993 193.345 33.1139C193.532 33.7314 194.682 33.3539 195.208 32.9939C195.741 32.6281 197.374 30.8956 195.873 29.4967C194.375 28.092 191.826 28.4607 190.872 29.8332C189.912 31.2058 189.708 32.8564 188.168 33.2807C186.629 33.7051 186.34 31.8642 183.551 33.2017C180.769 34.5333 172.71 37.5798 165.155 30.4186C158.633 24.2406 158.937 14.4601 159.686 9.70446C160.359 5.42877 160.149 0.690665 159.991 0C159.982 0.00585309 161.246 1.2701 160.664 6.25401Z" fill="url(#paint0_linear_4_1216)"/>
<path d="M155.531 0.00592041C155.376 0.696589 155.165 5.43463 155.838 9.71033C156.582 14.466 156.889 24.2466 150.375 30.4245C142.815 37.5858 134.756 34.5393 131.974 33.2078C129.191 31.8703 128.893 33.7111 127.356 33.2867C125.82 32.8624 125.613 31.2118 124.653 29.8393C123.693 28.4667 121.15 28.095 119.652 29.5027C118.148 30.9045 119.784 32.6341 120.311 32.9999C120.843 33.3599 121.99 33.7375 122.18 33.12C122.373 32.5025 120.556 32.9824 120.574 32.081C120.592 31.1708 121.82 30.4451 122.967 30.7963C124.117 31.1504 124.454 32.6985 124.106 33.5062C123.757 34.314 124.305 34.8613 125.364 35.2388C126.426 35.6163 126.599 35.8504 125.592 35.8738C124.586 35.8972 100.115 35.7071 99.4246 35.7071C98.7341 35.7012 97.2711 35.7245 97.3852 35.3821C97.5052 35.0339 98.1635 35.069 98.1635 35.069C102.564 35.2856 113.748 35.3617 114.359 34.4749C114.552 34.1881 114.678 33.755 115.883 33.9365C117.089 34.115 118.871 33.5999 118.502 33.0497C118.134 32.4995 117.171 29.6257 119.708 27.7351C122.245 25.8475 126.177 27.5624 128.012 28.894C129.847 30.2256 132.114 31.642 133.431 32.4556C134.75 33.2662 135.327 33.0965 133.952 32.1132C126.78 26.9858 128.196 19.488 132.123 15.6512C136.05 11.8145 142.803 12.2155 145.84 15.5664C149.858 19.9972 149.079 24.4954 145.978 27.4454C143.496 29.8013 140.81 28.9759 139.4 27.6678C137.984 26.3596 138.566 25.0543 139.201 24.3871C139.836 23.7198 140.623 23.7813 141.425 24.4398C142.229 25.0924 141.551 26.2572 142.78 26.342C144.008 26.421 144.951 25.2972 145.837 23.992C146.724 22.6955 146.238 20.1611 146.024 20.3689C144.904 21.478 143.991 21.3581 143.783 20.0382C143.578 18.7125 143.292 18.0775 142.183 16.9244C141.079 15.7684 139.315 15.5694 139.982 16.2044C143.286 19.3476 142.873 21.0508 142.393 21.6068C141.913 22.1629 140.781 22.2917 139.924 21.5396C139.06 20.7845 138.449 20.6704 138.522 21.2469C138.733 22.8945 136.922 23.5969 135.447 22.8067C133.972 22.0136 132.468 23.8457 132.448 25.5899C132.418 27.3342 133.843 26.6874 134.396 26.8249C134.95 26.9625 135.181 27.6941 134.756 28.1507C134.329 28.6072 134.408 28.9174 134.941 29.529C138.364 33.474 142.82 33.398 144.204 33.0205C148.869 31.7445 151.704 28.1857 154.021 23.4359C156.918 17.5038 155.341 10.3747 154.861 6.25996C154.273 1.27018 155.531 0.00592041 155.531 0.00592041Z" fill="url(#paint1_linear_4_1216)"/>
<path d="M163.602 348.739C162.664 340.703 159.584 326.779 165.242 315.193C169.774 305.916 175.311 298.96 184.415 296.473C187.118 295.736 195.822 295.593 202.508 303.292C203.548 304.487 203.702 305.087 202.868 305.985C202.039 306.876 202.491 308.305 203.571 308.574C204.662 308.842 207.434 307.579 207.377 310.986C207.331 314.393 204.4 317.976 201.519 316.422C198.639 314.878 195.102 316.256 195.513 319.468C195.656 320.594 194.462 320.371 192.776 318.897C191.101 317.422 188.89 317.679 187.952 318.765C187.015 319.851 186.209 323.172 192.661 329.317C193.97 330.557 190.518 330.162 188.364 327.91C186.198 325.653 185.638 324.418 185.238 321.829C184.838 319.251 183.038 319.017 180.86 321.183C180.449 321.583 179.5 316.639 181.226 314.107C182.958 311.563 184.798 309.363 187.198 309.517C189.598 309.683 188.273 311.963 189.844 313.232C191.404 314.518 192.947 314.638 194.187 313.335C195.427 312.032 196.565 309.483 193.799 306.928C191.044 304.373 185.798 302.761 180.952 307.362C174.888 313.124 173.374 321.909 181.22 330.563C187.147 337.107 200.342 337.885 208.011 330.397C215.681 322.909 218.435 308.259 204.44 298.245C201.748 296.325 202.88 295.987 205.457 297.576C208.034 299.165 212.457 301.932 216.041 304.533C219.624 307.133 227.305 310.483 232.259 306.796C237.226 303.104 235.34 297.485 234.614 296.416C233.888 295.347 237.368 294.341 239.728 294.684C242.083 295.044 242.329 294.193 242.706 293.633C243.889 291.901 265.742 292.049 274.337 292.472C274.337 292.472 275.623 292.541 275.858 291.861C276.08 291.192 273.212 291.238 271.874 291.226C270.526 291.226 222.727 290.86 220.767 290.9C218.807 290.94 219.138 291.403 221.213 292.141C223.276 292.878 224.35 293.947 223.67 295.525C222.99 297.102 223.647 300.126 225.893 300.817C228.139 301.498 230.528 300.08 230.556 298.308C230.602 296.542 227.053 297.479 227.43 296.279C227.796 295.073 230.042 295.81 231.071 296.513C232.111 297.228 235.3 300.612 232.368 303.344C229.442 306.087 224.464 305.367 222.601 302.687C220.727 300.006 220.327 296.782 217.321 295.953C214.315 295.124 213.749 298.72 208.303 296.108C202.868 293.507 187.13 287.557 172.374 301.543C159.636 313.609 160.23 332.712 161.693 342C163.007 350.351 162.596 359.605 162.287 360.954C162.27 360.942 164.739 358.473 163.602 348.739Z" fill="url(#paint2_linear_4_1216)"/>
<path d="M153.577 360.942C153.274 359.593 152.863 350.339 154.177 341.988C155.629 332.7 156.229 313.598 143.508 301.532C128.74 287.545 113.002 293.495 107.567 296.096C102.132 298.708 101.549 295.113 98.5492 295.942C95.5489 296.77 95.1431 299.994 93.2686 302.675C91.3942 305.355 86.4281 306.081 83.5021 303.332C80.5647 300.594 83.7591 297.216 84.7878 296.502C85.8279 295.799 88.0681 295.061 88.4396 296.267C88.8168 297.473 85.268 296.536 85.3023 298.296C85.3366 300.074 87.7368 301.492 89.977 300.806C92.2229 300.114 92.8801 297.09 92.2001 295.513C91.52 293.935 92.5886 292.866 94.6574 292.129C96.7318 291.392 97.069 290.934 95.1031 290.889C93.1373 290.843 45.3443 291.214 43.9956 291.214C42.6469 291.226 39.7895 291.18 40.0124 291.849C40.2467 292.529 41.5325 292.461 41.5325 292.461C50.1275 292.038 71.9695 291.889 73.1639 293.621C73.5411 294.181 73.7868 295.027 76.1413 294.673C78.4958 294.324 81.9762 295.33 81.2562 296.405C80.5361 297.479 78.6559 303.092 83.6106 306.784C88.5653 310.471 96.2461 307.122 99.8293 304.521C103.412 301.92 107.841 299.154 110.413 297.565C112.99 295.982 114.116 296.313 111.43 298.234C97.4233 308.248 100.189 322.892 107.859 330.385C115.528 337.879 128.718 337.096 134.649 330.551C142.496 321.897 140.976 313.112 134.918 307.35C130.072 302.749 124.826 304.361 122.071 306.916C119.305 309.471 120.443 312.02 121.683 313.323C122.923 314.627 124.46 314.507 126.026 313.22C127.597 311.946 126.272 309.671 128.672 309.505C131.072 309.351 132.912 311.546 134.644 314.095C136.375 316.627 135.427 321.577 135.01 321.171C132.821 319.005 131.038 319.239 130.632 321.817C130.232 324.406 129.672 325.647 127.506 327.899C125.351 330.157 121.906 330.545 123.209 329.305C129.661 323.166 128.855 319.84 127.918 318.754C126.98 317.668 124.769 317.416 123.094 318.885C121.408 320.36 120.214 320.583 120.357 319.456C120.768 316.238 117.231 314.867 114.35 316.41C111.47 317.959 108.533 314.381 108.493 310.974C108.436 307.567 111.219 308.831 112.299 308.562C113.379 308.293 113.83 306.864 113.002 305.973C112.167 305.081 112.322 304.475 113.362 303.281C120.048 295.576 128.752 295.724 131.455 296.462C140.564 298.954 146.102 305.904 150.628 315.181C156.286 326.767 153.205 340.691 152.268 348.727C151.12 358.473 153.577 360.942 153.577 360.942Z" fill="url(#paint3_linear_4_1216)"/>
<path d="M89.8003 259.746C100.95 259.746 111.966 255.582 120.967 248.193C129.968 240.804 135.879 228.58 135.879 214.743C135.879 209.503 134.401 202.383 131.58 193.651C128.893 185.591 127.55 179.546 127.55 175.381C127.55 170.276 129.296 166.112 132.789 163.022C136.416 159.932 140.177 158.32 144.073 158.32C150.387 158.32 154.82 162.216 154.82 167.59C154.82 171.217 151.999 174.978 147.566 175.381C142.73 175.381 142.058 182.367 147.566 182.367C151.865 182.233 155.358 180.621 158.044 177.531C160.731 174.441 162.075 171.083 162.075 167.59C162.075 162.485 160.194 158.455 156.567 155.634C152.94 152.812 148.641 151.335 143.939 151.335C138.162 151.335 132.654 153.484 127.684 157.917C122.713 162.351 120.295 168.127 120.295 175.381C120.295 180.352 121.773 187.338 124.594 196.338C127.281 204.533 128.624 210.712 128.624 214.743C128.624 222.4 126.609 229.117 122.579 235.028C118.683 240.939 113.713 245.372 107.936 248.193C102.16 251.014 96.1143 252.492 89.8003 252.492C80.7996 252.492 72.8736 249.671 66.1567 243.894C59.5741 238.118 56.0813 230.729 55.6783 221.863C55.2752 213.131 57.962 205.608 63.8729 199.159C69.7838 192.711 77.3068 189.487 86.3075 189.487C100.279 189.487 108.205 197.413 108.205 207.623C108.205 212.728 105.787 216.892 100.816 220.116C96.5173 222.803 99.8757 228.848 104.712 225.893C107.802 224.146 110.354 221.46 112.369 217.832C114.384 214.205 115.459 210.712 115.459 207.623C115.459 200.503 112.907 194.592 107.936 189.621C102.966 184.651 95.8456 182.233 86.5762 182.233C75.2917 182.233 66.0224 186.263 58.6337 194.189C51.3794 202.115 48.0209 211.384 48.424 221.863C48.827 233.013 52.9915 242.148 60.7831 249.133C68.7091 256.253 78.3815 259.746 89.8003 259.746Z" fill="url(#paint4_linear_4_1216)"/>
<path d="M140.411 229.117C139.068 231.669 138.396 234.222 138.396 236.64C138.396 243.222 142.83 246.85 150.218 246.85C151.024 246.85 152.099 246.715 153.308 246.581L152.502 248.462C146.457 262.97 136.919 271.837 127.649 271.837C120.529 271.837 117.305 268.478 117.305 264.179C117.305 260.552 120.126 256.791 124.559 256.388C129.396 256.388 129.664 249.402 124.559 249.402C120.261 249.536 116.768 251.148 114.081 254.238C111.394 257.328 110.051 260.687 110.051 264.179C110.051 272.374 115.962 278.822 127.649 278.822C140.68 278.822 151.293 269.016 159.756 249.536L182.863 199.025C185.146 193.786 178.295 191.771 176.28 196.338L161.368 229.251V229.117C157.741 236.237 154.114 239.864 150.218 239.864C147.128 239.864 145.651 238.789 145.651 236.64C145.651 235.7 146.054 234.222 146.86 232.207L162.04 199.025C164.324 193.786 157.472 191.771 155.457 196.338L140.411 229.251V229.117ZM168.354 246.85C172.25 246.85 175.743 245.238 178.832 242.013C181.922 238.789 184.34 235.431 185.818 231.804C186.624 229.654 185.952 228.177 183.937 227.505C181.922 226.699 180.444 227.236 179.37 229.251C177.892 231.938 177.892 232.341 175.743 235.431C173.593 238.521 171.175 239.864 168.354 239.864C163.786 239.864 163.786 246.85 168.354 246.85Z" fill="url(#paint5_linear_4_1216)"/>
<path d="M209.598 246.85C213.494 246.85 216.987 245.238 220.076 242.013C223.166 238.789 225.584 235.431 227.062 231.804C227.868 229.654 227.196 228.177 225.181 227.505C223.166 226.699 221.689 227.236 220.614 229.251C219.136 231.938 219.136 232.341 216.987 235.431C214.837 238.521 212.419 239.864 209.598 239.864C207.046 239.864 205.702 238.789 205.702 236.774C205.702 235.431 206.105 233.819 207.046 231.938L221.957 199.025C222.092 198.488 222.226 197.95 222.226 197.547C222.226 195.801 221.42 194.86 219.673 194.592C217.658 194.457 216.181 195.398 215.375 197.547C214.166 194.861 210.404 193.248 206.777 193.248C199.926 193.248 194.149 198.085 189.447 207.891L179.372 229.117C178.163 231.804 177.491 234.356 177.491 236.64C177.491 243.222 181.924 246.85 189.313 246.85C193.209 246.85 196.702 245.238 199.657 242.148C201.403 245.238 204.628 246.85 209.598 246.85ZM199.523 230.729C197.508 235.162 193.746 239.864 189.313 239.864C184.88 239.864 183.939 235.565 185.954 232.207L195.627 211.519C197.239 208.294 197.239 208.16 199.254 204.936C201.403 201.712 203.956 200.234 206.777 200.234C211.882 200.234 211.882 204.667 210.135 208.16L199.523 230.729Z" fill="url(#paint6_linear_4_1216)"/>
<path d="M238.433 228.983C237.089 231.669 236.418 234.222 236.418 236.774C236.418 243.491 240.179 246.85 247.568 246.85C251.463 246.85 254.956 245.238 258.046 242.013C261.136 238.789 263.554 235.431 265.032 231.804C265.838 229.654 265.166 228.177 263.151 227.505C261.136 226.699 259.658 227.236 258.583 229.251C257.106 231.938 257.106 232.341 254.956 235.431C252.807 238.521 250.389 239.864 247.568 239.864C242.463 239.864 243.672 235.162 245.015 231.938L255.359 209.772C256.703 206.011 257.374 203.458 257.374 201.98C257.374 196.741 253.882 194.189 250.792 193.786C247.971 193.248 245.553 191.233 247.702 187.338C249.986 182.77 243.269 180.755 241.254 184.919L220.566 229.251C219.491 231.535 220.028 233.147 222.178 234.087C224.327 234.893 225.939 234.222 226.879 232.072L243.269 196.607C243.672 201.04 249.717 198.891 249.717 202.921C249.717 203.861 249.314 205.339 248.508 207.354L238.433 228.983Z" fill="url(#paint7_linear_4_1216)"/>
<path d="M292.195 163.963C288.837 163.963 285.747 166.918 285.747 170.142C285.747 172.426 287.494 175.113 289.777 175.247C287.897 177.531 285.21 179.412 281.851 181.158L281.583 181.292C280.239 182.233 279.971 183.442 280.777 184.651C281.583 186.128 283.06 186.263 285.21 185.188C291.658 181.83 297.972 175.784 297.972 169.873C297.972 166.515 295.823 163.963 292.195 163.963Z" fill="url(#paint8_linear_4_1216)"/>
<path d="M293.721 246.85C297.617 246.85 301.11 245.238 304.2 242.013C307.29 238.789 309.708 235.431 311.185 231.804C311.991 229.654 311.32 228.177 309.305 227.505C307.29 226.699 305.812 227.236 304.737 229.251C301.244 236.371 297.617 239.864 293.721 239.864C291.438 239.864 290.229 238.924 289.96 237.043C289.691 235.028 290.094 233.281 291.035 231.804L306.081 199.025C308.364 194.457 301.379 191.771 299.364 196.338L284.452 229.251C283.243 232.207 282.571 234.759 282.571 236.774C282.571 243.491 286.333 246.85 293.721 246.85ZM315.887 181.964C316.559 178.74 314.141 175.919 310.782 175.919C307.961 175.919 305.14 178.337 304.603 181.427C304.066 184.651 306.215 187.338 309.573 187.338C312.663 187.338 315.35 185.054 315.887 181.964Z" fill="url(#paint9_linear_4_1216)"/>
<path d="M65.2165 53.9391C23.5715 53.9391 4.2267 82.9563 4.2267 106.063C4.2267 113.451 6.24179 120.437 10.272 127.019C14.4365 133.602 19.9443 138.17 27.0643 140.856C32.9752 143.14 35.662 136.02 29.7511 133.736C18.3323 129.438 11.481 118.287 11.481 105.928C11.481 95.5842 16.4515 84.7027 25.4522 75.702C34.5873 66.567 50.4393 60.7904 69.1124 61.4621C73.0082 61.7308 77.8444 62.6712 83.621 64.1489C85.3674 64.5519 85.636 66.164 84.5613 67.373C80.6655 72.6122 76.098 80.9412 70.9931 92.36L61.9924 112.377C59.843 117.347 57.9622 121.512 56.3502 124.601C54.8725 127.691 52.8574 131.05 50.3049 134.677C47.7525 138.304 45.2001 141.259 42.6476 143.274C37.4084 147.17 29.7511 150.394 20.7504 150.394C14.1678 150.394 8.65989 147.708 7.45084 144.349C5.16708 138.17 -2.3559 141.125 0.733893 147.439C3.28633 153.484 11.3467 157.649 20.8847 157.649C34.0499 158.052 43.991 152.006 50.7079 145.155C52.9917 142.871 55.1411 139.916 57.4249 136.155C59.7086 132.393 61.5894 129.035 63.0671 126.213C64.5448 123.258 66.4256 119.362 68.7094 114.392L77.7101 94.9125C83.3523 82.1503 88.5915 72.7466 93.562 66.97C106.593 70.5972 115.459 72.4779 120.43 72.3436C126.878 72.3436 132.252 70.7315 136.416 67.5074C140.581 64.2832 142.864 60.7904 143.267 57.0289C143.805 51.118 136.685 50.0433 136.147 55.8199C135.61 60.5217 130.102 65.2236 120.43 65.2236C115.594 65.2236 107.13 63.3429 95.0398 59.5814C82.9493 55.8199 73.0082 53.9391 65.2165 53.9391Z" fill="url(#paint10_linear_4_1216)"/>
<path d="M111.961 147.439C115.857 147.439 119.35 145.827 122.44 142.603C125.529 139.379 127.948 136.02 129.425 132.393C130.231 130.244 129.56 128.766 127.545 128.094C125.529 127.288 124.052 127.826 122.977 129.841C121.499 132.527 121.499 132.93 119.35 136.02C117.2 139.11 114.782 140.453 111.961 140.453C109.409 140.453 108.065 139.379 108.065 137.364C108.065 136.02 108.468 134.408 109.409 132.527L124.32 99.6143C124.455 99.077 124.589 98.5396 124.589 98.1366C124.589 96.3902 123.783 95.4498 122.037 95.1812C120.022 95.0468 118.544 95.9872 117.738 98.1366C116.529 95.4498 112.767 93.8378 109.14 93.8378C102.289 93.8378 96.5122 98.674 91.8104 108.481L81.735 129.706C80.5259 132.393 79.8542 134.945 79.8542 137.229C79.8542 143.812 84.2874 147.439 91.676 147.439C95.5719 147.439 99.0647 145.827 102.02 142.737C103.767 145.827 106.991 147.439 111.961 147.439ZM101.886 131.318C99.8707 135.751 96.1092 140.453 91.676 140.453C87.2429 140.453 86.3025 136.155 88.3176 132.796L97.99 112.108C99.602 108.884 99.602 108.749 101.617 105.525C103.767 102.301 106.319 100.823 109.14 100.823C114.245 100.823 114.245 105.257 112.499 108.749L101.886 131.318Z" fill="url(#paint11_linear_4_1216)"/>
<path d="M153.155 147.439C157.051 147.439 160.544 145.827 163.633 142.603C166.723 139.379 169.141 136.02 170.619 132.393C171.425 130.244 170.753 128.766 168.738 128.094C166.723 127.288 165.245 127.826 164.171 129.841C162.693 132.527 162.693 132.93 160.544 136.02C158.394 139.11 155.976 140.453 153.155 140.453C150.603 140.453 149.259 139.379 149.259 137.364C149.259 136.02 149.662 134.408 150.603 132.527L165.514 99.6143C165.648 99.077 165.783 98.5396 165.783 98.1366C165.783 96.3902 164.977 95.4498 163.23 95.1812C161.215 95.0468 159.738 95.9872 158.932 98.1366C157.722 95.4498 153.961 93.8378 150.334 93.8378C143.483 93.8378 137.706 98.674 133.004 108.481L122.929 129.706C121.72 132.393 121.048 134.945 121.048 137.229C121.048 143.812 125.481 147.439 132.87 147.439C136.766 147.439 140.258 145.827 143.214 142.737C144.96 145.827 148.184 147.439 153.155 147.439ZM143.08 131.318C141.064 135.751 137.303 140.453 132.87 140.453C128.437 140.453 127.496 136.155 129.511 132.796L139.184 112.108C140.796 108.884 140.796 108.749 142.811 105.525C144.96 102.301 147.513 100.823 150.334 100.823C155.439 100.823 155.439 105.257 153.692 108.749L143.08 131.318Z" fill="url(#paint12_linear_4_1216)"/>
<path d="M181.99 129.572C180.646 132.259 179.974 134.811 179.974 137.364C179.974 144.08 183.736 147.439 191.125 147.439C195.02 147.439 198.513 145.827 201.603 142.603C204.693 139.379 207.111 136.02 208.589 132.393C209.395 130.244 208.723 128.766 206.708 128.094C204.693 127.288 203.215 127.826 202.14 129.841C200.663 132.527 200.663 132.93 198.513 136.02C196.364 139.11 193.946 140.453 191.125 140.453C186.02 140.453 187.229 135.751 188.572 132.527L198.916 110.361C200.26 106.6 200.931 104.048 200.931 102.57C200.931 97.3306 197.439 94.7781 194.349 94.3751C191.528 93.8378 189.109 91.8227 191.259 87.9269C193.543 83.3593 186.826 81.3443 184.811 85.5088L164.122 129.841C163.048 132.124 163.585 133.736 165.735 134.677C167.884 135.483 169.496 134.811 170.436 132.662L186.826 97.1962C187.229 101.629 193.274 99.48 193.274 103.51C193.274 104.451 192.871 105.928 192.065 107.943L181.99 129.572Z" fill="url(#paint13_linear_4_1216)"/>
<path d="M223.796 99.883C226.08 94.7781 219.497 92.0914 217.214 96.9276L202.168 129.841C200.824 132.93 200.153 135.483 200.153 137.229C200.153 143.812 204.586 147.439 211.974 147.439C215.87 147.439 219.363 145.827 222.318 142.737C224.065 145.827 227.289 147.439 232.26 147.439C236.155 147.439 239.648 145.827 242.738 142.603C245.828 139.379 248.246 136.02 249.724 132.393C250.53 130.244 249.858 128.766 247.843 128.094C245.828 127.288 244.35 127.826 243.275 129.841C239.783 136.961 236.155 140.453 232.26 140.453C229.707 140.453 228.364 139.379 228.364 137.364C228.364 136.02 228.767 134.408 229.707 132.527L244.619 99.6143C246.902 94.5095 240.051 92.0914 238.036 96.9276L222.587 130.915C220.572 135.348 216.273 140.453 211.974 140.453C208.885 140.453 207.407 139.379 207.407 137.229C207.407 136.289 207.81 134.811 208.616 132.796L223.796 99.883Z" fill="url(#paint14_linear_4_1216)"/>
<path d="M271.979 101.495C272.65 101.495 273.322 101.361 273.859 101.092C275.74 100.42 276.546 99.077 276.412 97.1962C276.278 95.4498 275.203 94.5095 273.188 94.5095H269.964C268.217 94.5095 267.814 93.7034 268.486 92.0914L272.919 82.5533C276.009 75.9707 279.905 70.5972 284.472 66.567C289.04 62.5368 293.473 60.5217 297.906 60.5217C305.026 60.5217 308.25 63.8802 308.25 68.1791C308.25 71.8062 305.429 75.5677 300.996 75.9707C296.428 75.9707 295.891 82.9563 300.996 82.9563C305.295 82.822 308.788 81.2099 311.474 78.1201C314.161 75.0303 315.504 71.6719 315.504 68.1791C315.504 59.9844 309.594 53.5361 297.906 53.5361C284.607 53.5361 273.456 64.8206 265.396 82.016L260.694 92.0914C260.023 93.7034 258.679 94.5095 256.798 94.5095H254.918C254.246 94.5095 253.709 94.6438 253.037 94.7781C251.156 95.5842 250.216 96.9276 250.35 98.674C250.35 100.42 251.291 101.361 253.306 101.495H253.574C255.321 101.495 255.858 102.301 255.186 103.913L232.752 152.947C226.707 166.515 217.034 174.71 207.765 174.71C200.645 174.71 197.421 171.351 197.421 167.052C197.421 163.425 200.242 159.664 204.675 159.261C210.049 159.261 210.72 152.275 204.675 152.275C200.376 152.41 196.883 154.022 194.197 157.111C191.51 160.201 190.166 163.56 190.166 167.052C190.166 175.247 196.077 181.695 207.765 181.695C220.796 181.695 231.543 172.426 239.872 154.022L262.844 103.913C263.515 102.301 264.859 101.495 266.605 101.495H271.979Z" fill="url(#paint15_linear_4_1216)"/>
<defs>
<linearGradient id="paint0_linear_4_1216" x1="216.411" y1="4.30432" x2="155.247" y2="21.1249" gradientUnits="userSpaceOnUse">
<stop stop-color="#FCB633"/>
<stop offset="0.203125" stop-color="#D1A045"/>
<stop offset="0.244792" stop-color="#C9932F"/>
<stop offset="0.604167" stop-color="#FFCA66"/>
<stop offset="0.677083" stop-color="#FCB126"/>
<stop offset="1" stop-color="#815400"/>
</linearGradient>
<linearGradient id="paint1_linear_4_1216" x1="154.485" y1="4.3103" x2="93.3237" y2="21.1291" gradientUnits="userSpaceOnUse">
<stop stop-color="#FCB633"/>
<stop offset="0.203125" stop-color="#D1A045"/>
<stop offset="0.244792" stop-color="#C9932F"/>
<stop offset="0.604167" stop-color="#FFCA66"/>
<stop offset="0.677083" stop-color="#FCB126"/>
<stop offset="1" stop-color="#815400"/>
</linearGradient>
<linearGradient id="paint2_linear_4_1216" x1="272.481" y1="352.547" x2="153.022" y2="319.695" gradientUnits="userSpaceOnUse">
<stop stop-color="#FCB633"/>
<stop offset="0.203125" stop-color="#D1A045"/>
<stop offset="0.244792" stop-color="#C9932F"/>
<stop offset="0.604167" stop-color="#FFCA66"/>
<stop offset="0.677083" stop-color="#FCB126"/>
<stop offset="1" stop-color="#815400"/>
</linearGradient>
<linearGradient id="paint3_linear_4_1216" x1="151.534" y1="352.535" x2="32.0799" y2="319.686" gradientUnits="userSpaceOnUse">
<stop stop-color="#FCB633"/>
<stop offset="0.203125" stop-color="#D1A045"/>
<stop offset="0.244792" stop-color="#C9932F"/>
<stop offset="0.604167" stop-color="#FFCA66"/>
<stop offset="0.677083" stop-color="#FCB126"/>
<stop offset="1" stop-color="#815400"/>
</linearGradient>
<linearGradient id="paint4_linear_4_1216" x1="56.2818" y1="166.633" x2="322.512" y2="260.315" gradientUnits="userSpaceOnUse">
<stop stop-color="#FCB633"/>
<stop offset="0.203125" stop-color="#D1A045"/>
<stop offset="0.244792" stop-color="#C9932F"/>
<stop offset="0.604167" stop-color="#FFCA66"/>
<stop offset="0.677083" stop-color="#FCB126"/>
<stop offset="1" stop-color="#815400"/>
</linearGradient>
<linearGradient id="paint5_linear_4_1216" x1="56.2818" y1="166.633" x2="322.512" y2="260.315" gradientUnits="userSpaceOnUse">
<stop stop-color="#FCB633"/>
<stop offset="0.203125" stop-color="#D1A045"/>
<stop offset="0.244792" stop-color="#C9932F"/>
<stop offset="0.604167" stop-color="#FFCA66"/>
<stop offset="0.677083" stop-color="#FCB126"/>
<stop offset="1" stop-color="#815400"/>
</linearGradient>
<linearGradient id="paint6_linear_4_1216" x1="56.2818" y1="166.633" x2="322.512" y2="260.315" gradientUnits="userSpaceOnUse">
<stop stop-color="#FCB633"/>
<stop offset="0.203125" stop-color="#D1A045"/>
<stop offset="0.244792" stop-color="#C9932F"/>
<stop offset="0.604167" stop-color="#FFCA66"/>
<stop offset="0.677083" stop-color="#FCB126"/>
<stop offset="1" stop-color="#815400"/>
</linearGradient>
<linearGradient id="paint7_linear_4_1216" x1="56.2818" y1="166.633" x2="322.512" y2="260.315" gradientUnits="userSpaceOnUse">
<stop stop-color="#FCB633"/>
<stop offset="0.203125" stop-color="#D1A045"/>
<stop offset="0.244792" stop-color="#C9932F"/>
<stop offset="0.604167" stop-color="#FFCA66"/>
<stop offset="0.677083" stop-color="#FCB126"/>
<stop offset="1" stop-color="#815400"/>
</linearGradient>
<linearGradient id="paint8_linear_4_1216" x1="56.2818" y1="166.633" x2="322.512" y2="260.315" gradientUnits="userSpaceOnUse">
<stop stop-color="#FCB633"/>
<stop offset="0.203125" stop-color="#D1A045"/>
<stop offset="0.244792" stop-color="#C9932F"/>
<stop offset="0.604167" stop-color="#FFCA66"/>
<stop offset="0.677083" stop-color="#FCB126"/>
<stop offset="1" stop-color="#815400"/>
</linearGradient>
<linearGradient id="paint9_linear_4_1216" x1="56.2818" y1="166.633" x2="322.512" y2="260.315" gradientUnits="userSpaceOnUse">
<stop stop-color="#FCB633"/>
<stop offset="0.203125" stop-color="#D1A045"/>
<stop offset="0.244792" stop-color="#C9932F"/>
<stop offset="0.604167" stop-color="#FFCA66"/>
<stop offset="0.677083" stop-color="#FCB126"/>
<stop offset="1" stop-color="#815400"/>
</linearGradient>
<linearGradient id="paint10_linear_4_1216" x1="9.30235" y1="67.5634" x2="311.75" y2="190.902" gradientUnits="userSpaceOnUse">
<stop stop-color="#FCB633"/>
<stop offset="0.203125" stop-color="#D1A045"/>
<stop offset="0.244792" stop-color="#C9932F"/>
<stop offset="0.604167" stop-color="#FFCA66"/>
<stop offset="0.677083" stop-color="#FCB126"/>
<stop offset="1" stop-color="#815400"/>
</linearGradient>
<linearGradient id="paint11_linear_4_1216" x1="9.30235" y1="67.5634" x2="311.75" y2="190.902" gradientUnits="userSpaceOnUse">
<stop stop-color="#FCB633"/>
<stop offset="0.203125" stop-color="#D1A045"/>
<stop offset="0.244792" stop-color="#C9932F"/>
<stop offset="0.604167" stop-color="#FFCA66"/>
<stop offset="0.677083" stop-color="#FCB126"/>
<stop offset="1" stop-color="#815400"/>
</linearGradient>
<linearGradient id="paint12_linear_4_1216" x1="9.30235" y1="67.5634" x2="311.75" y2="190.902" gradientUnits="userSpaceOnUse">
<stop stop-color="#FCB633"/>
<stop offset="0.203125" stop-color="#D1A045"/>
<stop offset="0.244792" stop-color="#C9932F"/>
<stop offset="0.604167" stop-color="#FFCA66"/>
<stop offset="0.677083" stop-color="#FCB126"/>
<stop offset="1" stop-color="#815400"/>
</linearGradient>
<linearGradient id="paint13_linear_4_1216" x1="9.30235" y1="67.5634" x2="311.75" y2="190.902" gradientUnits="userSpaceOnUse">
<stop stop-color="#FCB633"/>
<stop offset="0.203125" stop-color="#D1A045"/>
<stop offset="0.244792" stop-color="#C9932F"/>
<stop offset="0.604167" stop-color="#FFCA66"/>
<stop offset="0.677083" stop-color="#FCB126"/>
<stop offset="1" stop-color="#815400"/>
</linearGradient>
<linearGradient id="paint14_linear_4_1216" x1="9.30235" y1="67.5634" x2="311.75" y2="190.902" gradientUnits="userSpaceOnUse">
<stop stop-color="#FCB633"/>
<stop offset="0.203125" stop-color="#D1A045"/>
<stop offset="0.244792" stop-color="#C9932F"/>
<stop offset="0.604167" stop-color="#FFCA66"/>
<stop offset="0.677083" stop-color="#FCB126"/>
<stop offset="1" stop-color="#815400"/>
</linearGradient>
<linearGradient id="paint15_linear_4_1216" x1="9.30235" y1="67.5634" x2="311.75" y2="190.902" gradientUnits="userSpaceOnUse">
<stop stop-color="#FCB633"/>
<stop offset="0.203125" stop-color="#D1A045"/>
<stop offset="0.244792" stop-color="#C9932F"/>
<stop offset="0.604167" stop-color="#FFCA66"/>
<stop offset="0.677083" stop-color="#FCB126"/>
<stop offset="1" stop-color="#815400"/>
</linearGradient>
</defs>
</svg>
