<svg width="385" height="212" viewBox="0 0 385 212" fill="none" xmlns="http://www.w3.org/2000/svg">
<path d="M75.65 36.4C29.15 36.4 7.55 68.8 7.55 94.6C7.55 102.85 9.8 110.65 14.3 118C18.95 125.35 25.1 130.45 33.05 133.45C39.65 136 42.65 128.05 36.05 125.5C23.3 120.7 15.65 108.25 15.65 94.45C15.65 82.9 21.2 70.75 31.25 60.7C41.45 50.5 59.15 44.05 80 44.8C84.35 45.1 89.75 46.15 96.2 47.8C98.15 48.25 98.45 50.05 97.25 51.4C92.9 57.25 87.8 66.55 82.1 79.3L72.05 101.65C69.65 107.2 67.55 111.85 65.75 115.3C64.1 118.75 61.85 122.5 59 126.55C56.15 130.6 53.3 133.9 50.45 136.15C44.6 140.5 36.05 144.1 26 144.1C18.65 144.1 12.5 141.1 11.15 137.35C8.6 130.45 0.2 133.75 3.65 140.8C6.5 147.55 15.5 152.2 26.15 152.2C40.85 152.65 51.95 145.9 59.45 138.25C62 135.7 64.4 132.4 66.95 128.2C69.5 124 71.6 120.25 73.25 117.1C74.9 113.8 77 109.45 79.55 103.9L89.6 82.15C95.9 67.9 101.75 57.4 107.3 50.95C121.85 55 131.75 57.1 137.3 56.95C144.5 56.95 150.5 55.15 155.15 51.55C159.8 47.95 162.35 44.05 162.8 39.85C163.4 33.25 155.45 32.05 154.85 38.5C154.25 43.75 148.1 49 137.3 49C131.9 49 122.45 46.9 108.95 42.7C95.45 38.5 84.35 36.4 75.65 36.4ZM127.844 140.8C132.194 140.8 136.094 139 139.544 135.4C142.994 131.8 145.694 128.05 147.344 124C148.244 121.6 147.494 119.95 145.244 119.2C142.994 118.3 141.344 118.9 140.144 121.15C138.494 124.15 138.494 124.6 136.094 128.05C133.694 131.5 130.994 133 127.844 133C124.994 133 123.494 131.8 123.494 129.55C123.494 128.05 123.944 126.25 124.994 124.15L141.644 87.4C141.794 86.8 141.944 86.2 141.944 85.75C141.944 83.8 141.044 82.75 139.094 82.45C136.844 82.3 135.194 83.35 134.294 85.75C132.944 82.75 128.744 80.95 124.694 80.95C117.044 80.95 110.594 86.35 105.344 97.3L94.0941 121C92.7441 124 91.9941 126.85 91.9941 129.4C91.9941 136.75 96.9441 140.8 105.194 140.8C109.544 140.8 113.444 139 116.744 135.55C118.694 139 122.294 140.8 127.844 140.8ZM116.594 122.8C114.344 127.75 110.144 133 105.194 133C100.244 133 99.1941 128.2 101.444 124.45L112.244 101.35C114.044 97.75 114.044 97.6 116.294 94C118.694 90.4 121.544 88.75 124.694 88.75C130.394 88.75 130.394 93.7 128.444 97.6L116.594 122.8ZM177.59 48.25C173.84 48.25 170.39 51.55 170.39 55.15C170.39 57.7 172.34 60.7 174.89 60.85C172.79 63.4 169.79 65.5 166.04 67.45L165.74 67.6C164.24 68.65 163.94 70 164.84 71.35C165.74 73 167.39 73.15 169.79 71.95C176.99 68.2 184.04 61.45 184.04 54.85C184.04 51.1 181.64 48.25 177.59 48.25ZM202.844 140.8C207.194 140.8 211.094 139 214.544 135.4C217.994 131.8 220.694 128.05 222.344 124C223.244 121.6 222.494 119.95 220.244 119.2C217.994 118.3 216.344 118.9 215.144 121.15C213.494 124.15 213.494 124.6 211.094 128.05C208.694 131.5 205.994 133 202.844 133C199.994 133 198.494 131.8 198.494 129.55C198.494 128.05 198.944 126.25 199.994 124.15L216.644 87.4C216.794 86.8 216.944 86.2 216.944 85.75C216.944 83.8 216.044 82.75 214.094 82.45C211.844 82.3 210.194 83.35 209.294 85.75C207.944 82.75 203.744 80.95 199.694 80.95C192.044 80.95 185.594 86.35 180.344 97.3L169.094 121C167.744 124 166.994 126.85 166.994 129.4C166.994 136.75 171.944 140.8 180.194 140.8C184.544 140.8 188.444 139 191.744 135.55C193.694 139 197.294 140.8 202.844 140.8ZM191.594 122.8C189.344 127.75 185.144 133 180.194 133C175.244 133 174.194 128.2 176.444 124.45L187.244 101.35C189.044 97.75 189.044 97.6 191.294 94C193.694 90.4 196.544 88.75 199.694 88.75C205.394 88.75 205.394 93.7 203.444 97.6L191.594 122.8ZM235.04 120.85C233.54 123.85 232.79 126.7 232.79 129.55C232.79 137.05 236.99 140.8 245.24 140.8C249.59 140.8 253.49 139 256.94 135.4C260.39 131.8 263.09 128.05 264.74 124C265.64 121.6 264.89 119.95 262.64 119.2C260.39 118.3 258.74 118.9 257.54 121.15C255.89 124.15 255.89 124.6 253.49 128.05C251.09 131.5 248.39 133 245.24 133C239.54 133 240.89 127.75 242.39 124.15L253.94 99.4C255.44 95.2 256.19 92.35 256.19 90.7C256.19 84.85 252.29 82 248.84 81.55C245.69 80.95 242.99 78.7 245.39 74.35C247.94 69.25 240.44 67 238.19 71.65L215.09 121.15C213.89 123.7 214.49 125.5 216.89 126.55C219.29 127.45 221.09 126.7 222.14 124.3L240.44 84.7C240.89 89.65 247.64 87.25 247.64 91.75C247.64 92.8 247.19 94.45 246.29 96.7L235.04 120.85ZM281.721 87.7C284.271 82 276.921 79 274.371 84.4L257.571 121.15C256.071 124.6 255.321 127.45 255.321 129.4C255.321 136.75 260.271 140.8 268.521 140.8C272.871 140.8 276.771 139 280.071 135.55C282.021 139 285.621 140.8 291.171 140.8C295.521 140.8 299.421 139 302.871 135.4C306.321 131.8 309.021 128.05 310.671 124C311.571 121.6 310.821 119.95 308.571 119.2C306.321 118.3 304.671 118.9 303.471 121.15C299.571 129.1 295.521 133 291.171 133C288.321 133 286.821 131.8 286.821 129.55C286.821 128.05 287.271 126.25 288.321 124.15L304.971 87.4C307.521 81.7 299.871 79 297.621 84.4L280.371 122.35C278.121 127.3 273.321 133 268.521 133C265.071 133 263.421 131.8 263.421 129.4C263.421 128.35 263.871 126.7 264.771 124.45L281.721 87.7ZM335.52 89.5C336.27 89.5 337.02 89.35 337.62 89.05C339.72 88.3 340.62 86.8 340.47 84.7C340.32 82.75 339.12 81.7 336.87 81.7H333.27C331.32 81.7 330.87 80.8 331.62 79L336.57 68.35C340.02 61 344.37 55 349.47 50.5C354.57 46 359.52 43.75 364.47 43.75C372.42 43.75 376.02 47.5 376.02 52.3C376.02 56.35 372.87 60.55 367.92 61C362.82 61 362.22 68.8 367.92 68.8C372.72 68.65 376.62 66.85 379.62 63.4C382.62 59.95 384.12 56.2 384.12 52.3C384.12 43.15 377.52 35.95 364.47 35.95C349.62 35.95 337.17 48.55 328.17 67.75L322.92 79C322.17 80.8 320.67 81.7 318.57 81.7H316.47C315.72 81.7 315.12 81.85 314.37 82C312.27 82.9 311.22 84.4 311.37 86.35C311.37 88.3 312.42 89.35 314.67 89.5H314.97C316.92 89.5 317.52 90.4 316.77 92.2L291.72 146.95C284.97 162.1 274.17 171.25 263.82 171.25C255.87 171.25 252.27 167.5 252.27 162.7C252.27 158.65 255.42 154.45 260.37 154C266.37 154 267.12 146.2 260.37 146.2C255.57 146.35 251.67 148.15 248.67 151.6C245.67 155.05 244.17 158.8 244.17 162.7C244.17 171.85 250.77 179.05 263.82 179.05C278.37 179.05 290.37 168.7 299.67 148.15L325.32 92.2C326.07 90.4 327.57 89.5 329.52 89.5H335.52Z" fill="url(#paint0_linear_54_253)"/>
<path d="M70.3672 167.682C70.3672 169.441 69.7292 170.812 68.4531 171.797C67.1771 172.781 65.4453 173.273 63.2578 173.273C60.888 173.273 59.0651 172.968 57.7891 172.357V170.115C58.6094 170.462 59.5026 170.735 60.4688 170.936C61.4349 171.136 62.3919 171.236 63.3398 171.236C64.8893 171.236 66.056 170.945 66.8398 170.361C67.6237 169.769 68.0156 168.949 68.0156 167.9C68.0156 167.208 67.8743 166.643 67.5918 166.205C67.3184 165.758 66.8535 165.348 66.1973 164.975C65.5501 164.601 64.5612 164.177 63.2305 163.703C61.3711 163.038 60.0404 162.249 59.2383 161.338C58.4453 160.426 58.0488 159.237 58.0488 157.77C58.0488 156.229 58.6276 155.003 59.7852 154.092C60.9427 153.18 62.474 152.725 64.3789 152.725C66.3659 152.725 68.1934 153.089 69.8613 153.818L69.1367 155.842C67.487 155.149 65.8828 154.803 64.3242 154.803C63.0938 154.803 62.1322 155.067 61.4395 155.596C60.7467 156.124 60.4004 156.858 60.4004 157.797C60.4004 158.49 60.528 159.059 60.7832 159.506C61.0384 159.943 61.4668 160.349 62.0684 160.723C62.679 161.087 63.6087 161.493 64.8574 161.939C66.9538 162.687 68.3939 163.489 69.1777 164.346C69.9707 165.202 70.3672 166.314 70.3672 167.682ZM80.4434 173.273C78.2285 173.273 76.4785 172.599 75.1934 171.25C73.9173 169.901 73.2793 168.028 73.2793 165.631C73.2793 163.215 73.8717 161.297 75.0566 159.875C76.2507 158.453 77.8503 157.742 79.8555 157.742C81.7331 157.742 83.2188 158.362 84.3125 159.602C85.4062 160.832 85.9531 162.459 85.9531 164.482V165.918H75.6309C75.6764 167.677 76.1185 169.012 76.957 169.924C77.8047 170.835 78.9941 171.291 80.5254 171.291C82.1387 171.291 83.7337 170.954 85.3105 170.279V172.303C84.5085 172.649 83.7474 172.895 83.0273 173.041C82.3164 173.196 81.4551 173.273 80.4434 173.273ZM79.8281 159.643C78.625 159.643 77.6634 160.035 76.9434 160.818C76.2324 161.602 75.8132 162.687 75.6855 164.072H83.5195C83.5195 162.641 83.2005 161.548 82.5625 160.791C81.9245 160.025 81.013 159.643 79.8281 159.643ZM99.502 168.912C99.502 170.307 98.9824 171.382 97.9434 172.139C96.9043 172.895 95.446 173.273 93.5684 173.273C91.5814 173.273 90.0319 172.959 88.9199 172.33V170.225C89.64 170.589 90.4102 170.876 91.2305 171.086C92.0599 171.296 92.8574 171.4 93.623 171.4C94.8079 171.4 95.7194 171.214 96.3574 170.84C96.9954 170.457 97.3145 169.878 97.3145 169.104C97.3145 168.52 97.0592 168.023 96.5488 167.613C96.0475 167.194 95.0632 166.702 93.5957 166.137C92.2012 165.617 91.2077 165.166 90.6152 164.783C90.0319 164.391 89.5944 163.949 89.3027 163.457C89.0202 162.965 88.8789 162.377 88.8789 161.693C88.8789 160.472 89.3757 159.51 90.3691 158.809C91.3626 158.098 92.7253 157.742 94.457 157.742C96.0703 157.742 97.6471 158.07 99.1875 158.727L98.3809 160.572C96.877 159.952 95.5143 159.643 94.293 159.643C93.2174 159.643 92.4062 159.811 91.8594 160.148C91.3125 160.486 91.0391 160.951 91.0391 161.543C91.0391 161.944 91.1393 162.286 91.3398 162.568C91.5495 162.851 91.8822 163.12 92.3379 163.375C92.7936 163.63 93.6686 163.999 94.9629 164.482C96.7402 165.13 97.9388 165.781 98.5586 166.438C99.1875 167.094 99.502 167.919 99.502 168.912ZM105.34 158.016V167.736C105.34 168.958 105.618 169.869 106.174 170.471C106.73 171.072 107.6 171.373 108.785 171.373C110.353 171.373 111.497 170.945 112.217 170.088C112.946 169.231 113.311 167.832 113.311 165.891V158.016H115.58V173H113.707L113.379 170.99H113.256C112.791 171.729 112.144 172.294 111.314 172.686C110.494 173.077 109.555 173.273 108.498 173.273C106.675 173.273 105.308 172.84 104.396 171.975C103.494 171.109 103.043 169.723 103.043 167.818V158.016H105.34ZM129.621 173L129.17 170.867H129.061C128.313 171.806 127.566 172.444 126.818 172.781C126.08 173.109 125.155 173.273 124.043 173.273C122.557 173.273 121.391 172.891 120.543 172.125C119.704 171.359 119.285 170.27 119.285 168.857C119.285 165.831 121.705 164.245 126.545 164.1L129.088 164.018V163.088C129.088 161.912 128.833 161.046 128.322 160.49C127.821 159.925 127.014 159.643 125.902 159.643C124.654 159.643 123.241 160.025 121.664 160.791L120.967 159.055C121.705 158.654 122.512 158.339 123.387 158.111C124.271 157.883 125.155 157.77 126.039 157.77C127.826 157.77 129.147 158.166 130.004 158.959C130.87 159.752 131.303 161.023 131.303 162.773V173H129.621ZM124.494 171.4C125.907 171.4 127.014 171.013 127.816 170.238C128.628 169.464 129.033 168.379 129.033 166.984V165.631L126.764 165.727C124.959 165.79 123.656 166.073 122.854 166.574C122.061 167.066 121.664 167.837 121.664 168.885C121.664 169.705 121.91 170.329 122.402 170.758C122.904 171.186 123.601 171.4 124.494 171.4ZM138.262 173H135.992V158.016H138.262V173ZM135.801 153.955C135.801 153.436 135.928 153.057 136.184 152.82C136.439 152.574 136.758 152.451 137.141 152.451C137.505 152.451 137.82 152.574 138.084 152.82C138.348 153.066 138.48 153.445 138.48 153.955C138.48 154.465 138.348 154.848 138.084 155.104C137.82 155.35 137.505 155.473 137.141 155.473C136.758 155.473 136.439 155.35 136.184 155.104C135.928 154.848 135.801 154.465 135.801 153.955ZM161.969 167.682C161.969 169.441 161.331 170.812 160.055 171.797C158.779 172.781 157.047 173.273 154.859 173.273C152.49 173.273 150.667 172.968 149.391 172.357V170.115C150.211 170.462 151.104 170.735 152.07 170.936C153.036 171.136 153.993 171.236 154.941 171.236C156.491 171.236 157.658 170.945 158.441 170.361C159.225 169.769 159.617 168.949 159.617 167.9C159.617 167.208 159.476 166.643 159.193 166.205C158.92 165.758 158.455 165.348 157.799 164.975C157.152 164.601 156.163 164.177 154.832 163.703C152.973 163.038 151.642 162.249 150.84 161.338C150.047 160.426 149.65 159.237 149.65 157.77C149.65 156.229 150.229 155.003 151.387 154.092C152.544 153.18 154.076 152.725 155.98 152.725C157.967 152.725 159.795 153.089 161.463 153.818L160.738 155.842C159.089 155.149 157.484 154.803 155.926 154.803C154.695 154.803 153.734 155.067 153.041 155.596C152.348 156.124 152.002 156.858 152.002 157.797C152.002 158.49 152.13 159.059 152.385 159.506C152.64 159.943 153.068 160.349 153.67 160.723C154.281 161.087 155.21 161.493 156.459 161.939C158.555 162.687 159.995 163.489 160.779 164.346C161.572 165.202 161.969 166.314 161.969 167.682ZM163.336 158.016H165.77L169.051 166.561C169.771 168.511 170.217 169.919 170.391 170.785H170.5C170.618 170.32 170.865 169.527 171.238 168.406C171.621 167.276 172.861 163.812 174.957 158.016H177.391L170.951 175.078C170.313 176.764 169.566 177.958 168.709 178.66C167.861 179.371 166.818 179.727 165.578 179.727C164.885 179.727 164.202 179.649 163.527 179.494V177.676C164.029 177.785 164.589 177.84 165.209 177.84C166.768 177.84 167.88 176.965 168.545 175.215L169.379 173.082L163.336 158.016ZM189.039 173L188.588 170.867H188.479C187.731 171.806 186.984 172.444 186.236 172.781C185.498 173.109 184.573 173.273 183.461 173.273C181.975 173.273 180.809 172.891 179.961 172.125C179.122 171.359 178.703 170.27 178.703 168.857C178.703 165.831 181.123 164.245 185.963 164.1L188.506 164.018V163.088C188.506 161.912 188.251 161.046 187.74 160.49C187.239 159.925 186.432 159.643 185.32 159.643C184.072 159.643 182.659 160.025 181.082 160.791L180.385 159.055C181.123 158.654 181.93 158.339 182.805 158.111C183.689 157.883 184.573 157.77 185.457 157.77C187.243 157.77 188.565 158.166 189.422 158.959C190.288 159.752 190.721 161.023 190.721 162.773V173H189.039ZM183.912 171.4C185.325 171.4 186.432 171.013 187.234 170.238C188.046 169.464 188.451 168.379 188.451 166.984V165.631L186.182 165.727C184.377 165.79 183.074 166.073 182.271 166.574C181.479 167.066 181.082 167.837 181.082 168.885C181.082 169.705 181.328 170.329 181.82 170.758C182.322 171.186 183.019 171.4 183.912 171.4ZM202.246 157.742C202.911 157.742 203.508 157.797 204.037 157.906L203.723 160.012C203.103 159.875 202.556 159.807 202.082 159.807C200.87 159.807 199.831 160.299 198.965 161.283C198.108 162.268 197.68 163.493 197.68 164.961V173H195.41V158.016H197.283L197.543 160.791H197.652C198.208 159.816 198.878 159.064 199.662 158.535C200.446 158.007 201.307 157.742 202.246 157.742ZM209.109 173H206.84V158.016H209.109V173ZM206.648 153.955C206.648 153.436 206.776 153.057 207.031 152.82C207.286 152.574 207.605 152.451 207.988 152.451C208.353 152.451 208.667 152.574 208.932 152.82C209.196 153.066 209.328 153.445 209.328 153.955C209.328 154.465 209.196 154.848 208.932 155.104C208.667 155.35 208.353 155.473 207.988 155.473C207.605 155.473 207.286 155.35 207.031 155.104C206.776 154.848 206.648 154.465 206.648 153.955ZM223.137 173L222.686 170.867H222.576C221.829 171.806 221.081 172.444 220.334 172.781C219.596 173.109 218.671 173.273 217.559 173.273C216.073 173.273 214.906 172.891 214.059 172.125C213.22 171.359 212.801 170.27 212.801 168.857C212.801 165.831 215.221 164.245 220.061 164.1L222.604 164.018V163.088C222.604 161.912 222.348 161.046 221.838 160.49C221.337 159.925 220.53 159.643 219.418 159.643C218.169 159.643 216.757 160.025 215.18 160.791L214.482 159.055C215.221 158.654 216.027 158.339 216.902 158.111C217.786 157.883 218.671 157.77 219.555 157.77C221.341 157.77 222.663 158.166 223.52 158.959C224.385 159.752 224.818 161.023 224.818 162.773V173H223.137ZM218.01 171.4C219.423 171.4 220.53 171.013 221.332 170.238C222.143 169.464 222.549 168.379 222.549 166.984V165.631L220.279 165.727C218.475 165.79 217.171 166.073 216.369 166.574C215.576 167.066 215.18 167.837 215.18 168.885C215.18 169.705 215.426 170.329 215.918 170.758C216.419 171.186 217.117 171.4 218.01 171.4ZM234.348 171.4C234.749 171.4 235.136 171.373 235.51 171.318C235.883 171.255 236.18 171.191 236.398 171.127V172.863C236.152 172.982 235.788 173.077 235.305 173.15C234.831 173.232 234.402 173.273 234.02 173.273C231.121 173.273 229.672 171.747 229.672 168.693V159.779H227.525V158.686L229.672 157.742L230.629 154.543H231.941V158.016H236.289V159.779H231.941V168.598C231.941 169.5 232.156 170.193 232.584 170.676C233.012 171.159 233.6 171.4 234.348 171.4Z" fill="white"/>
<defs>
<linearGradient id="paint0_linear_54_253" x1="17.4644" y1="25.44" x2="354.631" y2="111.022" gradientUnits="userSpaceOnUse">
<stop stop-color="#FCB633"/>
<stop offset="0.203125" stop-color="#D1A045"/>
<stop offset="0.244792" stop-color="#C9932F"/>
<stop offset="0.604167" stop-color="#FFCA66"/>
<stop offset="0.677083" stop-color="#FCB126"/>
<stop offset="1" stop-color="#815400"/>
</linearGradient>
</defs>
</svg>
