<svg width="407" height="212" viewBox="0 0 407 212" fill="none" xmlns="http://www.w3.org/2000/svg">
<path d="M35.65 72.1C34.15 76.15 30.55 78.25 24.85 78.25C15.25 78.25 8.35 70.75 8.35 61.3C8.35 55.15 10.9 49.9 15.85 45.85C20.8 41.8 26.5 39.7 32.65 39.7C39.55 39.7 45.4 41.8 50.05 45.85C54.85 49.9 57.25 55.15 57.25 61.6C57.25 66.55 56.2 71.5 53.95 76.15L36.55 113.95C34 119.5 32.8 124.45 32.8 129.1C32.8 140.65 39.4 149.05 53.05 149.05C61.6 149.05 70.75 144.7 80.5 136C83.95 143.8 91.15 148.9 100 148.9C114.55 148.9 126.1 139.45 134.95 120.4L159.7 67.15C165.25 55.15 170.8 49.15 176.35 49.15C177.25 49.15 178.3 49.45 179.5 49.9C185.65 52.45 188.5 45.55 183.1 43C180.55 41.8 178.3 41.2 176.35 41.2C172.75 41.2 169.15 42.7 165.55 45.7C161.95 48.7 159.25 51.7 157.3 54.55C155.5 57.4 153.85 60.4 152.5 63.4L127.75 117.1C124.75 123.55 120.85 129.25 116.05 133.9C111.4 138.55 106.15 140.95 100.45 140.95C93.4 140.95 88.6 136.75 86.95 129.7C95.65 120.85 103 110.35 109.15 98.5C115.3 86.65 118.3 76.45 118.15 67.9C118.15 61.45 114.7 56.35 108.85 56.35C105.4 56.35 101.2 59.5 96.4 65.95C91.75 72.25 87.55 80.8 83.8 91.45C80.05 102.1 78.25 112.75 78.25 123.1C78.25 125.2 78.25 126.7 78.4 127.75C69.25 136.6 60.7 141.1 53.05 141.1C44.8 141.1 40.75 137.2 40.75 129.25C40.75 125.5 41.65 121.6 43.45 117.55L61 79.3C64 72.85 65.5 66.85 65.5 61.15C65.5 52.6 62.2 45.55 55.45 40C48.85 34.45 41.35 31.75 32.8 31.75C24.25 31.75 16.75 34.6 10.15 40.45C3.7 46.15 0.4 53.05 0.4 61.15C0.4 68.2 2.8 74.05 7.6 78.85C12.4 83.65 18.1 86.05 24.85 86.05C33.4 86.05 40.75 82 43.6 74.65C46.15 68.35 38.2 64.75 35.65 72.1ZM108.85 64.3C110.05 64.3 110.65 65.2 110.65 67.15C110.65 73.6 108.55 81.4 104.2 90.7C99.85 100 94.6 108.55 88.15 116.5C86.8 118.15 86.05 118.75 86.35 115.6C87.1 107.95 89.05 100.15 91.9 91.9C94.75 83.65 97.9 76.9 101.05 71.95C104.2 66.85 106.9 64.3 108.85 64.3ZM180.17 140.8C184.52 140.8 188.42 139 191.87 135.4C195.32 131.8 198.02 128.05 199.67 124C200.57 121.6 199.82 119.95 197.57 119.2C195.32 118.3 193.67 118.9 192.47 121.15C190.82 124.15 190.82 124.6 188.42 128.05C186.02 131.5 183.32 133 180.17 133C177.32 133 175.82 131.8 175.82 129.55C175.82 128.05 176.27 126.25 177.32 124.15L193.97 87.4C194.12 86.8 194.27 86.2 194.27 85.75C194.27 83.8 193.37 82.75 191.42 82.45C189.17 82.3 187.52 83.35 186.62 85.75C185.27 82.75 181.07 80.95 177.02 80.95C169.37 80.95 162.92 86.35 157.67 97.3L146.42 121C145.07 124 144.32 126.85 144.32 129.4C144.32 136.75 149.27 140.8 157.52 140.8C161.87 140.8 165.77 139 169.07 135.55C171.02 139 174.62 140.8 180.17 140.8ZM168.92 122.8C166.67 127.75 162.47 133 157.52 133C152.57 133 151.52 128.2 153.77 124.45L164.57 101.35C166.37 97.75 166.37 97.6 168.62 94C171.02 90.4 173.87 88.75 177.02 88.75C182.72 88.75 182.72 93.7 180.77 97.6L168.92 122.8ZM232.316 53.8C235.466 47.35 227.516 45.25 224.966 50.65L192.566 120.85C191.066 124 190.316 127 190.316 129.55C190.316 137.05 194.516 140.8 202.766 140.8C207.116 140.8 211.016 139 214.466 135.4C217.916 131.8 220.616 128.05 222.266 124C223.166 121.6 222.416 119.95 220.166 119.2C217.916 118.3 216.266 118.9 215.066 121.15C213.416 124.15 213.416 124.6 211.016 128.05C208.616 131.5 205.916 133 202.766 133C197.066 133 198.416 127.75 199.916 124.15L232.316 53.8ZM225.321 140.8C229.671 140.8 233.571 139 237.021 135.4C240.471 131.8 243.171 128.05 244.821 124C245.721 121.6 244.971 119.95 242.721 119.2C240.471 118.3 238.821 118.9 237.621 121.15C233.721 129.1 229.671 133 225.321 133C222.771 133 221.421 131.95 221.121 129.85C220.821 127.6 221.271 125.65 222.321 124L239.121 87.4C241.671 82.3 233.871 79.3 231.621 84.4L214.971 121.15C213.621 124.45 212.871 127.3 212.871 129.55C212.871 137.05 217.071 140.8 225.321 140.8ZM250.071 68.35C250.821 64.75 248.121 61.6 244.371 61.6C241.221 61.6 238.071 64.3 237.471 67.75C236.871 71.35 239.271 74.35 243.021 74.35C246.471 74.35 249.471 71.8 250.071 68.35ZM279.53 100.15C282.38 94.3 287.33 88.75 292.73 88.75C295.43 88.75 296.78 89.95 296.78 92.35C296.78 93.4 296.33 95.05 295.43 97.3L284.48 120.85C282.98 124 282.23 127 282.23 129.55C282.23 137.05 286.43 140.8 294.68 140.8C299.03 140.8 302.93 139 306.38 135.4C309.83 131.8 312.53 128.05 314.18 124C315.08 121.6 314.33 119.95 312.08 119.2C309.83 118.3 308.18 118.9 306.98 121.15C303.08 129.1 299.03 133 294.68 133C291.83 133 290.33 131.8 290.33 129.55C290.33 128.05 290.78 126.25 291.83 124.15L302.63 100.9C304.13 97.9 304.88 95.05 304.88 92.35C304.88 85.15 300.38 80.95 292.73 80.95C288.38 80.95 284.33 82.9 280.43 86.8C278.63 82.9 275.18 80.95 269.93 80.95C266.93 80.95 263.33 82.75 261.98 84.55C261.68 82.6 260.63 81.55 258.68 81.55C256.73 81.55 255.38 82.45 254.63 84.25L237.68 121C233.93 128.95 229.88 133 225.38 133C220.88 133 220.58 140.8 225.38 140.8C236.03 140.8 242.93 129.4 245.18 124.15L256.58 98.95C258.53 94.3 263.63 88.75 269.03 88.75C271.88 88.75 273.38 89.95 273.38 92.35C273.38 93.7 272.93 95.35 272.03 97.6L254.78 134.5C254.33 135.25 254.18 136 254.18 136.6C254.18 138.4 255.23 139.45 257.18 139.6C259.73 139.9 261.68 138.7 263.03 135.85L279.53 100.15ZM340.717 140.8C345.067 140.8 348.967 139 352.417 135.4C355.867 131.8 358.567 128.05 360.217 124C361.117 121.6 360.367 119.95 358.117 119.2C355.867 118.3 354.217 118.9 353.017 121.15C351.367 124.15 351.367 124.6 348.967 128.05C346.567 131.5 343.867 133 340.717 133C337.867 133 336.367 131.8 336.367 129.55C336.367 128.05 336.817 126.25 337.867 124.15L354.517 87.4C354.667 86.8 354.817 86.2 354.817 85.75C354.817 83.8 353.917 82.75 351.967 82.45C349.717 82.3 348.067 83.35 347.167 85.75C345.817 82.75 341.617 80.95 337.567 80.95C329.917 80.95 323.467 86.35 318.217 97.3L306.967 121C305.617 124 304.867 126.85 304.867 129.4C304.867 136.75 309.817 140.8 318.067 140.8C322.417 140.8 326.317 139 329.617 135.55C331.567 139 335.167 140.8 340.717 140.8ZM329.467 122.8C327.217 127.75 323.017 133 318.067 133C313.117 133 312.067 128.2 314.317 124.45L325.117 101.35C326.917 97.75 326.917 97.6 329.167 94C331.567 90.4 334.417 88.75 337.567 88.75C343.267 88.75 343.267 93.7 341.317 97.6L329.467 122.8ZM352.963 121.15C349.213 129.1 345.163 133 340.513 133C336.013 133 335.263 140.8 340.513 140.8C351.163 140.8 358.063 129.4 360.313 124.15L371.863 98.65C374.113 93.85 378.463 88.75 383.413 88.75C386.863 88.75 388.513 89.95 388.513 92.35C388.513 93.4 388.063 95.05 387.163 97.3L376.213 120.85C374.713 124 373.963 127 373.963 129.55C373.963 137.05 378.163 140.8 386.413 140.8C390.763 140.8 394.663 139 398.113 135.4C401.563 131.8 404.263 128.05 405.913 124C406.813 121.6 406.063 119.95 403.813 119.2C401.563 118.3 399.913 118.9 398.713 121.15C397.063 124.15 397.063 124.6 394.663 128.05C392.263 131.5 389.563 133 386.413 133C383.563 133 382.063 131.8 382.063 129.55C382.063 128.05 382.513 126.25 383.413 124.3L394.363 100.9C395.863 97.9 396.613 95.05 396.613 92.35C396.613 85.3 392.413 80.8 385.363 80.8C382.813 80.8 380.413 81.85 377.863 83.95L392.713 53.8C395.863 47.35 387.913 45.25 385.363 50.65L352.963 121.15Z" fill="url(#paint0_linear_54_18)"/>
<path d="M115.098 162.979C115.098 166.178 114.286 168.693 112.664 170.525C111.051 172.357 108.804 173.273 105.924 173.273C102.98 173.273 100.706 172.376 99.1016 170.58C97.5065 168.775 96.709 166.232 96.709 162.951C96.709 159.697 97.5111 157.177 99.1152 155.391C100.719 153.595 102.998 152.697 105.951 152.697C108.822 152.697 111.064 153.609 112.678 155.432C114.291 157.255 115.098 159.77 115.098 162.979ZM99.1699 162.979C99.1699 165.686 99.7441 167.741 100.893 169.145C102.05 170.539 103.727 171.236 105.924 171.236C108.139 171.236 109.811 170.539 110.941 169.145C112.072 167.75 112.637 165.695 112.637 162.979C112.637 160.29 112.072 158.253 110.941 156.867C109.82 155.473 108.157 154.775 105.951 154.775C103.736 154.775 102.05 155.477 100.893 156.881C99.7441 158.275 99.1699 160.308 99.1699 162.979ZM126.062 157.742C126.728 157.742 127.325 157.797 127.854 157.906L127.539 160.012C126.919 159.875 126.372 159.807 125.898 159.807C124.686 159.807 123.647 160.299 122.781 161.283C121.924 162.268 121.496 163.493 121.496 164.961V173H119.227V158.016H121.1L121.359 160.791H121.469C122.025 159.816 122.695 159.064 123.479 158.535C124.262 158.007 125.124 157.742 126.062 157.742ZM142.92 158.016V159.451L140.145 159.779C140.4 160.098 140.628 160.518 140.828 161.037C141.029 161.548 141.129 162.126 141.129 162.773C141.129 164.241 140.628 165.412 139.625 166.287C138.622 167.162 137.246 167.6 135.496 167.6C135.049 167.6 134.63 167.563 134.238 167.49C133.272 168.001 132.789 168.643 132.789 169.418C132.789 169.828 132.958 170.133 133.295 170.334C133.632 170.525 134.211 170.621 135.031 170.621H137.684C139.306 170.621 140.55 170.963 141.416 171.646C142.291 172.33 142.729 173.324 142.729 174.627C142.729 176.286 142.063 177.548 140.732 178.414C139.402 179.289 137.46 179.727 134.908 179.727C132.949 179.727 131.436 179.362 130.369 178.633C129.312 177.904 128.783 176.874 128.783 175.543C128.783 174.632 129.075 173.843 129.658 173.178C130.242 172.512 131.062 172.061 132.119 171.824C131.736 171.651 131.413 171.382 131.148 171.018C130.893 170.653 130.766 170.229 130.766 169.746C130.766 169.199 130.911 168.721 131.203 168.311C131.495 167.9 131.955 167.504 132.584 167.121C131.809 166.802 131.176 166.26 130.684 165.494C130.201 164.729 129.959 163.854 129.959 162.869C129.959 161.229 130.451 159.966 131.436 159.082C132.42 158.189 133.814 157.742 135.619 157.742C136.403 157.742 137.109 157.833 137.738 158.016H142.92ZM130.971 175.516C130.971 176.327 131.312 176.942 131.996 177.361C132.68 177.781 133.66 177.99 134.936 177.99C136.84 177.99 138.249 177.703 139.16 177.129C140.081 176.564 140.541 175.794 140.541 174.818C140.541 174.007 140.29 173.442 139.789 173.123C139.288 172.813 138.344 172.658 136.959 172.658H134.238C133.208 172.658 132.406 172.904 131.832 173.396C131.258 173.889 130.971 174.595 130.971 175.516ZM132.201 162.814C132.201 163.863 132.497 164.656 133.09 165.193C133.682 165.731 134.507 166 135.564 166C137.779 166 138.887 164.924 138.887 162.773C138.887 160.522 137.766 159.396 135.523 159.396C134.457 159.396 133.637 159.684 133.062 160.258C132.488 160.832 132.201 161.684 132.201 162.814ZM155.211 173L154.76 170.867H154.65C153.903 171.806 153.156 172.444 152.408 172.781C151.67 173.109 150.745 173.273 149.633 173.273C148.147 173.273 146.98 172.891 146.133 172.125C145.294 171.359 144.875 170.27 144.875 168.857C144.875 165.831 147.295 164.245 152.135 164.1L154.678 164.018V163.088C154.678 161.912 154.423 161.046 153.912 160.49C153.411 159.925 152.604 159.643 151.492 159.643C150.243 159.643 148.831 160.025 147.254 160.791L146.557 159.055C147.295 158.654 148.102 158.339 148.977 158.111C149.861 157.883 150.745 157.77 151.629 157.77C153.415 157.77 154.737 158.166 155.594 158.959C156.46 159.752 156.893 161.023 156.893 162.773V173H155.211ZM150.084 171.4C151.497 171.4 152.604 171.013 153.406 170.238C154.217 169.464 154.623 168.379 154.623 166.984V165.631L152.354 165.727C150.549 165.79 149.245 166.073 148.443 166.574C147.65 167.066 147.254 167.837 147.254 168.885C147.254 169.705 147.5 170.329 147.992 170.758C148.493 171.186 149.191 171.4 150.084 171.4ZM171.836 173V163.307C171.836 162.085 171.558 161.174 171.002 160.572C170.446 159.971 169.576 159.67 168.391 159.67C166.823 159.67 165.674 160.094 164.945 160.941C164.216 161.789 163.852 163.188 163.852 165.139V173H161.582V158.016H163.428L163.797 160.066H163.906C164.371 159.328 165.023 158.758 165.861 158.357C166.7 157.947 167.634 157.742 168.664 157.742C170.469 157.742 171.827 158.18 172.738 159.055C173.65 159.921 174.105 161.311 174.105 163.225V173H171.836ZM181.051 173H178.781V158.016H181.051V173ZM178.59 153.955C178.59 153.436 178.717 153.057 178.973 152.82C179.228 152.574 179.547 152.451 179.93 152.451C180.294 152.451 180.609 152.574 180.873 152.82C181.137 153.066 181.27 153.445 181.27 153.955C181.27 154.465 181.137 154.848 180.873 155.104C180.609 155.35 180.294 155.473 179.93 155.473C179.547 155.473 179.228 155.35 178.973 155.104C178.717 154.848 178.59 154.465 178.59 153.955ZM195.447 173H184.578V171.455L192.754 159.779H185.084V158.016H195.242V159.779L187.176 171.236H195.447V173ZM205.291 173.273C203.076 173.273 201.326 172.599 200.041 171.25C198.765 169.901 198.127 168.028 198.127 165.631C198.127 163.215 198.719 161.297 199.904 159.875C201.098 158.453 202.698 157.742 204.703 157.742C206.581 157.742 208.066 158.362 209.16 159.602C210.254 160.832 210.801 162.459 210.801 164.482V165.918H200.479C200.524 167.677 200.966 169.012 201.805 169.924C202.652 170.835 203.842 171.291 205.373 171.291C206.986 171.291 208.581 170.954 210.158 170.279V172.303C209.356 172.649 208.595 172.895 207.875 173.041C207.164 173.196 206.303 173.273 205.291 173.273ZM204.676 159.643C203.473 159.643 202.511 160.035 201.791 160.818C201.08 161.602 200.661 162.687 200.533 164.072H208.367C208.367 162.641 208.048 161.548 207.41 160.791C206.772 160.025 205.861 159.643 204.676 159.643ZM221.52 157.742C222.185 157.742 222.782 157.797 223.311 157.906L222.996 160.012C222.376 159.875 221.829 159.807 221.355 159.807C220.143 159.807 219.104 160.299 218.238 161.283C217.382 162.268 216.953 163.493 216.953 164.961V173H214.684V158.016H216.557L216.816 160.791H216.926C217.482 159.816 218.152 159.064 218.936 158.535C219.719 158.007 220.581 157.742 221.52 157.742ZM245.008 167.682C245.008 169.441 244.37 170.812 243.094 171.797C241.818 172.781 240.086 173.273 237.898 173.273C235.529 173.273 233.706 172.968 232.43 172.357V170.115C233.25 170.462 234.143 170.735 235.109 170.936C236.076 171.136 237.033 171.236 237.98 171.236C239.53 171.236 240.697 170.945 241.48 170.361C242.264 169.769 242.656 168.949 242.656 167.9C242.656 167.208 242.515 166.643 242.232 166.205C241.959 165.758 241.494 165.348 240.838 164.975C240.191 164.601 239.202 164.177 237.871 163.703C236.012 163.038 234.681 162.249 233.879 161.338C233.086 160.426 232.689 159.237 232.689 157.77C232.689 156.229 233.268 155.003 234.426 154.092C235.583 153.18 237.115 152.725 239.02 152.725C241.007 152.725 242.834 153.089 244.502 153.818L243.777 155.842C242.128 155.149 240.523 154.803 238.965 154.803C237.734 154.803 236.773 155.067 236.08 155.596C235.387 156.124 235.041 156.858 235.041 157.797C235.041 158.49 235.169 159.059 235.424 159.506C235.679 159.943 236.107 160.349 236.709 160.723C237.32 161.087 238.249 161.493 239.498 161.939C241.594 162.687 243.035 163.489 243.818 164.346C244.611 165.202 245.008 166.314 245.008 167.682ZM246.375 158.016H248.809L252.09 166.561C252.81 168.511 253.257 169.919 253.43 170.785H253.539C253.658 170.32 253.904 169.527 254.277 168.406C254.66 167.276 255.9 163.812 257.996 158.016H260.43L253.99 175.078C253.352 176.764 252.605 177.958 251.748 178.66C250.9 179.371 249.857 179.727 248.617 179.727C247.924 179.727 247.241 179.649 246.566 179.494V177.676C247.068 177.785 247.628 177.84 248.248 177.84C249.807 177.84 250.919 176.965 251.584 175.215L252.418 173.082L246.375 158.016ZM272.078 173L271.627 170.867H271.518C270.77 171.806 270.023 172.444 269.275 172.781C268.537 173.109 267.612 173.273 266.5 173.273C265.014 173.273 263.848 172.891 263 172.125C262.161 171.359 261.742 170.27 261.742 168.857C261.742 165.831 264.162 164.245 269.002 164.1L271.545 164.018V163.088C271.545 161.912 271.29 161.046 270.779 160.49C270.278 159.925 269.471 159.643 268.359 159.643C267.111 159.643 265.698 160.025 264.121 160.791L263.424 159.055C264.162 158.654 264.969 158.339 265.844 158.111C266.728 157.883 267.612 157.77 268.496 157.77C270.283 157.77 271.604 158.166 272.461 158.959C273.327 159.752 273.76 161.023 273.76 162.773V173H272.078ZM266.951 171.4C268.364 171.4 269.471 171.013 270.273 170.238C271.085 169.464 271.49 168.379 271.49 166.984V165.631L269.221 165.727C267.416 165.79 266.113 166.073 265.311 166.574C264.518 167.066 264.121 167.837 264.121 168.885C264.121 169.705 264.367 170.329 264.859 170.758C265.361 171.186 266.058 171.4 266.951 171.4ZM285.285 157.742C285.951 157.742 286.548 157.797 287.076 157.906L286.762 160.012C286.142 159.875 285.595 159.807 285.121 159.807C283.909 159.807 282.87 160.299 282.004 161.283C281.147 162.268 280.719 163.493 280.719 164.961V173H278.449V158.016H280.322L280.582 160.791H280.691C281.247 159.816 281.917 159.064 282.701 158.535C283.485 158.007 284.346 157.742 285.285 157.742ZM291.697 153.012L291.902 153.312C291.665 154.224 291.324 155.286 290.877 156.498C290.43 157.701 289.965 158.822 289.482 159.861H287.814C288.452 157.264 288.917 154.98 289.209 153.012H291.697ZM296.906 173H294.637V158.016H296.906V173ZM294.445 153.955C294.445 153.436 294.573 153.057 294.828 152.82C295.083 152.574 295.402 152.451 295.785 152.451C296.15 152.451 296.464 152.574 296.729 152.82C296.993 153.066 297.125 153.445 297.125 153.955C297.125 154.465 296.993 154.848 296.729 155.104C296.464 155.35 296.15 155.473 295.785 155.473C295.402 155.473 295.083 155.35 294.828 155.104C294.573 154.848 294.445 154.465 294.445 153.955Z" fill="white"/>
<defs>
<linearGradient id="paint0_linear_54_18" x1="12.7936" y1="25.44" x2="419.336" y2="154.027" gradientUnits="userSpaceOnUse">
<stop stop-color="#FCB633"/>
<stop offset="0.203125" stop-color="#D1A045"/>
<stop offset="0.244792" stop-color="#C9932F"/>
<stop offset="0.604167" stop-color="#FFCA66"/>
<stop offset="0.677083" stop-color="#FCB126"/>
<stop offset="1" stop-color="#815400"/>
</linearGradient>
</defs>
</svg>
